<?xml version="1.0" encoding="UTF-8" standalone="no"?>
<!DOCTYPE svg PUBLIC "-//W3C//DTD SVG 1.1//EN"
 "http://www.w3.org/Graphics/SVG/1.1/DTD/svg11.dtd">
<!-- Generated by graphviz version 2.36.0 (20140111.2315)
 -->
<!-- Title: G Pages: 1 -->
<svg width="604pt" height="2282pt"
 viewBox="0.00 0.00 604.00 2282.00" xmlns="http://www.w3.org/2000/svg" xmlns:xlink="http://www.w3.org/1999/xlink">
<g id="graph0" class="graph" transform="scale(1 1) rotate(0) translate(4 2278)">
<title>G</title>
<polygon fill="white" stroke="none" points="-4,4 -4,-2278 600,-2278 600,4 -4,4"/>
<g id="clust1" class="cluster"><title>cluster_Global</title>
<path fill="none" stroke="gray" d="M20,-8C20,-8 576,-8 576,-8 582,-8 588,-14 588,-20 588,-20 588,-2254 588,-2254 588,-2260 582,-2266 576,-2266 576,-2266 20,-2266 20,-2266 14,-2266 8,-2260 8,-2254 8,-2254 8,-20 8,-20 8,-14 14,-8 20,-8"/>
<text text-anchor="middle" x="298" y="-2253.2" font-family="Times New Roman,serif" font-size="11.00" fill="gray">Global</text>
</g>
<g id="clust2" class="cluster"><title>cluster_\Siad007</title>
<path fill="none" stroke="gray" d="M28,-16C28,-16 568,-16 568,-16 574,-16 580,-22 580,-28 580,-28 580,-2226 580,-2226 580,-2232 574,-2238 568,-2238 568,-2238 28,-2238 28,-2238 22,-2238 16,-2232 16,-2226 16,-2226 16,-28 16,-28 16,-22 22,-16 28,-16"/>
<text text-anchor="middle" x="298" y="-2225.2" font-family="Times New Roman,serif" font-size="11.00" fill="gray">Siad007</text>
</g>
<g id="clust3" class="cluster"><title>cluster_\Siad007\VersionControl</title>
<path fill="none" stroke="gray" d="M36,-24C36,-24 560,-24 560,-24 566,-24 572,-30 572,-36 572,-36 572,-2198 572,-2198 572,-2204 566,-2210 560,-2210 560,-2210 36,-2210 36,-2210 30,-2210 24,-2204 24,-2198 24,-2198 24,-36 24,-36 24,-30 30,-24 36,-24"/>
<text text-anchor="middle" x="298" y="-2197.2" font-family="Times New Roman,serif" font-size="11.00" fill="gray">VersionControl</text>
</g>
<g id="clust4" class="cluster"><title>cluster_\Siad007\VersionControl\HG</title>
<path fill="none" stroke="gray" d="M44,-32C44,-32 552,-32 552,-32 558,-32 564,-38 564,-44 564,-44 564,-2170 564,-2170 564,-2176 558,-2182 552,-2182 552,-2182 44,-2182 44,-2182 38,-2182 32,-2176 32,-2170 32,-2170 32,-44 32,-44 32,-38 38,-32 44,-32"/>
<text text-anchor="middle" x="298" y="-2169.2" font-family="Times New Roman,serif" font-size="11.00" fill="gray">HG</text>
</g>
<g id="clust5" class="cluster"><title>cluster_\Siad007\VersionControl\HG\Command</title>
<path fill="none" stroke="gray" d="M52,-84C52,-84 544,-84 544,-84 550,-84 556,-90 556,-96 556,-96 556,-2142 556,-2142 556,-2148 550,-2154 544,-2154 544,-2154 52,-2154 52,-2154 46,-2154 40,-2148 40,-2142 40,-2142 40,-96 40,-96 40,-90 46,-84 52,-84"/>
<text text-anchor="middle" x="298" y="-2141.2" font-family="Times New Roman,serif" font-size="11.00" fill="gray">Command</text>
</g>
<!-- \\Siad007\\VersionControl\\HG\\Command\\PushCommand -->
<g id="node1" class="node"><title>\\Siad007\\VersionControl\\HG\\Command\\PushCommand</title>
<polygon fill="none" stroke="black" points="346.5,-2126 255.5,-2126 255.5,-2090 346.5,-2090 346.5,-2126"/>
<text text-anchor="middle" x="301" y="-2105.2" font-family="Courier,monospace" font-size="11.00">PushCommand</text>
</g>
<!-- \\Siad007\\VersionControl\\HG\\Command\\AbstractCommand -->
<g id="node25" class="node"><title>\\Siad007\\VersionControl\\HG\\Command\\AbstractCommand</title>
<polygon fill="none" stroke="black" points="166,-1127 48,-1127 48,-1091 166,-1091 166,-1127"/>
<text text-anchor="start" x="73" y="-1112.2" font-family="Courier,monospace" font-size="11.00">«abstract»</text>
<text text-anchor="start" x="56" y="-1100.2" font-family="Courier,monospace" font-size="11.00">AbstractCommand</text>
</g>
<!-- \\Siad007\\VersionControl\\HG\\Command\\PushCommand&#45;&gt;\\Siad007\\VersionControl\\HG\\Command\\AbstractCommand -->
<g id="edge1" class="edge"><title>\\Siad007\\VersionControl\\HG\\Command\\PushCommand&#45;&gt;\\Siad007\\VersionControl\\HG\\Command\\AbstractCommand</title>
<path fill="none" stroke="black" d="M255.326,-2095.34C248.665,-2091.68 242.526,-2087 238,-2081 121.549,-1926.7 109.402,-1281.32 108.144,-1137.5"/>
<polygon fill="none" stroke="black" points="111.642,-1137.27 108.066,-1127.29 104.643,-1137.32 111.642,-1137.27"/>
</g>
<!-- \\Siad007\\VersionControl\\HG\\Command\\CommitCommand -->
<g id="node2" class="node"><title>\\Siad007\\VersionControl\\HG\\Command\\CommitCommand</title>
<polygon fill="none" stroke="black" points="353,-2072 249,-2072 249,-2036 353,-2036 353,-2072"/>
<text text-anchor="middle" x="301" y="-2051.2" font-family="Courier,monospace" font-size="11.00">CommitCommand</text>
</g>
<!-- \\Siad007\\VersionControl\\HG\\Command\\CommitCommand&#45;&gt;\\Siad007\\VersionControl\\HG\\Command\\AbstractCommand -->
<g id="edge2" class="edge"><title>\\Siad007\\VersionControl\\HG\\Command\\CommitCommand&#45;&gt;\\Siad007\\VersionControl\\HG\\Command\\AbstractCommand</title>
<path fill="none" stroke="black" d="M248.718,-2037.17C244.66,-2034.29 240.986,-2030.92 238,-2027 127.687,-1882 110.816,-1275.64 108.388,-1137.22"/>
<polygon fill="none" stroke="black" points="111.884,-1136.96 108.221,-1127.02 104.885,-1137.08 111.884,-1136.96"/>
</g>
<!-- \\Siad007\\VersionControl\\HG\\Command\\BaseCommand -->
<g id="node3" class="node"><title>\\Siad007\\VersionControl\\HG\\Command\\BaseCommand</title>
<polygon fill="none" stroke="black" points="346.5,-938 255.5,-938 255.5,-902 346.5,-902 346.5,-938"/>
<text text-anchor="middle" x="301" y="-917.2" font-family="Courier,monospace" font-size="11.00">BaseCommand</text>
</g>
<!-- \\Siad007\\VersionControl\\HG\\Command\\BaseCommand&#45;&gt;\\Siad007\\VersionControl\\HG\\Command\\AbstractCommand -->
<g id="edge3" class="edge"><title>\\Siad007\\VersionControl\\HG\\Command\\BaseCommand&#45;&gt;\\Siad007\\VersionControl\\HG\\Command\\AbstractCommand</title>
<path fill="none" stroke="black" d="M255.49,-936.213C249.339,-939.343 243.317,-942.936 238,-947 187.899,-985.296 145.585,-1046.86 123.797,-1082.04"/>
<polygon fill="none" stroke="black" points="120.673,-1080.44 118.457,-1090.8 126.65,-1084.09 120.673,-1080.44"/>
</g>
<!-- \\Siad007\\VersionControl\\HG\\Command\\AnnotateCommand -->
<g id="node4" class="node"><title>\\Siad007\\VersionControl\\HG\\Command\\AnnotateCommand</title>
<polygon fill="none" stroke="black" points="360,-1478 242,-1478 242,-1442 360,-1442 360,-1478"/>
<text text-anchor="middle" x="301" y="-1457.2" font-family="Courier,monospace" font-size="11.00">AnnotateCommand</text>
</g>
<!-- \\Siad007\\VersionControl\\HG\\Command\\AnnotateCommand&#45;&gt;\\Siad007\\VersionControl\\HG\\Command\\AbstractCommand -->
<g id="edge4" class="edge"><title>\\Siad007\\VersionControl\\HG\\Command\\AnnotateCommand&#45;&gt;\\Siad007\\VersionControl\\HG\\Command\\AbstractCommand</title>
<path fill="none" stroke="black" d="M249.056,-1441.97C245.035,-1439.34 241.272,-1436.37 238,-1433 153.946,-1346.46 122.009,-1198.62 111.959,-1137.12"/>
<polygon fill="none" stroke="black" points="115.381,-1136.35 110.379,-1127.01 108.465,-1137.43 115.381,-1136.35"/>
</g>
<!-- \\Siad007\\VersionControl\\HG\\Command\\HeadsCommand -->
<g id="node5" class="node"><title>\\Siad007\\VersionControl\\HG\\Command\\HeadsCommand</title>
<polygon fill="none" stroke="black" points="350,-2018 252,-2018 252,-1982 350,-1982 350,-2018"/>
<text text-anchor="middle" x="301" y="-1997.2" font-family="Courier,monospace" font-size="11.00">HeadsCommand</text>
</g>
<!-- \\Siad007\\VersionControl\\HG\\Command\\HeadsCommand&#45;&gt;\\Siad007\\VersionControl\\HG\\Command\\AbstractCommand -->
<g id="edge5" class="edge"><title>\\Siad007\\VersionControl\\HG\\Command\\HeadsCommand&#45;&gt;\\Siad007\\VersionControl\\HG\\Command\\AbstractCommand</title>
<path fill="none" stroke="black" d="M251.717,-1985.11C246.483,-1981.83 241.717,-1977.84 238,-1973 133.896,-1837.39 112.332,-1270.72 108.666,-1137.25"/>
<polygon fill="none" stroke="black" points="112.159,-1136.94 108.397,-1127.04 105.161,-1137.12 112.159,-1136.94"/>
</g>
<!-- \\Siad007\\VersionControl\\HG\\Command\\PullCommand -->
<g id="node6" class="node"><title>\\Siad007\\VersionControl\\HG\\Command\\PullCommand</title>
<polygon fill="none" stroke="black" points="346.5,-1964 255.5,-1964 255.5,-1928 346.5,-1928 346.5,-1964"/>
<text text-anchor="middle" x="301" y="-1943.2" font-family="Courier,monospace" font-size="11.00">PullCommand</text>
</g>
<!-- \\Siad007\\VersionControl\\HG\\Command\\PullCommand&#45;&gt;\\Siad007\\VersionControl\\HG\\Command\\AbstractCommand -->
<g id="edge6" class="edge"><title>\\Siad007\\VersionControl\\HG\\Command\\PullCommand&#45;&gt;\\Siad007\\VersionControl\\HG\\Command\\AbstractCommand</title>
<path fill="none" stroke="black" d="M255.458,-1933.24C248.782,-1929.59 242.604,-1924.94 238,-1919 140.154,-1792.82 113.98,-1266.32 108.989,-1137.52"/>
<polygon fill="none" stroke="black" points="112.478,-1137.16 108.606,-1127.3 105.483,-1137.42 112.478,-1137.16"/>
</g>
<!-- \\Siad007\\VersionControl\\HG\\Command\\RecoverCommand -->
<g id="node7" class="node"><title>\\Siad007\\VersionControl\\HG\\Command\\RecoverCommand</title>
<polygon fill="none" stroke="black" points="547.5,-1046 436.5,-1046 436.5,-1010 547.5,-1010 547.5,-1046"/>
<text text-anchor="middle" x="492" y="-1025.2" font-family="Courier,monospace" font-size="11.00">RecoverCommand</text>
</g>
<!-- \\Siad007\\VersionControl\\HG\\Command\\RecoverCommand&#45;&gt;\\Siad007\\VersionControl\\HG\\Command\\BaseCommand -->
<g id="edge7" class="edge"><title>\\Siad007\\VersionControl\\HG\\Command\\RecoverCommand&#45;&gt;\\Siad007\\VersionControl\\HG\\Command\\BaseCommand</title>
<path fill="none" stroke="black" d="M451.75,-1009.86C446.371,-1007.05 440.988,-1004.06 436,-1001 401.897,-980.095 398.571,-967.121 364,-947 361.346,-945.455 358.587,-943.944 355.772,-942.476"/>
<polygon fill="none" stroke="black" points="357.166,-939.261 346.653,-937.946 354.052,-945.53 357.166,-939.261"/>
</g>
<!-- \\Siad007\\VersionControl\\HG\\Command\\BranchesCommand -->
<g id="node8" class="node"><title>\\Siad007\\VersionControl\\HG\\Command\\BranchesCommand</title>
<polygon fill="none" stroke="black" points="360,-1910 242,-1910 242,-1874 360,-1874 360,-1910"/>
<text text-anchor="middle" x="301" y="-1889.2" font-family="Courier,monospace" font-size="11.00">BranchesCommand</text>
</g>
<!-- \\Siad007\\VersionControl\\HG\\Command\\BranchesCommand&#45;&gt;\\Siad007\\VersionControl\\HG\\Command\\AbstractCommand -->
<g id="edge8" class="edge"><title>\\Siad007\\VersionControl\\HG\\Command\\BranchesCommand&#45;&gt;\\Siad007\\VersionControl\\HG\\Command\\AbstractCommand</title>
<path fill="none" stroke="black" d="M247.113,-1873.82C243.71,-1871.25 240.609,-1868.33 238,-1865 146.243,-1748.03 115.655,-1260.08 109.333,-1137.19"/>
<polygon fill="none" stroke="black" points="112.822,-1136.89 108.825,-1127.08 105.831,-1137.24 112.822,-1136.89"/>
</g>
<!-- \\Siad007\\VersionControl\\HG\\Command\\TagCommand -->
<g id="node9" class="node"><title>\\Siad007\\VersionControl\\HG\\Command\\TagCommand</title>
<polygon fill="none" stroke="black" points="343,-1856 259,-1856 259,-1820 343,-1820 343,-1856"/>
<text text-anchor="middle" x="301" y="-1835.2" font-family="Courier,monospace" font-size="11.00">TagCommand</text>
</g>
<!-- \\Siad007\\VersionControl\\HG\\Command\\TagCommand&#45;&gt;\\Siad007\\VersionControl\\HG\\Command\\AbstractCommand -->
<g id="edge9" class="edge"><title>\\Siad007\\VersionControl\\HG\\Command\\TagCommand&#45;&gt;\\Siad007\\VersionControl\\HG\\Command\\AbstractCommand</title>
<path fill="none" stroke="black" d="M258.744,-1826.78C250.867,-1822.93 243.406,-1817.8 238,-1811 152.366,-1703.26 117.477,-1254.21 109.733,-1137.05"/>
<polygon fill="none" stroke="black" points="113.226,-1136.82 109.086,-1127.07 106.24,-1137.28 113.226,-1136.82"/>
</g>
<!-- \\Siad007\\VersionControl\\HG\\Command\\RemoveCommand -->
<g id="node10" class="node"><title>\\Siad007\\VersionControl\\HG\\Command\\RemoveCommand</title>
<polygon fill="none" stroke="black" points="353,-1802 249,-1802 249,-1766 353,-1766 353,-1802"/>
<text text-anchor="middle" x="301" y="-1781.2" font-family="Courier,monospace" font-size="11.00">RemoveCommand</text>
</g>
<!-- \\Siad007\\VersionControl\\HG\\Command\\RemoveCommand&#45;&gt;\\Siad007\\VersionControl\\HG\\Command\\AbstractCommand -->
<g id="edge10" class="edge"><title>\\Siad007\\VersionControl\\HG\\Command\\RemoveCommand&#45;&gt;\\Siad007\\VersionControl\\HG\\Command\\AbstractCommand</title>
<path fill="none" stroke="black" d="M248.951,-1766.99C244.846,-1764.14 241.097,-1760.84 238,-1757 158.583,-1658.6 119.552,-1249.29 110.234,-1137.38"/>
<polygon fill="none" stroke="black" points="113.706,-1136.9 109.402,-1127.22 106.73,-1137.47 113.706,-1136.9"/>
</g>
<!-- \\Siad007\\VersionControl\\HG\\Command\\StatusCommand -->
<g id="node11" class="node"><title>\\Siad007\\VersionControl\\HG\\Command\\StatusCommand</title>
<polygon fill="none" stroke="black" points="353,-1748 249,-1748 249,-1712 353,-1712 353,-1748"/>
<text text-anchor="middle" x="301" y="-1727.2" font-family="Courier,monospace" font-size="11.00">StatusCommand</text>
</g>
<!-- \\Siad007\\VersionControl\\HG\\Command\\StatusCommand&#45;&gt;\\Siad007\\VersionControl\\HG\\Command\\AbstractCommand -->
<g id="edge11" class="edge"><title>\\Siad007\\VersionControl\\HG\\Command\\StatusCommand&#45;&gt;\\Siad007\\VersionControl\\HG\\Command\\AbstractCommand</title>
<path fill="none" stroke="black" d="M248.727,-1712.73C244.723,-1709.94 241.056,-1706.72 238,-1703 164.7,-1613.78 121.746,-1243.3 110.799,-1137.39"/>
<polygon fill="none" stroke="black" points="114.253,-1136.76 109.758,-1127.17 107.289,-1137.47 114.253,-1136.76"/>
</g>
<!-- \\Siad007\\VersionControl\\HG\\Command\\PathsCommand -->
<g id="node12" class="node"><title>\\Siad007\\VersionControl\\HG\\Command\\PathsCommand</title>
<polygon fill="none" stroke="black" points="350,-1694 252,-1694 252,-1658 350,-1658 350,-1694"/>
<text text-anchor="middle" x="301" y="-1673.2" font-family="Courier,monospace" font-size="11.00">PathsCommand</text>
</g>
<!-- \\Siad007\\VersionControl\\HG\\Command\\PathsCommand&#45;&gt;\\Siad007\\VersionControl\\HG\\Command\\AbstractCommand -->
<g id="edge12" class="edge"><title>\\Siad007\\VersionControl\\HG\\Command\\PathsCommand&#45;&gt;\\Siad007\\VersionControl\\HG\\Command\\AbstractCommand</title>
<path fill="none" stroke="black" d="M251.806,-1660.61C246.625,-1657.42 241.849,-1653.59 238,-1649 170.786,-1568.9 124.157,-1236.98 111.472,-1137.38"/>
<polygon fill="none" stroke="black" points="114.91,-1136.67 110.19,-1127.18 107.965,-1137.54 114.91,-1136.67"/>
</g>
<!-- \\Siad007\\VersionControl\\HG\\Command\\LocateCommand -->
<g id="node13" class="node"><title>\\Siad007\\VersionControl\\HG\\Command\\LocateCommand</title>
<polygon fill="none" stroke="black" points="353,-1640 249,-1640 249,-1604 353,-1604 353,-1640"/>
<text text-anchor="middle" x="301" y="-1619.2" font-family="Courier,monospace" font-size="11.00">LocateCommand</text>
</g>
<!-- \\Siad007\\VersionControl\\HG\\Command\\LocateCommand&#45;&gt;\\Siad007\\VersionControl\\HG\\Command\\AbstractCommand -->
<g id="edge13" class="edge"><title>\\Siad007\\VersionControl\\HG\\Command\\LocateCommand&#45;&gt;\\Siad007\\VersionControl\\HG\\Command\\AbstractCommand</title>
<path fill="none" stroke="black" d="M248.906,-1604.58C244.865,-1601.82 241.14,-1598.65 238,-1595 118.576,-1456.26 107.562,-1218.94 107.494,-1137.45"/>
<polygon fill="none" stroke="black" points="110.993,-1137.45 107.542,-1127.44 103.994,-1137.42 110.993,-1137.45"/>
</g>
<!-- \\Siad007\\VersionControl\\HG\\Command\\SummaryCommand -->
<g id="node14" class="node"><title>\\Siad007\\VersionControl\\HG\\Command\\SummaryCommand</title>
<polygon fill="none" stroke="black" points="356.5,-1586 245.5,-1586 245.5,-1550 356.5,-1550 356.5,-1586"/>
<text text-anchor="middle" x="301" y="-1565.2" font-family="Courier,monospace" font-size="11.00">SummaryCommand</text>
</g>
<!-- \\Siad007\\VersionControl\\HG\\Command\\SummaryCommand&#45;&gt;\\Siad007\\VersionControl\\HG\\Command\\AbstractCommand -->
<g id="edge14" class="edge"><title>\\Siad007\\VersionControl\\HG\\Command\\SummaryCommand&#45;&gt;\\Siad007\\VersionControl\\HG\\Command\\AbstractCommand</title>
<path fill="none" stroke="black" d="M248.137,-1549.86C244.411,-1547.28 240.962,-1544.34 238,-1541 130.432,-1419.88 111.821,-1212.49 108.64,-1137.29"/>
<polygon fill="none" stroke="black" points="112.134,-1137.04 108.274,-1127.18 105.139,-1137.3 112.134,-1137.04"/>
</g>
<!-- \\Siad007\\VersionControl\\HG\\Command\\InitCommand -->
<g id="node15" class="node"><title>\\Siad007\\VersionControl\\HG\\Command\\InitCommand</title>
<polygon fill="none" stroke="black" points="346.5,-1532 255.5,-1532 255.5,-1496 346.5,-1496 346.5,-1532"/>
<text text-anchor="middle" x="301" y="-1511.2" font-family="Courier,monospace" font-size="11.00">InitCommand</text>
</g>
<!-- \\Siad007\\VersionControl\\HG\\Command\\InitCommand&#45;&gt;\\Siad007\\VersionControl\\HG\\Command\\AbstractCommand -->
<g id="edge15" class="edge"><title>\\Siad007\\VersionControl\\HG\\Command\\InitCommand&#45;&gt;\\Siad007\\VersionControl\\HG\\Command\\AbstractCommand</title>
<path fill="none" stroke="black" d="M255.341,-1500.03C248.922,-1496.55 242.859,-1492.26 238,-1487 142.358,-1383.44 116.647,-1206.23 110.106,-1137.45"/>
<polygon fill="none" stroke="black" points="113.582,-1137.03 109.213,-1127.37 106.609,-1137.64 113.582,-1137.03"/>
</g>
<!-- \\Siad007\\VersionControl\\HG\\Command\\BlameCommand -->
<g id="node16" class="node"><title>\\Siad007\\VersionControl\\HG\\Command\\BlameCommand</title>
<polygon fill="none" stroke="black" points="541,-1478 443,-1478 443,-1442 541,-1442 541,-1478"/>
<text text-anchor="middle" x="492" y="-1457.2" font-family="Courier,monospace" font-size="11.00">BlameCommand</text>
</g>
<!-- \\Siad007\\VersionControl\\HG\\Command\\BlameCommand&#45;&gt;\\Siad007\\VersionControl\\HG\\Command\\AnnotateCommand -->
<g id="edge16" class="edge"><title>\\Siad007\\VersionControl\\HG\\Command\\BlameCommand&#45;&gt;\\Siad007\\VersionControl\\HG\\Command\\AnnotateCommand</title>
<path fill="none" stroke="black" d="M442.818,-1460C420.808,-1460 394.344,-1460 370.329,-1460"/>
<polygon fill="none" stroke="black" points="370.206,-1456.5 360.206,-1460 370.206,-1463.5 370.206,-1456.5"/>
</g>
<!-- \\Siad007\\VersionControl\\HG\\Command\\TagsCommand -->
<g id="node17" class="node"><title>\\Siad007\\VersionControl\\HG\\Command\\TagsCommand</title>
<polygon fill="none" stroke="black" points="537.5,-992 446.5,-992 446.5,-956 537.5,-956 537.5,-992"/>
<text text-anchor="middle" x="492" y="-971.2" font-family="Courier,monospace" font-size="11.00">TagsCommand</text>
</g>
<!-- \\Siad007\\VersionControl\\HG\\Command\\TagsCommand&#45;&gt;\\Siad007\\VersionControl\\HG\\Command\\BaseCommand -->
<g id="edge17" class="edge"><title>\\Siad007\\VersionControl\\HG\\Command\\TagsCommand&#45;&gt;\\Siad007\\VersionControl\\HG\\Command\\BaseCommand</title>
<path fill="none" stroke="black" d="M446.21,-961.203C419.357,-953.53 385.018,-943.719 356.585,-935.596"/>
<polygon fill="none" stroke="black" points="357.373,-932.181 346.796,-932.799 355.45,-938.911 357.373,-932.181"/>
</g>
<!-- \\Siad007\\VersionControl\\HG\\Command\\AddremoveCommand -->
<g id="node18" class="node"><title>\\Siad007\\VersionControl\\HG\\Command\\AddremoveCommand</title>
<polygon fill="none" stroke="black" points="363.5,-1424 238.5,-1424 238.5,-1388 363.5,-1388 363.5,-1424"/>
<text text-anchor="middle" x="301" y="-1403.2" font-family="Courier,monospace" font-size="11.00">AddremoveCommand</text>
</g>
<!-- \\Siad007\\VersionControl\\HG\\Command\\AddremoveCommand&#45;&gt;\\Siad007\\VersionControl\\HG\\Command\\AbstractCommand -->
<g id="edge18" class="edge"><title>\\Siad007\\VersionControl\\HG\\Command\\AddremoveCommand&#45;&gt;\\Siad007\\VersionControl\\HG\\Command\\AbstractCommand</title>
<path fill="none" stroke="black" d="M249.599,-1387.92C245.415,-1385.3 241.468,-1382.34 238,-1379 165.441,-1309.15 128.28,-1190.54 114.474,-1136.86"/>
<polygon fill="none" stroke="black" points="117.837,-1135.88 112.021,-1127.02 111.045,-1137.57 117.837,-1135.88"/>
</g>
<!-- \\Siad007\\VersionControl\\HG\\Command\\ManifestCommand -->
<g id="node19" class="node"><title>\\Siad007\\VersionControl\\HG\\Command\\ManifestCommand</title>
<polygon fill="none" stroke="black" points="360,-1370 242,-1370 242,-1334 360,-1334 360,-1370"/>
<text text-anchor="middle" x="301" y="-1349.2" font-family="Courier,monospace" font-size="11.00">ManifestCommand</text>
</g>
<!-- \\Siad007\\VersionControl\\HG\\Command\\ManifestCommand&#45;&gt;\\Siad007\\VersionControl\\HG\\Command\\AbstractCommand -->
<g id="edge19" class="edge"><title>\\Siad007\\VersionControl\\HG\\Command\\ManifestCommand&#45;&gt;\\Siad007\\VersionControl\\HG\\Command\\AbstractCommand</title>
<path fill="none" stroke="black" d="M250.543,-1333.94C246.066,-1331.3 241.796,-1328.33 238,-1325 176.81,-1271.35 135.927,-1181.68 118.132,-1136.62"/>
<polygon fill="none" stroke="black" points="121.36,-1135.27 114.492,-1127.2 114.831,-1137.79 121.36,-1135.27"/>
</g>
<!-- \\Siad007\\VersionControl\\HG\\Command\\BranchCommand -->
<g id="node20" class="node"><title>\\Siad007\\VersionControl\\HG\\Command\\BranchCommand</title>
<polygon fill="none" stroke="black" points="353,-1316 249,-1316 249,-1280 353,-1280 353,-1316"/>
<text text-anchor="middle" x="301" y="-1295.2" font-family="Courier,monospace" font-size="11.00">BranchCommand</text>
</g>
<!-- \\Siad007\\VersionControl\\HG\\Command\\BranchCommand&#45;&gt;\\Siad007\\VersionControl\\HG\\Command\\AbstractCommand -->
<g id="edge20" class="edge"><title>\\Siad007\\VersionControl\\HG\\Command\\BranchCommand&#45;&gt;\\Siad007\\VersionControl\\HG\\Command\\AbstractCommand</title>
<path fill="none" stroke="black" d="M251.948,-1279.92C247.041,-1277.25 242.291,-1274.28 238,-1271 187.899,-1232.7 145.585,-1171.14 123.797,-1135.96"/>
<polygon fill="none" stroke="black" points="126.65,-1133.91 118.457,-1127.2 120.673,-1137.56 126.65,-1133.91"/>
</g>
<!-- \\Siad007\\VersionControl\\HG\\Command\\UpdateCommand -->
<g id="node21" class="node"><title>\\Siad007\\VersionControl\\HG\\Command\\UpdateCommand</title>
<polygon fill="none" stroke="black" points="353,-1262 249,-1262 249,-1226 353,-1226 353,-1262"/>
<text text-anchor="middle" x="301" y="-1241.2" font-family="Courier,monospace" font-size="11.00">UpdateCommand</text>
</g>
<!-- \\Siad007\\VersionControl\\HG\\Command\\UpdateCommand&#45;&gt;\\Siad007\\VersionControl\\HG\\Command\\AbstractCommand -->
<g id="edge21" class="edge"><title>\\Siad007\\VersionControl\\HG\\Command\\UpdateCommand&#45;&gt;\\Siad007\\VersionControl\\HG\\Command\\AbstractCommand</title>
<path fill="none" stroke="black" d="M254.538,-1225.99C248.843,-1223.22 243.198,-1220.2 238,-1217 198.829,-1192.88 158.878,-1157.79 133.794,-1134.22"/>
<polygon fill="none" stroke="black" points="136.166,-1131.65 126.504,-1127.3 131.347,-1136.73 136.166,-1131.65"/>
</g>
<!-- \\Siad007\\VersionControl\\HG\\Command\\VerifyCommand -->
<g id="node22" class="node"><title>\\Siad007\\VersionControl\\HG\\Command\\VerifyCommand</title>
<polygon fill="none" stroke="black" points="544,-938 440,-938 440,-902 544,-902 544,-938"/>
<text text-anchor="middle" x="492" y="-917.2" font-family="Courier,monospace" font-size="11.00">VerifyCommand</text>
</g>
<!-- \\Siad007\\VersionControl\\HG\\Command\\VerifyCommand&#45;&gt;\\Siad007\\VersionControl\\HG\\Command\\BaseCommand -->
<g id="edge22" class="edge"><title>\\Siad007\\VersionControl\\HG\\Command\\VerifyCommand&#45;&gt;\\Siad007\\VersionControl\\HG\\Command\\BaseCommand</title>
<path fill="none" stroke="black" d="M439.854,-920C414.182,-920 383.06,-920 356.888,-920"/>
<polygon fill="none" stroke="black" points="356.751,-916.5 346.751,-920 356.751,-923.5 356.751,-916.5"/>
</g>
<!-- \\Siad007\\VersionControl\\HG\\Command\\ArchiveCommand -->
<g id="node23" class="node"><title>\\Siad007\\VersionControl\\HG\\Command\\ArchiveCommand</title>
<polygon fill="none" stroke="black" points="356.5,-1208 245.5,-1208 245.5,-1172 356.5,-1172 356.5,-1208"/>
<text text-anchor="middle" x="301" y="-1187.2" font-family="Courier,monospace" font-size="11.00">ArchiveCommand</text>
</g>
<!-- \\Siad007\\VersionControl\\HG\\Command\\ArchiveCommand&#45;&gt;\\Siad007\\VersionControl\\HG\\Command\\AbstractCommand -->
<g id="edge23" class="edge"><title>\\Siad007\\VersionControl\\HG\\Command\\ArchiveCommand&#45;&gt;\\Siad007\\VersionControl\\HG\\Command\\AbstractCommand</title>
<path fill="none" stroke="black" d="M256.911,-1171.82C228.379,-1159.78 190.777,-1143.92 160.498,-1131.15"/>
<polygon fill="none" stroke="black" points="161.519,-1127.78 150.945,-1127.12 158.798,-1134.23 161.519,-1127.78"/>
</g>
<!-- \\Siad007\\VersionControl\\HG\\Command\\AddCommand -->
<g id="node24" class="node"><title>\\Siad007\\VersionControl\\HG\\Command\\AddCommand</title>
<polygon fill="none" stroke="black" points="343,-1154 259,-1154 259,-1118 343,-1118 343,-1154"/>
<text text-anchor="middle" x="301" y="-1133.2" font-family="Courier,monospace" font-size="11.00">AddCommand</text>
</g>
<!-- \\Siad007\\VersionControl\\HG\\Command\\AddCommand&#45;&gt;\\Siad007\\VersionControl\\HG\\Command\\AbstractCommand -->
<g id="edge24" class="edge"><title>\\Siad007\\VersionControl\\HG\\Command\\AddCommand&#45;&gt;\\Siad007\\VersionControl\\HG\\Command\\AbstractCommand</title>
<path fill="none" stroke="black" d="M258.811,-1130.21C234.768,-1126.83 203.827,-1122.48 176.234,-1118.6"/>
<polygon fill="none" stroke="black" points="176.628,-1115.12 166.238,-1117.19 175.654,-1122.05 176.628,-1115.12"/>
</g>
<!-- \\Siad007\\VersionControl\\HG\\Command\\RenameCommand -->
<g id="node26" class="node"><title>\\Siad007\\VersionControl\\HG\\Command\\RenameCommand</title>
<polygon fill="none" stroke="black" points="353,-614 249,-614 249,-578 353,-578 353,-614"/>
<text text-anchor="middle" x="301" y="-593.2" font-family="Courier,monospace" font-size="11.00">RenameCommand</text>
</g>
<!-- \\Siad007\\VersionControl\\HG\\Command\\RenameCommand&#45;&gt;\\Siad007\\VersionControl\\HG\\Command\\AbstractCommand -->
<g id="edge25" class="edge"><title>\\Siad007\\VersionControl\\HG\\Command\\RenameCommand&#45;&gt;\\Siad007\\VersionControl\\HG\\Command\\AbstractCommand</title>
<path fill="none" stroke="black" d="M248.906,-613.425C244.865,-616.18 241.14,-619.352 238,-623 118.576,-761.738 107.562,-999.063 107.494,-1080.55"/>
<polygon fill="none" stroke="black" points="103.994,-1080.58 107.542,-1090.56 110.993,-1080.55 103.994,-1080.58"/>
</g>
<!-- \\Siad007\\VersionControl\\HG\\Command\\RootCommand -->
<g id="node27" class="node"><title>\\Siad007\\VersionControl\\HG\\Command\\RootCommand</title>
<polygon fill="none" stroke="black" points="537.5,-884 446.5,-884 446.5,-848 537.5,-848 537.5,-884"/>
<text text-anchor="middle" x="492" y="-863.2" font-family="Courier,monospace" font-size="11.00">RootCommand</text>
</g>
<!-- \\Siad007\\VersionControl\\HG\\Command\\RootCommand&#45;&gt;\\Siad007\\VersionControl\\HG\\Command\\BaseCommand -->
<g id="edge26" class="edge"><title>\\Siad007\\VersionControl\\HG\\Command\\RootCommand&#45;&gt;\\Siad007\\VersionControl\\HG\\Command\\BaseCommand</title>
<path fill="none" stroke="black" d="M446.21,-878.797C419.357,-886.47 385.018,-896.281 356.585,-904.404"/>
<polygon fill="none" stroke="black" points="355.45,-901.089 346.796,-907.201 357.373,-907.819 355.45,-901.089"/>
</g>
<!-- \\Siad007\\VersionControl\\HG\\Command\\UnbundleCommand -->
<g id="node28" class="node"><title>\\Siad007\\VersionControl\\HG\\Command\\UnbundleCommand</title>
<polygon fill="none" stroke="black" points="360,-1100 242,-1100 242,-1064 360,-1064 360,-1100"/>
<text text-anchor="middle" x="301" y="-1079.2" font-family="Courier,monospace" font-size="11.00">UnbundleCommand</text>
</g>
<!-- \\Siad007\\VersionControl\\HG\\Command\\UnbundleCommand&#45;&gt;\\Siad007\\VersionControl\\HG\\Command\\AbstractCommand -->
<g id="edge27" class="edge"><title>\\Siad007\\VersionControl\\HG\\Command\\UnbundleCommand&#45;&gt;\\Siad007\\VersionControl\\HG\\Command\\AbstractCommand</title>
<path fill="none" stroke="black" d="M241.873,-1090.17C221.196,-1093.08 197.729,-1096.38 176.28,-1099.4"/>
<polygon fill="none" stroke="black" points="175.676,-1095.95 166.261,-1100.81 176.651,-1102.88 175.676,-1095.95"/>
</g>
<!-- \\Siad007\\VersionControl\\HG\\Command\\CloneCommand -->
<g id="node29" class="node"><title>\\Siad007\\VersionControl\\HG\\Command\\CloneCommand</title>
<polygon fill="none" stroke="black" points="350,-1046 252,-1046 252,-1010 350,-1010 350,-1046"/>
<text text-anchor="middle" x="301" y="-1025.2" font-family="Courier,monospace" font-size="11.00">CloneCommand</text>
</g>
<!-- \\Siad007\\VersionControl\\HG\\Command\\CloneCommand&#45;&gt;\\Siad007\\VersionControl\\HG\\Command\\AbstractCommand -->
<g id="edge28" class="edge"><title>\\Siad007\\VersionControl\\HG\\Command\\CloneCommand&#45;&gt;\\Siad007\\VersionControl\\HG\\Command\\AbstractCommand</title>
<path fill="none" stroke="black" d="M256.911,-1046.18C228.379,-1058.22 190.777,-1074.08 160.498,-1086.85"/>
<polygon fill="none" stroke="black" points="158.798,-1083.77 150.945,-1090.88 161.519,-1090.22 158.798,-1083.77"/>
</g>
<!-- \\Siad007\\VersionControl\\HG\\Command\\BookmarksCommand -->
<g id="node30" class="node"><title>\\Siad007\\VersionControl\\HG\\Command\\BookmarksCommand</title>
<polygon fill="none" stroke="black" points="363.5,-992 238.5,-992 238.5,-956 363.5,-956 363.5,-992"/>
<text text-anchor="middle" x="301" y="-971.2" font-family="Courier,monospace" font-size="11.00">BookmarksCommand</text>
</g>
<!-- \\Siad007\\VersionControl\\HG\\Command\\BookmarksCommand&#45;&gt;\\Siad007\\VersionControl\\HG\\Command\\AbstractCommand -->
<g id="edge29" class="edge"><title>\\Siad007\\VersionControl\\HG\\Command\\BookmarksCommand&#45;&gt;\\Siad007\\VersionControl\\HG\\Command\\AbstractCommand</title>
<path fill="none" stroke="black" d="M254.538,-992.012C248.843,-994.784 243.198,-997.799 238,-1001 198.829,-1025.12 158.878,-1060.21 133.794,-1083.78"/>
<polygon fill="none" stroke="black" points="131.347,-1081.27 126.504,-1090.7 136.166,-1086.35 131.347,-1081.27"/>
</g>
<!-- \\Siad007\\VersionControl\\HG\\Command\\VersionCommand -->
<g id="node31" class="node"><title>\\Siad007\\VersionControl\\HG\\Command\\VersionCommand</title>
<polygon fill="none" stroke="black" points="547.5,-830 436.5,-830 436.5,-794 547.5,-794 547.5,-830"/>
<text text-anchor="middle" x="492" y="-809.2" font-family="Courier,monospace" font-size="11.00">VersionCommand</text>
</g>
<!-- \\Siad007\\VersionControl\\HG\\Command\\VersionCommand&#45;&gt;\\Siad007\\VersionControl\\HG\\Command\\BaseCommand -->
<g id="edge30" class="edge"><title>\\Siad007\\VersionControl\\HG\\Command\\VersionCommand&#45;&gt;\\Siad007\\VersionControl\\HG\\Command\\BaseCommand</title>
<path fill="none" stroke="black" d="M451.75,-830.142C446.371,-832.952 440.988,-835.942 436,-839 401.897,-859.905 398.571,-872.879 364,-893 361.346,-894.545 358.587,-896.056 355.772,-897.524"/>
<polygon fill="none" stroke="black" points="354.052,-894.47 346.653,-902.054 357.166,-900.739 354.052,-894.47"/>
</g>
<!-- \\Siad007\\VersionControl\\HG\\Command\\BundleCommand -->
<g id="node32" class="node"><title>\\Siad007\\VersionControl\\HG\\Command\\BundleCommand</title>
<polygon fill="none" stroke="black" points="353,-884 249,-884 249,-848 353,-848 353,-884"/>
<text text-anchor="middle" x="301" y="-863.2" font-family="Courier,monospace" font-size="11.00">BundleCommand</text>
</g>
<!-- \\Siad007\\VersionControl\\HG\\Command\\BundleCommand&#45;&gt;\\Siad007\\VersionControl\\HG\\Command\\AbstractCommand -->
<g id="edge31" class="edge"><title>\\Siad007\\VersionControl\\HG\\Command\\BundleCommand&#45;&gt;\\Siad007\\VersionControl\\HG\\Command\\AbstractCommand</title>
<path fill="none" stroke="black" d="M250.543,-884.058C246.066,-886.7 241.796,-889.672 238,-893 176.81,-946.653 135.927,-1036.32 118.132,-1081.38"/>
<polygon fill="none" stroke="black" points="114.831,-1080.21 114.492,-1090.8 121.36,-1082.73 114.831,-1080.21"/>
</g>
<!-- \\Siad007\\VersionControl\\HG\\Command\\CatCommand -->
<g id="node33" class="node"><title>\\Siad007\\VersionControl\\HG\\Command\\CatCommand</title>
<polygon fill="none" stroke="black" points="343,-830 259,-830 259,-794 343,-794 343,-830"/>
<text text-anchor="middle" x="301" y="-809.2" font-family="Courier,monospace" font-size="11.00">CatCommand</text>
</g>
<!-- \\Siad007\\VersionControl\\HG\\Command\\CatCommand&#45;&gt;\\Siad007\\VersionControl\\HG\\Command\\AbstractCommand -->
<g id="edge32" class="edge"><title>\\Siad007\\VersionControl\\HG\\Command\\CatCommand&#45;&gt;\\Siad007\\VersionControl\\HG\\Command\\AbstractCommand</title>
<path fill="none" stroke="black" d="M258.748,-825.021C251.239,-828.699 243.921,-833.3 238,-839 165.441,-908.852 128.28,-1027.46 114.474,-1081.14"/>
<polygon fill="none" stroke="black" points="111.045,-1080.43 112.021,-1090.98 117.837,-1082.12 111.045,-1080.43"/>
</g>
<!-- \\Siad007\\VersionControl\\HG\\Command\\BackoutCommand -->
<g id="node34" class="node"><title>\\Siad007\\VersionControl\\HG\\Command\\BackoutCommand</title>
<polygon fill="none" stroke="black" points="356.5,-776 245.5,-776 245.5,-740 356.5,-740 356.5,-776"/>
<text text-anchor="middle" x="301" y="-755.2" font-family="Courier,monospace" font-size="11.00">BackoutCommand</text>
</g>
<!-- \\Siad007\\VersionControl\\HG\\Command\\BackoutCommand&#45;&gt;\\Siad007\\VersionControl\\HG\\Command\\AbstractCommand -->
<g id="edge33" class="edge"><title>\\Siad007\\VersionControl\\HG\\Command\\BackoutCommand&#45;&gt;\\Siad007\\VersionControl\\HG\\Command\\AbstractCommand</title>
<path fill="none" stroke="black" d="M249.056,-776.034C245.035,-778.656 241.272,-781.631 238,-785 153.946,-871.54 122.009,-1019.38 111.959,-1080.88"/>
<polygon fill="none" stroke="black" points="108.465,-1080.57 110.379,-1090.99 115.381,-1081.65 108.465,-1080.57"/>
</g>
<!-- \\Siad007\\VersionControl\\HG\\Command\\BisecCommand -->
<g id="node35" class="node"><title>\\Siad007\\VersionControl\\HG\\Command\\BisecCommand</title>
<polygon fill="none" stroke="black" points="350,-722 252,-722 252,-686 350,-686 350,-722"/>
<text text-anchor="middle" x="301" y="-701.2" font-family="Courier,monospace" font-size="11.00">BisecCommand</text>
</g>
<!-- \\Siad007\\VersionControl\\HG\\Command\\BisecCommand&#45;&gt;\\Siad007\\VersionControl\\HG\\Command\\AbstractCommand -->
<g id="edge34" class="edge"><title>\\Siad007\\VersionControl\\HG\\Command\\BisecCommand&#45;&gt;\\Siad007\\VersionControl\\HG\\Command\\AbstractCommand</title>
<path fill="none" stroke="black" d="M251.908,-719.935C246.775,-723.03 241.983,-726.688 238,-731 142.358,-834.561 116.647,-1011.77 110.106,-1080.55"/>
<polygon fill="none" stroke="black" points="106.609,-1080.36 109.213,-1090.63 113.582,-1080.97 106.609,-1080.36"/>
</g>
<!-- \\Siad007\\VersionControl\\HG\\Command\\ConfigCommand -->
<g id="node36" class="node"><title>\\Siad007\\VersionControl\\HG\\Command\\ConfigCommand</title>
<polygon fill="none" stroke="black" points="353,-668 249,-668 249,-632 353,-632 353,-668"/>
<text text-anchor="middle" x="301" y="-647.2" font-family="Courier,monospace" font-size="11.00">ConfigCommand</text>
</g>
<!-- \\Siad007\\VersionControl\\HG\\Command\\ConfigCommand&#45;&gt;\\Siad007\\VersionControl\\HG\\Command\\AbstractCommand -->
<g id="edge35" class="edge"><title>\\Siad007\\VersionControl\\HG\\Command\\ConfigCommand&#45;&gt;\\Siad007\\VersionControl\\HG\\Command\\AbstractCommand</title>
<path fill="none" stroke="black" d="M248.728,-667.729C244.776,-670.415 241.118,-673.489 238,-677 130.432,-798.123 111.821,-1005.51 108.64,-1080.71"/>
<polygon fill="none" stroke="black" points="105.139,-1080.7 108.274,-1090.82 112.134,-1080.96 105.139,-1080.7"/>
</g>
<!-- \\Siad007\\VersionControl\\HG\\Command\\CopyCommand -->
<g id="node37" class="node"><title>\\Siad007\\VersionControl\\HG\\Command\\CopyCommand</title>
<polygon fill="none" stroke="black" points="537.5,-614 446.5,-614 446.5,-578 537.5,-578 537.5,-614"/>
<text text-anchor="middle" x="492" y="-593.2" font-family="Courier,monospace" font-size="11.00">CopyCommand</text>
</g>
<!-- \\Siad007\\VersionControl\\HG\\Command\\CopyCommand&#45;&gt;\\Siad007\\VersionControl\\HG\\Command\\RenameCommand -->
<g id="edge36" class="edge"><title>\\Siad007\\VersionControl\\HG\\Command\\CopyCommand&#45;&gt;\\Siad007\\VersionControl\\HG\\Command\\RenameCommand</title>
<path fill="none" stroke="black" d="M446.21,-596C421.43,-596 390.276,-596 363.271,-596"/>
<polygon fill="none" stroke="black" points="363.146,-592.5 353.146,-596 363.146,-599.5 363.146,-592.5"/>
</g>
<!-- \\Siad007\\VersionControl\\HG\\Command\\ForgetCommand -->
<g id="node38" class="node"><title>\\Siad007\\VersionControl\\HG\\Command\\ForgetCommand</title>
<polygon fill="none" stroke="black" points="353,-560 249,-560 249,-524 353,-524 353,-560"/>
<text text-anchor="middle" x="301" y="-539.2" font-family="Courier,monospace" font-size="11.00">ForgetCommand</text>
</g>
<!-- \\Siad007\\VersionControl\\HG\\Command\\ForgetCommand&#45;&gt;\\Siad007\\VersionControl\\HG\\Command\\AbstractCommand -->
<g id="edge37" class="edge"><title>\\Siad007\\VersionControl\\HG\\Command\\ForgetCommand&#45;&gt;\\Siad007\\VersionControl\\HG\\Command\\AbstractCommand</title>
<path fill="none" stroke="black" d="M248.809,-559.342C244.788,-562.114 241.094,-565.313 238,-569 170.786,-649.097 124.157,-981.023 111.472,-1080.62"/>
<polygon fill="none" stroke="black" points="107.965,-1080.46 110.19,-1090.82 114.91,-1081.33 107.965,-1080.46"/>
</g>
<!-- \\Siad007\\VersionControl\\HG\\Command\\IdentifyCommand -->
<g id="node39" class="node"><title>\\Siad007\\VersionControl\\HG\\Command\\IdentifyCommand</title>
<polygon fill="none" stroke="black" points="360,-506 242,-506 242,-470 360,-470 360,-506"/>
<text text-anchor="middle" x="301" y="-485.2" font-family="Courier,monospace" font-size="11.00">IdentifyCommand</text>
</g>
<!-- \\Siad007\\VersionControl\\HG\\Command\\IdentifyCommand&#45;&gt;\\Siad007\\VersionControl\\HG\\Command\\AbstractCommand -->
<g id="edge38" class="edge"><title>\\Siad007\\VersionControl\\HG\\Command\\IdentifyCommand&#45;&gt;\\Siad007\\VersionControl\\HG\\Command\\AbstractCommand</title>
<path fill="none" stroke="black" d="M247.565,-506.102C244.013,-508.693 240.758,-511.644 238,-515 164.7,-604.217 121.746,-974.704 110.799,-1080.61"/>
<polygon fill="none" stroke="black" points="107.289,-1080.53 109.758,-1090.83 114.253,-1081.24 107.289,-1080.53"/>
</g>
<!-- \\Siad007\\VersionControl\\HG\\Command\\ImportCommand -->
<g id="node40" class="node"><title>\\Siad007\\VersionControl\\HG\\Command\\ImportCommand</title>
<polygon fill="none" stroke="black" points="353,-452 249,-452 249,-416 353,-416 353,-452"/>
<text text-anchor="middle" x="301" y="-431.2" font-family="Courier,monospace" font-size="11.00">ImportCommand</text>
</g>
<!-- \\Siad007\\VersionControl\\HG\\Command\\ImportCommand&#45;&gt;\\Siad007\\VersionControl\\HG\\Command\\AbstractCommand -->
<g id="edge39" class="edge"><title>\\Siad007\\VersionControl\\HG\\Command\\ImportCommand&#45;&gt;\\Siad007\\VersionControl\\HG\\Command\\AbstractCommand</title>
<path fill="none" stroke="black" d="M248.951,-451.014C244.846,-453.858 241.097,-457.163 238,-461 158.583,-559.402 119.552,-968.712 110.234,-1080.62"/>
<polygon fill="none" stroke="black" points="106.73,-1080.53 109.402,-1090.78 113.706,-1081.1 106.73,-1080.53"/>
</g>
<!-- \\Siad007\\VersionControl\\HG\\Command\\LogCommand -->
<g id="node41" class="node"><title>\\Siad007\\VersionControl\\HG\\Command\\LogCommand</title>
<polygon fill="none" stroke="black" points="343,-398 259,-398 259,-362 343,-362 343,-398"/>
<text text-anchor="middle" x="301" y="-377.2" font-family="Courier,monospace" font-size="11.00">LogCommand</text>
</g>
<!-- \\Siad007\\VersionControl\\HG\\Command\\LogCommand&#45;&gt;\\Siad007\\VersionControl\\HG\\Command\\AbstractCommand -->
<g id="edge40" class="edge"><title>\\Siad007\\VersionControl\\HG\\Command\\LogCommand&#45;&gt;\\Siad007\\VersionControl\\HG\\Command\\AbstractCommand</title>
<path fill="none" stroke="black" d="M258.744,-391.224C250.867,-395.074 243.406,-400.199 238,-407 152.366,-514.736 117.477,-963.795 109.733,-1080.95"/>
<polygon fill="none" stroke="black" points="106.24,-1080.72 109.086,-1090.93 113.226,-1081.18 106.24,-1080.72"/>
</g>
<!-- \\Siad007\\VersionControl\\HG\\Command\\MergeCommand -->
<g id="node42" class="node"><title>\\Siad007\\VersionControl\\HG\\Command\\MergeCommand</title>
<polygon fill="none" stroke="black" points="350,-344 252,-344 252,-308 350,-308 350,-344"/>
<text text-anchor="middle" x="301" y="-323.2" font-family="Courier,monospace" font-size="11.00">MergeCommand</text>
</g>
<!-- \\Siad007\\VersionControl\\HG\\Command\\MergeCommand&#45;&gt;\\Siad007\\VersionControl\\HG\\Command\\AbstractCommand -->
<g id="edge41" class="edge"><title>\\Siad007\\VersionControl\\HG\\Command\\MergeCommand&#45;&gt;\\Siad007\\VersionControl\\HG\\Command\\AbstractCommand</title>
<path fill="none" stroke="black" d="M251.813,-340.96C246.563,-344.231 241.768,-348.197 238,-353 146.243,-469.971 115.655,-957.921 109.333,-1080.81"/>
<polygon fill="none" stroke="black" points="105.831,-1080.76 108.825,-1090.92 112.822,-1081.11 105.831,-1080.76"/>
</g>
<!-- \\Siad007\\VersionControl\\HG\\Command\\ParentsCommand -->
<g id="node43" class="node"><title>\\Siad007\\VersionControl\\HG\\Command\\ParentsCommand</title>
<polygon fill="none" stroke="black" points="356.5,-290 245.5,-290 245.5,-254 356.5,-254 356.5,-290"/>
<text text-anchor="middle" x="301" y="-269.2" font-family="Courier,monospace" font-size="11.00">ParentsCommand</text>
</g>
<!-- \\Siad007\\VersionControl\\HG\\Command\\ParentsCommand&#45;&gt;\\Siad007\\VersionControl\\HG\\Command\\AbstractCommand -->
<g id="edge42" class="edge"><title>\\Siad007\\VersionControl\\HG\\Command\\ParentsCommand&#45;&gt;\\Siad007\\VersionControl\\HG\\Command\\AbstractCommand</title>
<path fill="none" stroke="black" d="M247.072,-290.149C243.678,-292.726 240.59,-295.66 238,-299 140.154,-425.175 113.98,-951.68 108.989,-1080.48"/>
<polygon fill="none" stroke="black" points="105.483,-1080.58 108.606,-1090.7 112.478,-1080.84 105.483,-1080.58"/>
</g>
<!-- \\Siad007\\VersionControl\\HG\\Command\\PhaseCommand -->
<g id="node44" class="node"><title>\\Siad007\\VersionControl\\HG\\Command\\PhaseCommand</title>
<polygon fill="none" stroke="black" points="350,-236 252,-236 252,-200 350,-200 350,-236"/>
<text text-anchor="middle" x="301" y="-215.2" font-family="Courier,monospace" font-size="11.00">PhaseCommand</text>
</g>
<!-- \\Siad007\\VersionControl\\HG\\Command\\PhaseCommand&#45;&gt;\\Siad007\\VersionControl\\HG\\Command\\AbstractCommand -->
<g id="edge43" class="edge"><title>\\Siad007\\VersionControl\\HG\\Command\\PhaseCommand&#45;&gt;\\Siad007\\VersionControl\\HG\\Command\\AbstractCommand</title>
<path fill="none" stroke="black" d="M251.717,-232.885C246.483,-236.168 241.717,-240.157 238,-245 133.896,-380.612 112.332,-947.278 108.666,-1080.75"/>
<polygon fill="none" stroke="black" points="105.161,-1080.88 108.397,-1090.96 112.159,-1081.06 105.161,-1080.88"/>
</g>
<!-- \\Siad007\\VersionControl\\HG\\Command\\ResolveCommand -->
<g id="node45" class="node"><title>\\Siad007\\VersionControl\\HG\\Command\\ResolveCommand</title>
<polygon fill="none" stroke="black" points="356.5,-182 245.5,-182 245.5,-146 356.5,-146 356.5,-182"/>
<text text-anchor="middle" x="301" y="-161.2" font-family="Courier,monospace" font-size="11.00">ResolveCommand</text>
</g>
<!-- \\Siad007\\VersionControl\\HG\\Command\\ResolveCommand&#45;&gt;\\Siad007\\VersionControl\\HG\\Command\\AbstractCommand -->
<g id="edge44" class="edge"><title>\\Siad007\\VersionControl\\HG\\Command\\ResolveCommand&#45;&gt;\\Siad007\\VersionControl\\HG\\Command\\AbstractCommand</title>
<path fill="none" stroke="black" d="M247.003,-182.096C243.625,-184.685 240.559,-187.636 238,-191 127.687,-335.995 110.816,-942.357 108.388,-1080.78"/>
<polygon fill="none" stroke="black" points="104.885,-1080.92 108.221,-1090.98 111.884,-1081.04 104.885,-1080.92"/>
</g>
<!-- \\Siad007\\VersionControl\\HG\\Command\\RevertCommand -->
<g id="node46" class="node"><title>\\Siad007\\VersionControl\\HG\\Command\\RevertCommand</title>
<polygon fill="none" stroke="black" points="353,-128 249,-128 249,-92 353,-92 353,-128"/>
<text text-anchor="middle" x="301" y="-107.2" font-family="Courier,monospace" font-size="11.00">RevertCommand</text>
</g>
<!-- \\Siad007\\VersionControl\\HG\\Command\\RevertCommand&#45;&gt;\\Siad007\\VersionControl\\HG\\Command\\AbstractCommand -->
<g id="edge45" class="edge"><title>\\Siad007\\VersionControl\\HG\\Command\\RevertCommand&#45;&gt;\\Siad007\\VersionControl\\HG\\Command\\AbstractCommand</title>
<path fill="none" stroke="black" d="M248.976,-126.602C244.81,-129.533 241.041,-132.971 238,-137 121.549,-291.296 109.402,-936.677 108.144,-1080.5"/>
<polygon fill="none" stroke="black" points="104.643,-1080.68 108.066,-1090.71 111.642,-1080.73 104.643,-1080.68"/>
</g>
<!-- \\Siad007\\VersionControl\\HG\\Factory -->
<g id="node47" class="node"><title>\\Siad007\\VersionControl\\HG\\Factory</title>
<polygon fill="none" stroke="black" points="524,-76 460,-76 460,-40 524,-40 524,-76"/>
<text text-anchor="middle" x="492" y="-55.2" font-family="Courier,monospace" font-size="11.00">Factory</text>
</g>
</g>
</svg>
