<?xml version="1.0" encoding="UTF-8" standalone="no"?>
<!DOCTYPE svg PUBLIC "-//W3C//DTD SVG 1.1//EN"
 "http://www.w3.org/Graphics/SVG/1.1/DTD/svg11.dtd">
<!-- Generated by graphviz version 2.36.0 (20140111.2315)
 -->
<!-- Title: G Pages: 1 -->
<svg width="604pt" height="1472pt"
 viewBox="0.00 0.00 604.00 1472.00" xmlns="http://www.w3.org/2000/svg" xmlns:xlink="http://www.w3.org/1999/xlink">
<g id="graph0" class="graph" transform="scale(1 1) rotate(0) translate(4 1468)">
<title>G</title>
<polygon fill="white" stroke="none" points="-4,4 -4,-1468 600,-1468 600,4 -4,4"/>
<g id="clust1" class="cluster"><title>cluster_Global</title>
<path fill="none" stroke="gray" d="M20,-8C20,-8 576,-8 576,-8 582,-8 588,-14 588,-20 588,-20 588,-1444 588,-1444 588,-1450 582,-1456 576,-1456 576,-1456 20,-1456 20,-1456 14,-1456 8,-1450 8,-1444 8,-1444 8,-20 8,-20 8,-14 14,-8 20,-8"/>
<text text-anchor="middle" x="298" y="-1443.2" font-family="Times New Roman,serif" font-size="11.00" fill="gray">Global</text>
</g>
<g id="clust2" class="cluster"><title>cluster_\Siad007</title>
<path fill="none" stroke="gray" d="M28,-16C28,-16 568,-16 568,-16 574,-16 580,-22 580,-28 580,-28 580,-1416 580,-1416 580,-1422 574,-1428 568,-1428 568,-1428 28,-1428 28,-1428 22,-1428 16,-1422 16,-1416 16,-1416 16,-28 16,-28 16,-22 22,-16 28,-16"/>
<text text-anchor="middle" x="298" y="-1415.2" font-family="Times New Roman,serif" font-size="11.00" fill="gray">Siad007</text>
</g>
<g id="clust3" class="cluster"><title>cluster_\Siad007\VersionControl</title>
<path fill="none" stroke="gray" d="M36,-24C36,-24 560,-24 560,-24 566,-24 572,-30 572,-36 572,-36 572,-1388 572,-1388 572,-1394 566,-1400 560,-1400 560,-1400 36,-1400 36,-1400 30,-1400 24,-1394 24,-1388 24,-1388 24,-36 24,-36 24,-30 30,-24 36,-24"/>
<text text-anchor="middle" x="298" y="-1387.2" font-family="Times New Roman,serif" font-size="11.00" fill="gray">VersionControl</text>
</g>
<g id="clust4" class="cluster"><title>cluster_\Siad007\VersionControl\HG</title>
<path fill="none" stroke="gray" d="M44,-32C44,-32 552,-32 552,-32 558,-32 564,-38 564,-44 564,-44 564,-1360 564,-1360 564,-1366 558,-1372 552,-1372 552,-1372 44,-1372 44,-1372 38,-1372 32,-1366 32,-1360 32,-1360 32,-44 32,-44 32,-38 38,-32 44,-32"/>
<text text-anchor="middle" x="298" y="-1359.2" font-family="Times New Roman,serif" font-size="11.00" fill="gray">HG</text>
</g>
<g id="clust5" class="cluster"><title>cluster_\Siad007\VersionControl\HG\Command</title>
<path fill="none" stroke="gray" d="M52,-84C52,-84 544,-84 544,-84 550,-84 556,-90 556,-96 556,-96 556,-1332 556,-1332 556,-1338 550,-1344 544,-1344 544,-1344 52,-1344 52,-1344 46,-1344 40,-1338 40,-1332 40,-1332 40,-96 40,-96 40,-90 46,-84 52,-84"/>
<text text-anchor="middle" x="298" y="-1331.2" font-family="Times New Roman,serif" font-size="11.00" fill="gray">Command</text>
</g>
<!-- \\Siad007\\VersionControl\\HG\\Command\\PushCommand -->
<g id="node1" class="node"><title>\\Siad007\\VersionControl\\HG\\Command\\PushCommand</title>
<polygon fill="none" stroke="black" points="346.5,-1316 255.5,-1316 255.5,-1280 346.5,-1280 346.5,-1316"/>
<text text-anchor="middle" x="301" y="-1295.2" font-family="Courier,monospace" font-size="11.00">PushCommand</text>
</g>
<!-- \\Siad007\\VersionControl\\HG\\Command\\AbstractCommand -->
<g id="node19" class="node"><title>\\Siad007\\VersionControl\\HG\\Command\\AbstractCommand</title>
<polygon fill="none" stroke="black" points="166,-722 48,-722 48,-686 166,-686 166,-722"/>
<text text-anchor="start" x="73" y="-707.2" font-family="Courier,monospace" font-size="11.00">«abstract»</text>
<text text-anchor="start" x="56" y="-695.2" font-family="Courier,monospace" font-size="11.00">AbstractCommand</text>
</g>
<!-- \\Siad007\\VersionControl\\HG\\Command\\PushCommand&#45;&gt;\\Siad007\\VersionControl\\HG\\Command\\AbstractCommand -->
<g id="edge1" class="edge"><title>\\Siad007\\VersionControl\\HG\\Command\\PushCommand&#45;&gt;\\Siad007\\VersionControl\\HG\\Command\\AbstractCommand</title>
<path fill="none" stroke="black" d="M255.471,-1284.81C248.877,-1281.22 242.724,-1276.69 238,-1271 167.758,-1186.36 122.935,-835.289 111.126,-732.435"/>
<polygon fill="none" stroke="black" points="114.571,-731.748 109.967,-722.205 107.615,-732.536 114.571,-731.748"/>
</g>
<!-- \\Siad007\\VersionControl\\HG\\Command\\CommitCommand -->
<g id="node2" class="node"><title>\\Siad007\\VersionControl\\HG\\Command\\CommitCommand</title>
<polygon fill="none" stroke="black" points="353,-1262 249,-1262 249,-1226 353,-1226 353,-1262"/>
<text text-anchor="middle" x="301" y="-1241.2" font-family="Courier,monospace" font-size="11.00">CommitCommand</text>
</g>
<!-- \\Siad007\\VersionControl\\HG\\Command\\CommitCommand&#45;&gt;\\Siad007\\VersionControl\\HG\\Command\\AbstractCommand -->
<g id="edge2" class="edge"><title>\\Siad007\\VersionControl\\HG\\Command\\CommitCommand&#45;&gt;\\Siad007\\VersionControl\\HG\\Command\\AbstractCommand</title>
<path fill="none" stroke="black" d="M248.855,-1226.62C244.824,-1223.85 241.116,-1220.67 238,-1217 173.784,-1141.4 125.409,-828.362 111.838,-732.216"/>
<polygon fill="none" stroke="black" points="115.274,-731.512 110.425,-722.092 108.341,-732.48 115.274,-731.512"/>
</g>
<!-- \\Siad007\\VersionControl\\HG\\Command\\BaseCommand -->
<g id="node3" class="node"><title>\\Siad007\\VersionControl\\HG\\Command\\BaseCommand</title>
<polygon fill="none" stroke="black" points="346.5,-182 255.5,-182 255.5,-146 346.5,-146 346.5,-182"/>
<text text-anchor="middle" x="301" y="-161.2" font-family="Courier,monospace" font-size="11.00">BaseCommand</text>
</g>
<!-- \\Siad007\\VersionControl\\HG\\Command\\BaseCommand&#45;&gt;\\Siad007\\VersionControl\\HG\\Command\\AbstractCommand -->
<g id="edge3" class="edge"><title>\\Siad007\\VersionControl\\HG\\Command\\BaseCommand&#45;&gt;\\Siad007\\VersionControl\\HG\\Command\\AbstractCommand</title>
<path fill="none" stroke="black" d="M255.267,-177.458C248.779,-181.008 242.712,-185.452 238,-191 173.784,-266.604 125.409,-579.638 111.838,-675.784"/>
<polygon fill="none" stroke="black" points="108.341,-675.52 110.425,-685.908 115.274,-676.488 108.341,-675.52"/>
</g>
<!-- \\Siad007\\VersionControl\\HG\\Command\\AnnotateCommand -->
<g id="node4" class="node"><title>\\Siad007\\VersionControl\\HG\\Command\\AnnotateCommand</title>
<polygon fill="none" stroke="black" points="360,-884 242,-884 242,-848 360,-848 360,-884"/>
<text text-anchor="middle" x="301" y="-863.2" font-family="Courier,monospace" font-size="11.00">AnnotateCommand</text>
</g>
<!-- \\Siad007\\VersionControl\\HG\\Command\\AnnotateCommand&#45;&gt;\\Siad007\\VersionControl\\HG\\Command\\AbstractCommand -->
<g id="edge4" class="edge"><title>\\Siad007\\VersionControl\\HG\\Command\\AnnotateCommand&#45;&gt;\\Siad007\\VersionControl\\HG\\Command\\AbstractCommand</title>
<path fill="none" stroke="black" d="M252.885,-847.862C247.699,-845.176 242.627,-842.217 238,-839 193.502,-808.065 151.877,-760.238 128.222,-730.594"/>
<polygon fill="none" stroke="black" points="130.693,-728.073 121.757,-722.381 125.192,-732.403 130.693,-728.073"/>
</g>
<!-- \\Siad007\\VersionControl\\HG\\Command\\HeadsCommand -->
<g id="node5" class="node"><title>\\Siad007\\VersionControl\\HG\\Command\\HeadsCommand</title>
<polygon fill="none" stroke="black" points="350,-1208 252,-1208 252,-1172 350,-1172 350,-1208"/>
<text text-anchor="middle" x="301" y="-1187.2" font-family="Courier,monospace" font-size="11.00">HeadsCommand</text>
</g>
<!-- \\Siad007\\VersionControl\\HG\\Command\\HeadsCommand&#45;&gt;\\Siad007\\VersionControl\\HG\\Command\\AbstractCommand -->
<g id="edge5" class="edge"><title>\\Siad007\\VersionControl\\HG\\Command\\HeadsCommand&#45;&gt;\\Siad007\\VersionControl\\HG\\Command\\AbstractCommand</title>
<path fill="none" stroke="black" d="M251.98,-1174.46C246.77,-1171.29 241.939,-1167.51 238,-1163 124.55,-1033.13 109.648,-810.895 108.039,-732.441"/>
<polygon fill="none" stroke="black" points="111.537,-732.298 107.891,-722.35 104.538,-732.4 111.537,-732.298"/>
</g>
<!-- \\Siad007\\VersionControl\\HG\\Command\\PullCommand -->
<g id="node6" class="node"><title>\\Siad007\\VersionControl\\HG\\Command\\PullCommand</title>
<polygon fill="none" stroke="black" points="346.5,-1154 255.5,-1154 255.5,-1118 346.5,-1118 346.5,-1154"/>
<text text-anchor="middle" x="301" y="-1133.2" font-family="Courier,monospace" font-size="11.00">PullCommand</text>
</g>
<!-- \\Siad007\\VersionControl\\HG\\Command\\PullCommand&#45;&gt;\\Siad007\\VersionControl\\HG\\Command\\AbstractCommand -->
<g id="edge6" class="edge"><title>\\Siad007\\VersionControl\\HG\\Command\\PullCommand&#45;&gt;\\Siad007\\VersionControl\\HG\\Command\\AbstractCommand</title>
<path fill="none" stroke="black" d="M255.246,-1122.11C248.839,-1118.62 242.804,-1114.31 238,-1109 136.457,-996.745 114.179,-804.604 109.333,-732.473"/>
<polygon fill="none" stroke="black" points="112.817,-732.11 108.716,-722.341 105.83,-732.535 112.817,-732.11"/>
</g>
<!-- \\Siad007\\VersionControl\\HG\\Command\\TagCommand -->
<g id="node7" class="node"><title>\\Siad007\\VersionControl\\HG\\Command\\TagCommand</title>
<polygon fill="none" stroke="black" points="343,-1100 259,-1100 259,-1064 343,-1064 343,-1100"/>
<text text-anchor="middle" x="301" y="-1079.2" font-family="Courier,monospace" font-size="11.00">TagCommand</text>
</g>
<!-- \\Siad007\\VersionControl\\HG\\Command\\TagCommand&#45;&gt;\\Siad007\\VersionControl\\HG\\Command\\AbstractCommand -->
<g id="edge7" class="edge"><title>\\Siad007\\VersionControl\\HG\\Command\\TagCommand&#45;&gt;\\Siad007\\VersionControl\\HG\\Command\\AbstractCommand</title>
<path fill="none" stroke="black" d="M258.955,-1069.73C251.253,-1065.97 243.807,-1061.14 238,-1055 148.132,-959.952 119.216,-797.363 110.961,-732.214"/>
<polygon fill="none" stroke="black" points="114.434,-731.78 109.767,-722.268 107.484,-732.614 114.434,-731.78"/>
</g>
<!-- \\Siad007\\VersionControl\\HG\\Command\\PathsCommand -->
<g id="node8" class="node"><title>\\Siad007\\VersionControl\\HG\\Command\\PathsCommand</title>
<polygon fill="none" stroke="black" points="350,-1046 252,-1046 252,-1010 350,-1010 350,-1046"/>
<text text-anchor="middle" x="301" y="-1025.2" font-family="Courier,monospace" font-size="11.00">PathsCommand</text>
</g>
<!-- \\Siad007\\VersionControl\\HG\\Command\\PathsCommand&#45;&gt;\\Siad007\\VersionControl\\HG\\Command\\AbstractCommand -->
<g id="edge8" class="edge"><title>\\Siad007\\VersionControl\\HG\\Command\\PathsCommand&#45;&gt;\\Siad007\\VersionControl\\HG\\Command\\AbstractCommand</title>
<path fill="none" stroke="black" d="M251.931,-1011.56C246.856,-1008.56 242.072,-1005.06 238,-1001 159.806,-922.952 125.096,-789.988 113.157,-732.203"/>
<polygon fill="none" stroke="black" points="116.574,-731.441 111.187,-722.318 109.709,-732.809 116.574,-731.441"/>
</g>
<!-- \\Siad007\\VersionControl\\HG\\Command\\SummaryCommand -->
<g id="node9" class="node"><title>\\Siad007\\VersionControl\\HG\\Command\\SummaryCommand</title>
<polygon fill="none" stroke="black" points="356.5,-992 245.5,-992 245.5,-956 356.5,-956 356.5,-992"/>
<text text-anchor="middle" x="301" y="-971.2" font-family="Courier,monospace" font-size="11.00">SummaryCommand</text>
</g>
<!-- \\Siad007\\VersionControl\\HG\\Command\\SummaryCommand&#45;&gt;\\Siad007\\VersionControl\\HG\\Command\\AbstractCommand -->
<g id="edge9" class="edge"><title>\\Siad007\\VersionControl\\HG\\Command\\SummaryCommand&#45;&gt;\\Siad007\\VersionControl\\HG\\Command\\AbstractCommand</title>
<path fill="none" stroke="black" d="M250.057,-955.951C245.728,-953.317 241.624,-950.344 238,-947 171.189,-885.364 131.944,-781.377 116.147,-731.846"/>
<polygon fill="none" stroke="black" points="119.44,-730.649 113.131,-722.138 112.756,-732.726 119.44,-730.649"/>
</g>
<!-- \\Siad007\\VersionControl\\HG\\Command\\InitCommand -->
<g id="node10" class="node"><title>\\Siad007\\VersionControl\\HG\\Command\\InitCommand</title>
<polygon fill="none" stroke="black" points="346.5,-938 255.5,-938 255.5,-902 346.5,-902 346.5,-938"/>
<text text-anchor="middle" x="301" y="-917.2" font-family="Courier,monospace" font-size="11.00">InitCommand</text>
</g>
<!-- \\Siad007\\VersionControl\\HG\\Command\\InitCommand&#45;&gt;\\Siad007\\VersionControl\\HG\\Command\\AbstractCommand -->
<g id="edge10" class="edge"><title>\\Siad007\\VersionControl\\HG\\Command\\InitCommand&#45;&gt;\\Siad007\\VersionControl\\HG\\Command\\AbstractCommand</title>
<path fill="none" stroke="black" d="M255.212,-904.137C249.101,-900.957 243.163,-897.257 238,-893 182.361,-847.126 140.393,-771.593 120.592,-731.306"/>
<polygon fill="none" stroke="black" points="123.647,-729.584 116.151,-722.097 117.342,-732.624 123.647,-729.584"/>
</g>
<!-- \\Siad007\\VersionControl\\HG\\Command\\BlameCommand -->
<g id="node11" class="node"><title>\\Siad007\\VersionControl\\HG\\Command\\BlameCommand</title>
<polygon fill="none" stroke="black" points="541,-884 443,-884 443,-848 541,-848 541,-884"/>
<text text-anchor="middle" x="492" y="-863.2" font-family="Courier,monospace" font-size="11.00">BlameCommand</text>
</g>
<!-- \\Siad007\\VersionControl\\HG\\Command\\BlameCommand&#45;&gt;\\Siad007\\VersionControl\\HG\\Command\\AnnotateCommand -->
<g id="edge11" class="edge"><title>\\Siad007\\VersionControl\\HG\\Command\\BlameCommand&#45;&gt;\\Siad007\\VersionControl\\HG\\Command\\AnnotateCommand</title>
<path fill="none" stroke="black" d="M442.818,-866C420.808,-866 394.344,-866 370.329,-866"/>
<polygon fill="none" stroke="black" points="370.206,-862.5 360.206,-866 370.206,-869.5 370.206,-862.5"/>
</g>
<!-- \\Siad007\\VersionControl\\HG\\Command\\TagsCommand -->
<g id="node12" class="node"><title>\\Siad007\\VersionControl\\HG\\Command\\TagsCommand</title>
<polygon fill="none" stroke="black" points="537.5,-346 446.5,-346 446.5,-310 537.5,-310 537.5,-346"/>
<text text-anchor="middle" x="492" y="-325.2" font-family="Courier,monospace" font-size="11.00">TagsCommand</text>
</g>
<!-- \\Siad007\\VersionControl\\HG\\Command\\TagsCommand&#45;&gt;\\Siad007\\VersionControl\\HG\\Command\\BaseCommand -->
<g id="edge12" class="edge"><title>\\Siad007\\VersionControl\\HG\\Command\\TagsCommand&#45;&gt;\\Siad007\\VersionControl\\HG\\Command\\BaseCommand</title>
<path fill="none" stroke="black" d="M448.091,-309.843C443.791,-307.188 439.666,-304.24 436,-301 392.218,-262.306 408.653,-228.686 364,-191 361.317,-188.735 358.414,-186.632 355.381,-184.682"/>
<polygon fill="none" stroke="black" points="356.966,-181.556 346.556,-179.589 353.467,-187.619 356.966,-181.556"/>
</g>
<!-- \\Siad007\\VersionControl\\HG\\Command\\AddremoveCommand -->
<g id="node13" class="node"><title>\\Siad007\\VersionControl\\HG\\Command\\AddremoveCommand</title>
<polygon fill="none" stroke="black" points="363.5,-830 238.5,-830 238.5,-794 363.5,-794 363.5,-830"/>
<text text-anchor="middle" x="301" y="-809.2" font-family="Courier,monospace" font-size="11.00">AddremoveCommand</text>
</g>
<!-- \\Siad007\\VersionControl\\HG\\Command\\AddremoveCommand&#45;&gt;\\Siad007\\VersionControl\\HG\\Command\\AbstractCommand -->
<g id="edge13" class="edge"><title>\\Siad007\\VersionControl\\HG\\Command\\AddremoveCommand&#45;&gt;\\Siad007\\VersionControl\\HG\\Command\\AbstractCommand</title>
<path fill="none" stroke="black" d="M256.258,-793.912C250.06,-791.072 243.82,-788.059 238,-785 204.943,-767.623 169.031,-744.934 143.346,-727.991"/>
<polygon fill="none" stroke="black" points="144.975,-724.872 134.708,-722.256 141.103,-730.704 144.975,-724.872"/>
</g>
<!-- \\Siad007\\VersionControl\\HG\\Command\\ManifestCommand -->
<g id="node14" class="node"><title>\\Siad007\\VersionControl\\HG\\Command\\ManifestCommand</title>
<polygon fill="none" stroke="black" points="360,-776 242,-776 242,-740 360,-740 360,-776"/>
<text text-anchor="middle" x="301" y="-755.2" font-family="Courier,monospace" font-size="11.00">ManifestCommand</text>
</g>
<!-- \\Siad007\\VersionControl\\HG\\Command\\ManifestCommand&#45;&gt;\\Siad007\\VersionControl\\HG\\Command\\AbstractCommand -->
<g id="edge14" class="edge"><title>\\Siad007\\VersionControl\\HG\\Command\\ManifestCommand&#45;&gt;\\Siad007\\VersionControl\\HG\\Command\\AbstractCommand</title>
<path fill="none" stroke="black" d="M241.873,-741.652C221.103,-735.81 197.516,-729.176 175.989,-723.122"/>
<polygon fill="none" stroke="black" points="176.835,-719.724 166.261,-720.386 174.94,-726.463 176.835,-719.724"/>
</g>
<!-- \\Siad007\\VersionControl\\HG\\Command\\UpdateCommand -->
<g id="node15" class="node"><title>\\Siad007\\VersionControl\\HG\\Command\\UpdateCommand</title>
<polygon fill="none" stroke="black" points="353,-722 249,-722 249,-686 353,-686 353,-722"/>
<text text-anchor="middle" x="301" y="-701.2" font-family="Courier,monospace" font-size="11.00">UpdateCommand</text>
</g>
<!-- \\Siad007\\VersionControl\\HG\\Command\\UpdateCommand&#45;&gt;\\Siad007\\VersionControl\\HG\\Command\\AbstractCommand -->
<g id="edge15" class="edge"><title>\\Siad007\\VersionControl\\HG\\Command\\UpdateCommand&#45;&gt;\\Siad007\\VersionControl\\HG\\Command\\AbstractCommand</title>
<path fill="none" stroke="black" d="M248.8,-704C226.54,-704 200.139,-704 176.246,-704"/>
<polygon fill="none" stroke="black" points="176.18,-700.5 166.18,-704 176.18,-707.5 176.18,-700.5"/>
</g>
<!-- \\Siad007\\VersionControl\\HG\\Command\\VerifyCommand -->
<g id="node16" class="node"><title>\\Siad007\\VersionControl\\HG\\Command\\VerifyCommand</title>
<polygon fill="none" stroke="black" points="544,-292 440,-292 440,-256 544,-256 544,-292"/>
<text text-anchor="middle" x="492" y="-271.2" font-family="Courier,monospace" font-size="11.00">VerifyCommand</text>
</g>
<!-- \\Siad007\\VersionControl\\HG\\Command\\VerifyCommand&#45;&gt;\\Siad007\\VersionControl\\HG\\Command\\BaseCommand -->
<g id="edge16" class="edge"><title>\\Siad007\\VersionControl\\HG\\Command\\VerifyCommand&#45;&gt;\\Siad007\\VersionControl\\HG\\Command\\BaseCommand</title>
<path fill="none" stroke="black" d="M451.7,-255.939C446.329,-253.116 440.961,-250.101 436,-247 401.625,-225.511 398.857,-211.699 364,-191 361.36,-189.432 358.612,-187.903 355.805,-186.42"/>
<polygon fill="none" stroke="black" points="357.214,-183.211 346.706,-181.856 354.076,-189.468 357.214,-183.211"/>
</g>
<!-- \\Siad007\\VersionControl\\HG\\Command\\ArchiveCommand -->
<g id="node17" class="node"><title>\\Siad007\\VersionControl\\HG\\Command\\ArchiveCommand</title>
<polygon fill="none" stroke="black" points="356.5,-668 245.5,-668 245.5,-632 356.5,-632 356.5,-668"/>
<text text-anchor="middle" x="301" y="-647.2" font-family="Courier,monospace" font-size="11.00">ArchiveCommand</text>
</g>
<!-- \\Siad007\\VersionControl\\HG\\Command\\ArchiveCommand&#45;&gt;\\Siad007\\VersionControl\\HG\\Command\\AbstractCommand -->
<g id="edge17" class="edge"><title>\\Siad007\\VersionControl\\HG\\Command\\ArchiveCommand&#45;&gt;\\Siad007\\VersionControl\\HG\\Command\\AbstractCommand</title>
<path fill="none" stroke="black" d="M245.494,-665.33C223.958,-671.387 198.972,-678.414 176.253,-684.804"/>
<polygon fill="none" stroke="black" points="175.014,-681.516 166.335,-687.593 176.909,-688.255 175.014,-681.516"/>
</g>
<!-- \\Siad007\\VersionControl\\HG\\Command\\AddCommand -->
<g id="node18" class="node"><title>\\Siad007\\VersionControl\\HG\\Command\\AddCommand</title>
<polygon fill="none" stroke="black" points="343,-614 259,-614 259,-578 343,-578 343,-614"/>
<text text-anchor="middle" x="301" y="-593.2" font-family="Courier,monospace" font-size="11.00">AddCommand</text>
</g>
<!-- \\Siad007\\VersionControl\\HG\\Command\\AddCommand&#45;&gt;\\Siad007\\VersionControl\\HG\\Command\\AbstractCommand -->
<g id="edge18" class="edge"><title>\\Siad007\\VersionControl\\HG\\Command\\AddCommand&#45;&gt;\\Siad007\\VersionControl\\HG\\Command\\AbstractCommand</title>
<path fill="none" stroke="black" d="M258.911,-612.882C251.851,-616.068 244.651,-619.504 238,-623 204.943,-640.377 169.031,-663.066 143.346,-680.009"/>
<polygon fill="none" stroke="black" points="141.103,-677.296 134.708,-685.744 144.975,-683.128 141.103,-677.296"/>
</g>
<!-- \\Siad007\\VersionControl\\HG\\Command\\RootCommand -->
<g id="node20" class="node"><title>\\Siad007\\VersionControl\\HG\\Command\\RootCommand</title>
<polygon fill="none" stroke="black" points="537.5,-238 446.5,-238 446.5,-202 537.5,-202 537.5,-238"/>
<text text-anchor="middle" x="492" y="-217.2" font-family="Courier,monospace" font-size="11.00">RootCommand</text>
</g>
<!-- \\Siad007\\VersionControl\\HG\\Command\\RootCommand&#45;&gt;\\Siad007\\VersionControl\\HG\\Command\\BaseCommand -->
<g id="edge19" class="edge"><title>\\Siad007\\VersionControl\\HG\\Command\\RootCommand&#45;&gt;\\Siad007\\VersionControl\\HG\\Command\\BaseCommand</title>
<path fill="none" stroke="black" d="M446.21,-206.729C419.357,-198.772 385.018,-188.598 356.585,-180.173"/>
<polygon fill="none" stroke="black" points="357.378,-176.758 346.796,-177.273 355.39,-183.47 357.378,-176.758"/>
</g>
<!-- \\Siad007\\VersionControl\\HG\\Command\\UnbundleCommand -->
<g id="node21" class="node"><title>\\Siad007\\VersionControl\\HG\\Command\\UnbundleCommand</title>
<polygon fill="none" stroke="black" points="360,-560 242,-560 242,-524 360,-524 360,-560"/>
<text text-anchor="middle" x="301" y="-539.2" font-family="Courier,monospace" font-size="11.00">UnbundleCommand</text>
</g>
<!-- \\Siad007\\VersionControl\\HG\\Command\\UnbundleCommand&#45;&gt;\\Siad007\\VersionControl\\HG\\Command\\AbstractCommand -->
<g id="edge20" class="edge"><title>\\Siad007\\VersionControl\\HG\\Command\\UnbundleCommand&#45;&gt;\\Siad007\\VersionControl\\HG\\Command\\AbstractCommand</title>
<path fill="none" stroke="black" d="M252.885,-560.138C247.699,-562.824 242.627,-565.783 238,-569 193.502,-599.935 151.877,-647.762 128.222,-677.406"/>
<polygon fill="none" stroke="black" points="125.192,-675.597 121.757,-685.619 130.693,-679.927 125.192,-675.597"/>
</g>
<!-- \\Siad007\\VersionControl\\HG\\Command\\CloneCommand -->
<g id="node22" class="node"><title>\\Siad007\\VersionControl\\HG\\Command\\CloneCommand</title>
<polygon fill="none" stroke="black" points="350,-506 252,-506 252,-470 350,-470 350,-506"/>
<text text-anchor="middle" x="301" y="-485.2" font-family="Courier,monospace" font-size="11.00">CloneCommand</text>
</g>
<!-- \\Siad007\\VersionControl\\HG\\Command\\CloneCommand&#45;&gt;\\Siad007\\VersionControl\\HG\\Command\\AbstractCommand -->
<g id="edge21" class="edge"><title>\\Siad007\\VersionControl\\HG\\Command\\CloneCommand&#45;&gt;\\Siad007\\VersionControl\\HG\\Command\\AbstractCommand</title>
<path fill="none" stroke="black" d="M251.698,-505.763C246.838,-508.492 242.167,-511.564 238,-515 182.361,-560.874 140.393,-636.407 120.592,-676.694"/>
<polygon fill="none" stroke="black" points="117.342,-675.376 116.151,-685.903 123.647,-678.416 117.342,-675.376"/>
</g>
<!-- \\Siad007\\VersionControl\\HG\\Command\\VersionCommand -->
<g id="node23" class="node"><title>\\Siad007\\VersionControl\\HG\\Command\\VersionCommand</title>
<polygon fill="none" stroke="black" points="547.5,-184 436.5,-184 436.5,-148 547.5,-148 547.5,-184"/>
<text text-anchor="middle" x="492" y="-163.2" font-family="Courier,monospace" font-size="11.00">VersionCommand</text>
</g>
<!-- \\Siad007\\VersionControl\\HG\\Command\\VersionCommand&#45;&gt;\\Siad007\\VersionControl\\HG\\Command\\BaseCommand -->
<g id="edge22" class="edge"><title>\\Siad007\\VersionControl\\HG\\Command\\VersionCommand&#45;&gt;\\Siad007\\VersionControl\\HG\\Command\\BaseCommand</title>
<path fill="none" stroke="black" d="M436.333,-165.422C411.324,-165.157 381.76,-164.844 356.742,-164.579"/>
<polygon fill="none" stroke="black" points="356.72,-161.079 346.684,-164.473 356.646,-168.079 356.72,-161.079"/>
</g>
<!-- \\Siad007\\VersionControl\\HG\\Command\\BundleCommand -->
<g id="node24" class="node"><title>\\Siad007\\VersionControl\\HG\\Command\\BundleCommand</title>
<polygon fill="none" stroke="black" points="353,-452 249,-452 249,-416 353,-416 353,-452"/>
<text text-anchor="middle" x="301" y="-431.2" font-family="Courier,monospace" font-size="11.00">BundleCommand</text>
</g>
<!-- \\Siad007\\VersionControl\\HG\\Command\\BundleCommand&#45;&gt;\\Siad007\\VersionControl\\HG\\Command\\AbstractCommand -->
<g id="edge23" class="edge"><title>\\Siad007\\VersionControl\\HG\\Command\\BundleCommand&#45;&gt;\\Siad007\\VersionControl\\HG\\Command\\AbstractCommand</title>
<path fill="none" stroke="black" d="M250.057,-452.049C245.728,-454.683 241.624,-457.656 238,-461 171.189,-522.636 131.944,-626.623 116.147,-676.154"/>
<polygon fill="none" stroke="black" points="112.756,-675.274 113.131,-685.862 119.44,-677.351 112.756,-675.274"/>
</g>
<!-- \\Siad007\\VersionControl\\HG\\Command\\CatCommand -->
<g id="node25" class="node"><title>\\Siad007\\VersionControl\\HG\\Command\\CatCommand</title>
<polygon fill="none" stroke="black" points="343,-398 259,-398 259,-362 343,-362 343,-398"/>
<text text-anchor="middle" x="301" y="-377.2" font-family="Courier,monospace" font-size="11.00">CatCommand</text>
</g>
<!-- \\Siad007\\VersionControl\\HG\\Command\\CatCommand&#45;&gt;\\Siad007\\VersionControl\\HG\\Command\\AbstractCommand -->
<g id="edge24" class="edge"><title>\\Siad007\\VersionControl\\HG\\Command\\CatCommand&#45;&gt;\\Siad007\\VersionControl\\HG\\Command\\AbstractCommand</title>
<path fill="none" stroke="black" d="M258.905,-392.696C251.296,-396.412 243.9,-401.111 238,-407 159.806,-485.048 125.096,-618.012 113.157,-675.797"/>
<polygon fill="none" stroke="black" points="109.709,-675.191 111.187,-685.682 116.574,-676.559 109.709,-675.191"/>
</g>
<!-- \\Siad007\\VersionControl\\HG\\Command\\BranchCommand -->
<g id="node26" class="node"><title>\\Siad007\\VersionControl\\HG\\Command\\BranchCommand</title>
<polygon fill="none" stroke="black" points="353,-344 249,-344 249,-308 353,-308 353,-344"/>
<text text-anchor="middle" x="301" y="-323.2" font-family="Courier,monospace" font-size="11.00">BranchCommand</text>
</g>
<!-- \\Siad007\\VersionControl\\HG\\Command\\BranchCommand&#45;&gt;\\Siad007\\VersionControl\\HG\\Command\\AbstractCommand -->
<g id="edge25" class="edge"><title>\\Siad007\\VersionControl\\HG\\Command\\BranchCommand&#45;&gt;\\Siad007\\VersionControl\\HG\\Command\\AbstractCommand</title>
<path fill="none" stroke="black" d="M248.959,-343.941C244.958,-346.583 241.226,-349.588 238,-353 148.132,-448.048 119.216,-610.637 110.961,-675.786"/>
<polygon fill="none" stroke="black" points="107.484,-675.386 109.767,-685.732 114.434,-676.22 107.484,-675.386"/>
</g>
<!-- \\Siad007\\VersionControl\\HG\\Command\\BranchesCommand -->
<g id="node27" class="node"><title>\\Siad007\\VersionControl\\HG\\Command\\BranchesCommand</title>
<polygon fill="none" stroke="black" points="360,-290 242,-290 242,-254 360,-254 360,-290"/>
<text text-anchor="middle" x="301" y="-269.2" font-family="Courier,monospace" font-size="11.00">BranchesCommand</text>
</g>
<!-- \\Siad007\\VersionControl\\HG\\Command\\BranchesCommand&#45;&gt;\\Siad007\\VersionControl\\HG\\Command\\AbstractCommand -->
<g id="edge26" class="edge"><title>\\Siad007\\VersionControl\\HG\\Command\\BranchesCommand&#45;&gt;\\Siad007\\VersionControl\\HG\\Command\\AbstractCommand</title>
<path fill="none" stroke="black" d="M248.204,-290.194C244.463,-292.77 240.993,-295.691 238,-299 136.457,-411.255 114.179,-603.396 109.333,-675.527"/>
<polygon fill="none" stroke="black" points="105.83,-675.465 108.716,-685.659 112.817,-675.89 105.83,-675.465"/>
</g>
<!-- \\Siad007\\VersionControl\\HG\\Command\\LocateCommand -->
<g id="node28" class="node"><title>\\Siad007\\VersionControl\\HG\\Command\\LocateCommand</title>
<polygon fill="none" stroke="black" points="353,-236 249,-236 249,-200 353,-200 353,-236"/>
<text text-anchor="middle" x="301" y="-215.2" font-family="Courier,monospace" font-size="11.00">LocateCommand</text>
</g>
<!-- \\Siad007\\VersionControl\\HG\\Command\\LocateCommand&#45;&gt;\\Siad007\\VersionControl\\HG\\Command\\AbstractCommand -->
<g id="edge27" class="edge"><title>\\Siad007\\VersionControl\\HG\\Command\\LocateCommand&#45;&gt;\\Siad007\\VersionControl\\HG\\Command\\AbstractCommand</title>
<path fill="none" stroke="black" d="M248.963,-235.474C244.91,-238.219 241.167,-241.375 238,-245 124.55,-374.865 109.648,-597.105 108.039,-675.559"/>
<polygon fill="none" stroke="black" points="104.538,-675.6 107.891,-685.65 111.537,-675.702 104.538,-675.6"/>
</g>
<!-- \\Siad007\\VersionControl\\HG\\Command\\RecoverCommand -->
<g id="node29" class="node"><title>\\Siad007\\VersionControl\\HG\\Command\\RecoverCommand</title>
<polygon fill="none" stroke="black" points="547.5,-130 436.5,-130 436.5,-94 547.5,-94 547.5,-130"/>
<text text-anchor="middle" x="492" y="-109.2" font-family="Courier,monospace" font-size="11.00">RecoverCommand</text>
</g>
<!-- \\Siad007\\VersionControl\\HG\\Command\\RecoverCommand&#45;&gt;\\Siad007\\VersionControl\\HG\\Command\\BaseCommand -->
<g id="edge28" class="edge"><title>\\Siad007\\VersionControl\\HG\\Command\\RecoverCommand&#45;&gt;\\Siad007\\VersionControl\\HG\\Command\\BaseCommand</title>
<path fill="none" stroke="black" d="M436.333,-127.041C411.213,-133.952 381.497,-142.128 356.408,-149.03"/>
<polygon fill="none" stroke="black" points="355.397,-145.679 346.684,-151.706 357.254,-152.428 355.397,-145.679"/>
</g>
<!-- \\Siad007\\VersionControl\\HG\\Command\\StatusCommand -->
<g id="node30" class="node"><title>\\Siad007\\VersionControl\\HG\\Command\\StatusCommand</title>
<polygon fill="none" stroke="black" points="353,-128 249,-128 249,-92 353,-92 353,-128"/>
<text text-anchor="middle" x="301" y="-107.2" font-family="Courier,monospace" font-size="11.00">StatusCommand</text>
</g>
<!-- \\Siad007\\VersionControl\\HG\\Command\\StatusCommand&#45;&gt;\\Siad007\\VersionControl\\HG\\Command\\AbstractCommand -->
<g id="edge29" class="edge"><title>\\Siad007\\VersionControl\\HG\\Command\\StatusCommand&#45;&gt;\\Siad007\\VersionControl\\HG\\Command\\AbstractCommand</title>
<path fill="none" stroke="black" d="M248.766,-127.306C244.754,-130.086 241.074,-133.296 238,-137 167.758,-221.635 122.935,-572.711 111.126,-675.565"/>
<polygon fill="none" stroke="black" points="107.615,-675.464 109.967,-685.795 114.571,-676.252 107.615,-675.464"/>
</g>
<!-- \\Siad007\\VersionControl\\HG\\Factory -->
<g id="node31" class="node"><title>\\Siad007\\VersionControl\\HG\\Factory</title>
<polygon fill="none" stroke="black" points="524,-76 460,-76 460,-40 524,-40 524,-76"/>
<text text-anchor="middle" x="492" y="-55.2" font-family="Courier,monospace" font-size="11.00">Factory</text>
</g>
</g>
</svg>
