<?xml version="1.0" encoding="UTF-8" standalone="no"?>
<!DOCTYPE svg PUBLIC "-//W3C//DTD SVG 1.1//EN"
 "http://www.w3.org/Graphics/SVG/1.1/DTD/svg11.dtd">
<!-- Generated by graphviz version 2.36.0 (20140111.2315)
 -->
<!-- Title: G Pages: 1 -->
<svg width="604pt" height="1526pt"
 viewBox="0.00 0.00 604.00 1526.00" xmlns="http://www.w3.org/2000/svg" xmlns:xlink="http://www.w3.org/1999/xlink">
<g id="graph0" class="graph" transform="scale(1 1) rotate(0) translate(4 1522)">
<title>G</title>
<polygon fill="white" stroke="none" points="-4,4 -4,-1522 600,-1522 600,4 -4,4"/>
<g id="clust1" class="cluster"><title>cluster_Global</title>
<path fill="none" stroke="gray" d="M20,-8C20,-8 576,-8 576,-8 582,-8 588,-14 588,-20 588,-20 588,-1498 588,-1498 588,-1504 582,-1510 576,-1510 576,-1510 20,-1510 20,-1510 14,-1510 8,-1504 8,-1498 8,-1498 8,-20 8,-20 8,-14 14,-8 20,-8"/>
<text text-anchor="middle" x="298" y="-1497.2" font-family="Times New Roman,serif" font-size="11.00" fill="gray">Global</text>
</g>
<g id="clust2" class="cluster"><title>cluster_\Siad007</title>
<path fill="none" stroke="gray" d="M28,-16C28,-16 568,-16 568,-16 574,-16 580,-22 580,-28 580,-28 580,-1470 580,-1470 580,-1476 574,-1482 568,-1482 568,-1482 28,-1482 28,-1482 22,-1482 16,-1476 16,-1470 16,-1470 16,-28 16,-28 16,-22 22,-16 28,-16"/>
<text text-anchor="middle" x="298" y="-1469.2" font-family="Times New Roman,serif" font-size="11.00" fill="gray">Siad007</text>
</g>
<g id="clust3" class="cluster"><title>cluster_\Siad007\VersionControl</title>
<path fill="none" stroke="gray" d="M36,-24C36,-24 560,-24 560,-24 566,-24 572,-30 572,-36 572,-36 572,-1442 572,-1442 572,-1448 566,-1454 560,-1454 560,-1454 36,-1454 36,-1454 30,-1454 24,-1448 24,-1442 24,-1442 24,-36 24,-36 24,-30 30,-24 36,-24"/>
<text text-anchor="middle" x="298" y="-1441.2" font-family="Times New Roman,serif" font-size="11.00" fill="gray">VersionControl</text>
</g>
<g id="clust4" class="cluster"><title>cluster_\Siad007\VersionControl\HG</title>
<path fill="none" stroke="gray" d="M44,-32C44,-32 552,-32 552,-32 558,-32 564,-38 564,-44 564,-44 564,-1414 564,-1414 564,-1420 558,-1426 552,-1426 552,-1426 44,-1426 44,-1426 38,-1426 32,-1420 32,-1414 32,-1414 32,-44 32,-44 32,-38 38,-32 44,-32"/>
<text text-anchor="middle" x="298" y="-1413.2" font-family="Times New Roman,serif" font-size="11.00" fill="gray">HG</text>
</g>
<g id="clust5" class="cluster"><title>cluster_\Siad007\VersionControl\HG\Command</title>
<path fill="none" stroke="gray" d="M52,-84C52,-84 544,-84 544,-84 550,-84 556,-90 556,-96 556,-96 556,-1386 556,-1386 556,-1392 550,-1398 544,-1398 544,-1398 52,-1398 52,-1398 46,-1398 40,-1392 40,-1386 40,-1386 40,-96 40,-96 40,-90 46,-84 52,-84"/>
<text text-anchor="middle" x="298" y="-1385.2" font-family="Times New Roman,serif" font-size="11.00" fill="gray">Command</text>
</g>
<!-- \\Siad007\\VersionControl\\HG\\Command\\PushCommand -->
<g id="node1" class="node"><title>\\Siad007\\VersionControl\\HG\\Command\\PushCommand</title>
<polygon fill="none" stroke="black" points="346.5,-1370 255.5,-1370 255.5,-1334 346.5,-1334 346.5,-1370"/>
<text text-anchor="middle" x="301" y="-1349.2" font-family="Courier,monospace" font-size="11.00">PushCommand</text>
</g>
<!-- \\Siad007\\VersionControl\\HG\\Command\\AbstractCommand -->
<g id="node24" class="node"><title>\\Siad007\\VersionControl\\HG\\Command\\AbstractCommand</title>
<polygon fill="none" stroke="black" points="166,-749 48,-749 48,-713 166,-713 166,-749"/>
<text text-anchor="start" x="73" y="-734.2" font-family="Courier,monospace" font-size="11.00">«abstract»</text>
<text text-anchor="start" x="56" y="-722.2" font-family="Courier,monospace" font-size="11.00">AbstractCommand</text>
</g>
<!-- \\Siad007\\VersionControl\\HG\\Command\\PushCommand&#45;&gt;\\Siad007\\VersionControl\\HG\\Command\\AbstractCommand -->
<g id="edge1" class="edge"><title>\\Siad007\\VersionControl\\HG\\Command\\PushCommand&#45;&gt;\\Siad007\\VersionControl\\HG\\Command\\AbstractCommand</title>
<path fill="none" stroke="black" d="M255.423,-1338.85C248.835,-1335.25 242.695,-1330.71 238,-1325 164.7,-1235.78 121.746,-865.296 110.799,-759.391"/>
<polygon fill="none" stroke="black" points="114.253,-758.759 109.758,-749.165 107.289,-759.469 114.253,-758.759"/>
</g>
<!-- \\Siad007\\VersionControl\\HG\\Command\\CommitCommand -->
<g id="node2" class="node"><title>\\Siad007\\VersionControl\\HG\\Command\\CommitCommand</title>
<polygon fill="none" stroke="black" points="353,-1316 249,-1316 249,-1280 353,-1280 353,-1316"/>
<text text-anchor="middle" x="301" y="-1295.2" font-family="Courier,monospace" font-size="11.00">CommitCommand</text>
</g>
<!-- \\Siad007\\VersionControl\\HG\\Command\\CommitCommand&#45;&gt;\\Siad007\\VersionControl\\HG\\Command\\AbstractCommand -->
<g id="edge2" class="edge"><title>\\Siad007\\VersionControl\\HG\\Command\\CommitCommand&#45;&gt;\\Siad007\\VersionControl\\HG\\Command\\AbstractCommand</title>
<path fill="none" stroke="black" d="M248.809,-1280.66C244.788,-1277.89 241.094,-1274.69 238,-1271 170.786,-1190.9 124.157,-858.977 111.472,-759.378"/>
<polygon fill="none" stroke="black" points="114.91,-758.667 110.19,-749.182 107.965,-759.54 114.91,-758.667"/>
</g>
<!-- \\Siad007\\VersionControl\\HG\\Command\\BaseCommand -->
<g id="node3" class="node"><title>\\Siad007\\VersionControl\\HG\\Command\\BaseCommand</title>
<polygon fill="none" stroke="black" points="346.5,-290 255.5,-290 255.5,-254 346.5,-254 346.5,-290"/>
<text text-anchor="middle" x="301" y="-269.2" font-family="Courier,monospace" font-size="11.00">BaseCommand</text>
</g>
<!-- \\Siad007\\VersionControl\\HG\\Command\\BaseCommand&#45;&gt;\\Siad007\\VersionControl\\HG\\Command\\AbstractCommand -->
<g id="edge3" class="edge"><title>\\Siad007\\VersionControl\\HG\\Command\\BaseCommand&#45;&gt;\\Siad007\\VersionControl\\HG\\Command\\AbstractCommand</title>
<path fill="none" stroke="black" d="M255.476,-285.639C248.962,-289.167 242.833,-293.557 238,-299 130.432,-420.123 111.821,-627.513 108.64,-702.714"/>
<polygon fill="none" stroke="black" points="105.139,-702.704 108.274,-712.825 112.134,-702.958 105.139,-702.704"/>
</g>
<!-- \\Siad007\\VersionControl\\HG\\Command\\AnnotateCommand -->
<g id="node4" class="node"><title>\\Siad007\\VersionControl\\HG\\Command\\AnnotateCommand</title>
<polygon fill="none" stroke="black" points="360,-776 242,-776 242,-740 360,-740 360,-776"/>
<text text-anchor="middle" x="301" y="-755.2" font-family="Courier,monospace" font-size="11.00">AnnotateCommand</text>
</g>
<!-- \\Siad007\\VersionControl\\HG\\Command\\AnnotateCommand&#45;&gt;\\Siad007\\VersionControl\\HG\\Command\\AbstractCommand -->
<g id="edge4" class="edge"><title>\\Siad007\\VersionControl\\HG\\Command\\AnnotateCommand&#45;&gt;\\Siad007\\VersionControl\\HG\\Command\\AbstractCommand</title>
<path fill="none" stroke="black" d="M241.873,-749.826C221.196,-746.918 197.729,-743.618 176.28,-740.602"/>
<polygon fill="none" stroke="black" points="176.651,-737.12 166.261,-739.193 175.676,-744.051 176.651,-737.12"/>
</g>
<!-- \\Siad007\\VersionControl\\HG\\Command\\HeadsCommand -->
<g id="node5" class="node"><title>\\Siad007\\VersionControl\\HG\\Command\\HeadsCommand</title>
<polygon fill="none" stroke="black" points="350,-1262 252,-1262 252,-1226 350,-1226 350,-1262"/>
<text text-anchor="middle" x="301" y="-1241.2" font-family="Courier,monospace" font-size="11.00">HeadsCommand</text>
</g>
<!-- \\Siad007\\VersionControl\\HG\\Command\\HeadsCommand&#45;&gt;\\Siad007\\VersionControl\\HG\\Command\\AbstractCommand -->
<g id="edge5" class="edge"><title>\\Siad007\\VersionControl\\HG\\Command\\HeadsCommand&#45;&gt;\\Siad007\\VersionControl\\HG\\Command\\AbstractCommand</title>
<path fill="none" stroke="black" d="M251.916,-1228.52C246.717,-1225.34 241.906,-1221.54 238,-1217 118.576,-1078.26 107.562,-840.937 107.494,-759.448"/>
<polygon fill="none" stroke="black" points="110.993,-759.454 107.542,-749.437 103.994,-759.42 110.993,-759.454"/>
</g>
<!-- \\Siad007\\VersionControl\\HG\\Command\\PullCommand -->
<g id="node6" class="node"><title>\\Siad007\\VersionControl\\HG\\Command\\PullCommand</title>
<polygon fill="none" stroke="black" points="346.5,-1208 255.5,-1208 255.5,-1172 346.5,-1172 346.5,-1208"/>
<text text-anchor="middle" x="301" y="-1187.2" font-family="Courier,monospace" font-size="11.00">PullCommand</text>
</g>
<!-- \\Siad007\\VersionControl\\HG\\Command\\PullCommand&#45;&gt;\\Siad007\\VersionControl\\HG\\Command\\AbstractCommand -->
<g id="edge6" class="edge"><title>\\Siad007\\VersionControl\\HG\\Command\\PullCommand&#45;&gt;\\Siad007\\VersionControl\\HG\\Command\\AbstractCommand</title>
<path fill="none" stroke="black" d="M255.476,-1176.36C248.962,-1172.83 242.833,-1168.44 238,-1163 130.432,-1041.88 111.821,-834.487 108.64,-759.286"/>
<polygon fill="none" stroke="black" points="112.134,-759.042 108.274,-749.175 105.139,-759.296 112.134,-759.042"/>
</g>
<!-- \\Siad007\\VersionControl\\HG\\Command\\RecoverCommand -->
<g id="node7" class="node"><title>\\Siad007\\VersionControl\\HG\\Command\\RecoverCommand</title>
<polygon fill="none" stroke="black" points="547.5,-398 436.5,-398 436.5,-362 547.5,-362 547.5,-398"/>
<text text-anchor="middle" x="492" y="-377.2" font-family="Courier,monospace" font-size="11.00">RecoverCommand</text>
</g>
<!-- \\Siad007\\VersionControl\\HG\\Command\\RecoverCommand&#45;&gt;\\Siad007\\VersionControl\\HG\\Command\\BaseCommand -->
<g id="edge7" class="edge"><title>\\Siad007\\VersionControl\\HG\\Command\\RecoverCommand&#45;&gt;\\Siad007\\VersionControl\\HG\\Command\\BaseCommand</title>
<path fill="none" stroke="black" d="M451.75,-361.858C446.371,-359.048 440.988,-356.058 436,-353 401.897,-332.095 398.571,-319.121 364,-299 361.346,-297.455 358.587,-295.944 355.772,-294.476"/>
<polygon fill="none" stroke="black" points="357.166,-291.261 346.653,-289.946 354.052,-297.53 357.166,-291.261"/>
</g>
<!-- \\Siad007\\VersionControl\\HG\\Command\\BranchesCommand -->
<g id="node8" class="node"><title>\\Siad007\\VersionControl\\HG\\Command\\BranchesCommand</title>
<polygon fill="none" stroke="black" points="360,-1154 242,-1154 242,-1118 360,-1118 360,-1154"/>
<text text-anchor="middle" x="301" y="-1133.2" font-family="Courier,monospace" font-size="11.00">BranchesCommand</text>
</g>
<!-- \\Siad007\\VersionControl\\HG\\Command\\BranchesCommand&#45;&gt;\\Siad007\\VersionControl\\HG\\Command\\AbstractCommand -->
<g id="edge8" class="edge"><title>\\Siad007\\VersionControl\\HG\\Command\\BranchesCommand&#45;&gt;\\Siad007\\VersionControl\\HG\\Command\\AbstractCommand</title>
<path fill="none" stroke="black" d="M248.575,-1117.94C244.705,-1115.33 241.106,-1112.36 238,-1109 142.358,-1005.44 116.647,-828.229 110.106,-759.454"/>
<polygon fill="none" stroke="black" points="113.582,-759.027 109.213,-749.375 106.609,-759.645 113.582,-759.027"/>
</g>
<!-- \\Siad007\\VersionControl\\HG\\Command\\TagCommand -->
<g id="node9" class="node"><title>\\Siad007\\VersionControl\\HG\\Command\\TagCommand</title>
<polygon fill="none" stroke="black" points="343,-1100 259,-1100 259,-1064 343,-1064 343,-1100"/>
<text text-anchor="middle" x="301" y="-1079.2" font-family="Courier,monospace" font-size="11.00">TagCommand</text>
</g>
<!-- \\Siad007\\VersionControl\\HG\\Command\\TagCommand&#45;&gt;\\Siad007\\VersionControl\\HG\\Command\\AbstractCommand -->
<g id="edge9" class="edge"><title>\\Siad007\\VersionControl\\HG\\Command\\TagCommand&#45;&gt;\\Siad007\\VersionControl\\HG\\Command\\AbstractCommand</title>
<path fill="none" stroke="black" d="M258.761,-1069.45C251.163,-1065.72 243.808,-1060.98 238,-1055 153.946,-968.46 122.009,-820.618 111.959,-759.122"/>
<polygon fill="none" stroke="black" points="115.381,-758.35 110.379,-749.011 108.465,-759.431 115.381,-758.35"/>
</g>
<!-- \\Siad007\\VersionControl\\HG\\Command\\StatusCommand -->
<g id="node10" class="node"><title>\\Siad007\\VersionControl\\HG\\Command\\StatusCommand</title>
<polygon fill="none" stroke="black" points="353,-1046 249,-1046 249,-1010 353,-1010 353,-1046"/>
<text text-anchor="middle" x="301" y="-1025.2" font-family="Courier,monospace" font-size="11.00">StatusCommand</text>
</g>
<!-- \\Siad007\\VersionControl\\HG\\Command\\StatusCommand&#45;&gt;\\Siad007\\VersionControl\\HG\\Command\\AbstractCommand -->
<g id="edge10" class="edge"><title>\\Siad007\\VersionControl\\HG\\Command\\StatusCommand&#45;&gt;\\Siad007\\VersionControl\\HG\\Command\\AbstractCommand</title>
<path fill="none" stroke="black" d="M249.599,-1009.92C245.415,-1007.3 241.468,-1004.34 238,-1001 165.441,-931.148 128.28,-812.537 114.474,-758.859"/>
<polygon fill="none" stroke="black" points="117.837,-757.879 112.021,-749.023 111.045,-759.573 117.837,-757.879"/>
</g>
<!-- \\Siad007\\VersionControl\\HG\\Command\\PathsCommand -->
<g id="node11" class="node"><title>\\Siad007\\VersionControl\\HG\\Command\\PathsCommand</title>
<polygon fill="none" stroke="black" points="350,-992 252,-992 252,-956 350,-956 350,-992"/>
<text text-anchor="middle" x="301" y="-971.2" font-family="Courier,monospace" font-size="11.00">PathsCommand</text>
</g>
<!-- \\Siad007\\VersionControl\\HG\\Command\\PathsCommand&#45;&gt;\\Siad007\\VersionControl\\HG\\Command\\AbstractCommand -->
<g id="edge11" class="edge"><title>\\Siad007\\VersionControl\\HG\\Command\\PathsCommand&#45;&gt;\\Siad007\\VersionControl\\HG\\Command\\AbstractCommand</title>
<path fill="none" stroke="black" d="M251.798,-956.67C246.864,-953.85 242.149,-950.638 238,-947 176.81,-893.347 135.927,-803.684 118.132,-758.624"/>
<polygon fill="none" stroke="black" points="121.36,-757.268 114.492,-749.201 114.831,-759.791 121.36,-757.268"/>
</g>
<!-- \\Siad007\\VersionControl\\HG\\Command\\LocateCommand -->
<g id="node12" class="node"><title>\\Siad007\\VersionControl\\HG\\Command\\LocateCommand</title>
<polygon fill="none" stroke="black" points="353,-938 249,-938 249,-902 353,-902 353,-938"/>
<text text-anchor="middle" x="301" y="-917.2" font-family="Courier,monospace" font-size="11.00">LocateCommand</text>
</g>
<!-- \\Siad007\\VersionControl\\HG\\Command\\LocateCommand&#45;&gt;\\Siad007\\VersionControl\\HG\\Command\\AbstractCommand -->
<g id="edge12" class="edge"><title>\\Siad007\\VersionControl\\HG\\Command\\LocateCommand&#45;&gt;\\Siad007\\VersionControl\\HG\\Command\\AbstractCommand</title>
<path fill="none" stroke="black" d="M251.948,-901.923C247.041,-899.252 242.291,-896.28 238,-893 187.899,-854.704 145.585,-793.135 123.797,-757.958"/>
<polygon fill="none" stroke="black" points="126.65,-755.914 118.457,-749.196 120.673,-759.556 126.65,-755.914"/>
</g>
<!-- \\Siad007\\VersionControl\\HG\\Command\\SummaryCommand -->
<g id="node13" class="node"><title>\\Siad007\\VersionControl\\HG\\Command\\SummaryCommand</title>
<polygon fill="none" stroke="black" points="356.5,-884 245.5,-884 245.5,-848 356.5,-848 356.5,-884"/>
<text text-anchor="middle" x="301" y="-863.2" font-family="Courier,monospace" font-size="11.00">SummaryCommand</text>
</g>
<!-- \\Siad007\\VersionControl\\HG\\Command\\SummaryCommand&#45;&gt;\\Siad007\\VersionControl\\HG\\Command\\AbstractCommand -->
<g id="edge13" class="edge"><title>\\Siad007\\VersionControl\\HG\\Command\\SummaryCommand&#45;&gt;\\Siad007\\VersionControl\\HG\\Command\\AbstractCommand</title>
<path fill="none" stroke="black" d="M254.538,-847.988C248.843,-845.216 243.198,-842.201 238,-839 198.829,-814.878 158.878,-779.795 133.794,-756.223"/>
<polygon fill="none" stroke="black" points="136.166,-753.649 126.504,-749.303 131.347,-758.726 136.166,-753.649"/>
</g>
<!-- \\Siad007\\VersionControl\\HG\\Command\\InitCommand -->
<g id="node14" class="node"><title>\\Siad007\\VersionControl\\HG\\Command\\InitCommand</title>
<polygon fill="none" stroke="black" points="346.5,-830 255.5,-830 255.5,-794 346.5,-794 346.5,-830"/>
<text text-anchor="middle" x="301" y="-809.2" font-family="Courier,monospace" font-size="11.00">InitCommand</text>
</g>
<!-- \\Siad007\\VersionControl\\HG\\Command\\InitCommand&#45;&gt;\\Siad007\\VersionControl\\HG\\Command\\AbstractCommand -->
<g id="edge14" class="edge"><title>\\Siad007\\VersionControl\\HG\\Command\\InitCommand&#45;&gt;\\Siad007\\VersionControl\\HG\\Command\\AbstractCommand</title>
<path fill="none" stroke="black" d="M256.911,-793.822C228.379,-781.785 190.777,-765.921 160.498,-753.147"/>
<polygon fill="none" stroke="black" points="161.519,-749.78 150.945,-749.117 158.798,-756.229 161.519,-749.78"/>
</g>
<!-- \\Siad007\\VersionControl\\HG\\Command\\BlameCommand -->
<g id="node15" class="node"><title>\\Siad007\\VersionControl\\HG\\Command\\BlameCommand</title>
<polygon fill="none" stroke="black" points="541,-776 443,-776 443,-740 541,-740 541,-776"/>
<text text-anchor="middle" x="492" y="-755.2" font-family="Courier,monospace" font-size="11.00">BlameCommand</text>
</g>
<!-- \\Siad007\\VersionControl\\HG\\Command\\BlameCommand&#45;&gt;\\Siad007\\VersionControl\\HG\\Command\\AnnotateCommand -->
<g id="edge15" class="edge"><title>\\Siad007\\VersionControl\\HG\\Command\\BlameCommand&#45;&gt;\\Siad007\\VersionControl\\HG\\Command\\AnnotateCommand</title>
<path fill="none" stroke="black" d="M442.818,-758C420.808,-758 394.344,-758 370.329,-758"/>
<polygon fill="none" stroke="black" points="370.206,-754.5 360.206,-758 370.206,-761.5 370.206,-754.5"/>
</g>
<!-- \\Siad007\\VersionControl\\HG\\Command\\TagsCommand -->
<g id="node16" class="node"><title>\\Siad007\\VersionControl\\HG\\Command\\TagsCommand</title>
<polygon fill="none" stroke="black" points="537.5,-344 446.5,-344 446.5,-308 537.5,-308 537.5,-344"/>
<text text-anchor="middle" x="492" y="-323.2" font-family="Courier,monospace" font-size="11.00">TagsCommand</text>
</g>
<!-- \\Siad007\\VersionControl\\HG\\Command\\TagsCommand&#45;&gt;\\Siad007\\VersionControl\\HG\\Command\\BaseCommand -->
<g id="edge16" class="edge"><title>\\Siad007\\VersionControl\\HG\\Command\\TagsCommand&#45;&gt;\\Siad007\\VersionControl\\HG\\Command\\BaseCommand</title>
<path fill="none" stroke="black" d="M446.21,-313.203C419.357,-305.53 385.018,-295.719 356.585,-287.596"/>
<polygon fill="none" stroke="black" points="357.373,-284.181 346.796,-284.799 355.45,-290.911 357.373,-284.181"/>
</g>
<!-- \\Siad007\\VersionControl\\HG\\Command\\AddremoveCommand -->
<g id="node17" class="node"><title>\\Siad007\\VersionControl\\HG\\Command\\AddremoveCommand</title>
<polygon fill="none" stroke="black" points="363.5,-722 238.5,-722 238.5,-686 363.5,-686 363.5,-722"/>
<text text-anchor="middle" x="301" y="-701.2" font-family="Courier,monospace" font-size="11.00">AddremoveCommand</text>
</g>
<!-- \\Siad007\\VersionControl\\HG\\Command\\AddremoveCommand&#45;&gt;\\Siad007\\VersionControl\\HG\\Command\\AbstractCommand -->
<g id="edge17" class="edge"><title>\\Siad007\\VersionControl\\HG\\Command\\AddremoveCommand&#45;&gt;\\Siad007\\VersionControl\\HG\\Command\\AbstractCommand</title>
<path fill="none" stroke="black" d="M238.458,-712.654C218.659,-715.439 196.606,-718.54 176.348,-721.389"/>
<polygon fill="none" stroke="black" points="175.669,-717.949 166.254,-722.808 176.644,-724.881 175.669,-717.949"/>
</g>
<!-- \\Siad007\\VersionControl\\HG\\Command\\ManifestCommand -->
<g id="node18" class="node"><title>\\Siad007\\VersionControl\\HG\\Command\\ManifestCommand</title>
<polygon fill="none" stroke="black" points="360,-668 242,-668 242,-632 360,-632 360,-668"/>
<text text-anchor="middle" x="301" y="-647.2" font-family="Courier,monospace" font-size="11.00">ManifestCommand</text>
</g>
<!-- \\Siad007\\VersionControl\\HG\\Command\\ManifestCommand&#45;&gt;\\Siad007\\VersionControl\\HG\\Command\\AbstractCommand -->
<g id="edge18" class="edge"><title>\\Siad007\\VersionControl\\HG\\Command\\ManifestCommand&#45;&gt;\\Siad007\\VersionControl\\HG\\Command\\AbstractCommand</title>
<path fill="none" stroke="black" d="M256.911,-668.178C228.379,-680.215 190.777,-696.079 160.498,-708.853"/>
<polygon fill="none" stroke="black" points="158.798,-705.771 150.945,-712.883 161.519,-712.22 158.798,-705.771"/>
</g>
<!-- \\Siad007\\VersionControl\\HG\\Command\\BranchCommand -->
<g id="node19" class="node"><title>\\Siad007\\VersionControl\\HG\\Command\\BranchCommand</title>
<polygon fill="none" stroke="black" points="353,-614 249,-614 249,-578 353,-578 353,-614"/>
<text text-anchor="middle" x="301" y="-593.2" font-family="Courier,monospace" font-size="11.00">BranchCommand</text>
</g>
<!-- \\Siad007\\VersionControl\\HG\\Command\\BranchCommand&#45;&gt;\\Siad007\\VersionControl\\HG\\Command\\AbstractCommand -->
<g id="edge19" class="edge"><title>\\Siad007\\VersionControl\\HG\\Command\\BranchCommand&#45;&gt;\\Siad007\\VersionControl\\HG\\Command\\AbstractCommand</title>
<path fill="none" stroke="black" d="M254.538,-614.012C248.843,-616.784 243.198,-619.799 238,-623 198.829,-647.122 158.878,-682.205 133.794,-705.777"/>
<polygon fill="none" stroke="black" points="131.347,-703.274 126.504,-712.697 136.166,-708.351 131.347,-703.274"/>
</g>
<!-- \\Siad007\\VersionControl\\HG\\Command\\UpdateCommand -->
<g id="node20" class="node"><title>\\Siad007\\VersionControl\\HG\\Command\\UpdateCommand</title>
<polygon fill="none" stroke="black" points="353,-560 249,-560 249,-524 353,-524 353,-560"/>
<text text-anchor="middle" x="301" y="-539.2" font-family="Courier,monospace" font-size="11.00">UpdateCommand</text>
</g>
<!-- \\Siad007\\VersionControl\\HG\\Command\\UpdateCommand&#45;&gt;\\Siad007\\VersionControl\\HG\\Command\\AbstractCommand -->
<g id="edge20" class="edge"><title>\\Siad007\\VersionControl\\HG\\Command\\UpdateCommand&#45;&gt;\\Siad007\\VersionControl\\HG\\Command\\AbstractCommand</title>
<path fill="none" stroke="black" d="M251.948,-560.077C247.041,-562.748 242.291,-565.72 238,-569 187.899,-607.296 145.585,-668.865 123.797,-704.042"/>
<polygon fill="none" stroke="black" points="120.673,-702.444 118.457,-712.804 126.65,-706.086 120.673,-702.444"/>
</g>
<!-- \\Siad007\\VersionControl\\HG\\Command\\VerifyCommand -->
<g id="node21" class="node"><title>\\Siad007\\VersionControl\\HG\\Command\\VerifyCommand</title>
<polygon fill="none" stroke="black" points="544,-290 440,-290 440,-254 544,-254 544,-290"/>
<text text-anchor="middle" x="492" y="-269.2" font-family="Courier,monospace" font-size="11.00">VerifyCommand</text>
</g>
<!-- \\Siad007\\VersionControl\\HG\\Command\\VerifyCommand&#45;&gt;\\Siad007\\VersionControl\\HG\\Command\\BaseCommand -->
<g id="edge21" class="edge"><title>\\Siad007\\VersionControl\\HG\\Command\\VerifyCommand&#45;&gt;\\Siad007\\VersionControl\\HG\\Command\\BaseCommand</title>
<path fill="none" stroke="black" d="M439.854,-272C414.182,-272 383.06,-272 356.888,-272"/>
<polygon fill="none" stroke="black" points="356.751,-268.5 346.751,-272 356.751,-275.5 356.751,-268.5"/>
</g>
<!-- \\Siad007\\VersionControl\\HG\\Command\\ArchiveCommand -->
<g id="node22" class="node"><title>\\Siad007\\VersionControl\\HG\\Command\\ArchiveCommand</title>
<polygon fill="none" stroke="black" points="356.5,-506 245.5,-506 245.5,-470 356.5,-470 356.5,-506"/>
<text text-anchor="middle" x="301" y="-485.2" font-family="Courier,monospace" font-size="11.00">ArchiveCommand</text>
</g>
<!-- \\Siad007\\VersionControl\\HG\\Command\\ArchiveCommand&#45;&gt;\\Siad007\\VersionControl\\HG\\Command\\AbstractCommand -->
<g id="edge22" class="edge"><title>\\Siad007\\VersionControl\\HG\\Command\\ArchiveCommand&#45;&gt;\\Siad007\\VersionControl\\HG\\Command\\AbstractCommand</title>
<path fill="none" stroke="black" d="M250.543,-506.058C246.066,-508.7 241.796,-511.672 238,-515 176.81,-568.653 135.927,-658.316 118.132,-703.376"/>
<polygon fill="none" stroke="black" points="114.831,-702.209 114.492,-712.799 121.36,-704.732 114.831,-702.209"/>
</g>
<!-- \\Siad007\\VersionControl\\HG\\Command\\AddCommand -->
<g id="node23" class="node"><title>\\Siad007\\VersionControl\\HG\\Command\\AddCommand</title>
<polygon fill="none" stroke="black" points="343,-452 259,-452 259,-416 343,-416 343,-452"/>
<text text-anchor="middle" x="301" y="-431.2" font-family="Courier,monospace" font-size="11.00">AddCommand</text>
</g>
<!-- \\Siad007\\VersionControl\\HG\\Command\\AddCommand&#45;&gt;\\Siad007\\VersionControl\\HG\\Command\\AbstractCommand -->
<g id="edge23" class="edge"><title>\\Siad007\\VersionControl\\HG\\Command\\AddCommand&#45;&gt;\\Siad007\\VersionControl\\HG\\Command\\AbstractCommand</title>
<path fill="none" stroke="black" d="M258.748,-447.021C251.239,-450.699 243.921,-455.3 238,-461 165.441,-530.852 128.28,-649.463 114.474,-703.141"/>
<polygon fill="none" stroke="black" points="111.045,-702.427 112.021,-712.977 117.837,-704.121 111.045,-702.427"/>
</g>
<!-- \\Siad007\\VersionControl\\HG\\Command\\RootCommand -->
<g id="node25" class="node"><title>\\Siad007\\VersionControl\\HG\\Command\\RootCommand</title>
<polygon fill="none" stroke="black" points="537.5,-236 446.5,-236 446.5,-200 537.5,-200 537.5,-236"/>
<text text-anchor="middle" x="492" y="-215.2" font-family="Courier,monospace" font-size="11.00">RootCommand</text>
</g>
<!-- \\Siad007\\VersionControl\\HG\\Command\\RootCommand&#45;&gt;\\Siad007\\VersionControl\\HG\\Command\\BaseCommand -->
<g id="edge24" class="edge"><title>\\Siad007\\VersionControl\\HG\\Command\\RootCommand&#45;&gt;\\Siad007\\VersionControl\\HG\\Command\\BaseCommand</title>
<path fill="none" stroke="black" d="M446.21,-230.797C419.357,-238.47 385.018,-248.281 356.585,-256.404"/>
<polygon fill="none" stroke="black" points="355.45,-253.089 346.796,-259.201 357.373,-259.819 355.45,-253.089"/>
</g>
<!-- \\Siad007\\VersionControl\\HG\\Command\\UnbundleCommand -->
<g id="node26" class="node"><title>\\Siad007\\VersionControl\\HG\\Command\\UnbundleCommand</title>
<polygon fill="none" stroke="black" points="360,-398 242,-398 242,-362 360,-362 360,-398"/>
<text text-anchor="middle" x="301" y="-377.2" font-family="Courier,monospace" font-size="11.00">UnbundleCommand</text>
</g>
<!-- \\Siad007\\VersionControl\\HG\\Command\\UnbundleCommand&#45;&gt;\\Siad007\\VersionControl\\HG\\Command\\AbstractCommand -->
<g id="edge25" class="edge"><title>\\Siad007\\VersionControl\\HG\\Command\\UnbundleCommand&#45;&gt;\\Siad007\\VersionControl\\HG\\Command\\AbstractCommand</title>
<path fill="none" stroke="black" d="M249.056,-398.034C245.035,-400.656 241.272,-403.631 238,-407 153.946,-493.54 122.009,-641.382 111.959,-702.878"/>
<polygon fill="none" stroke="black" points="108.465,-702.569 110.379,-712.989 115.381,-703.65 108.465,-702.569"/>
</g>
<!-- \\Siad007\\VersionControl\\HG\\Command\\CloneCommand -->
<g id="node27" class="node"><title>\\Siad007\\VersionControl\\HG\\Command\\CloneCommand</title>
<polygon fill="none" stroke="black" points="350,-344 252,-344 252,-308 350,-308 350,-344"/>
<text text-anchor="middle" x="301" y="-323.2" font-family="Courier,monospace" font-size="11.00">CloneCommand</text>
</g>
<!-- \\Siad007\\VersionControl\\HG\\Command\\CloneCommand&#45;&gt;\\Siad007\\VersionControl\\HG\\Command\\AbstractCommand -->
<g id="edge26" class="edge"><title>\\Siad007\\VersionControl\\HG\\Command\\CloneCommand&#45;&gt;\\Siad007\\VersionControl\\HG\\Command\\AbstractCommand</title>
<path fill="none" stroke="black" d="M251.908,-341.935C246.775,-345.03 241.983,-348.688 238,-353 142.358,-456.561 116.647,-633.771 110.106,-702.546"/>
<polygon fill="none" stroke="black" points="106.609,-702.355 109.213,-712.625 113.582,-702.973 106.609,-702.355"/>
</g>
<!-- \\Siad007\\VersionControl\\HG\\Command\\VersionCommand -->
<g id="node28" class="node"><title>\\Siad007\\VersionControl\\HG\\Command\\VersionCommand</title>
<polygon fill="none" stroke="black" points="547.5,-182 436.5,-182 436.5,-146 547.5,-146 547.5,-182"/>
<text text-anchor="middle" x="492" y="-161.2" font-family="Courier,monospace" font-size="11.00">VersionCommand</text>
</g>
<!-- \\Siad007\\VersionControl\\HG\\Command\\VersionCommand&#45;&gt;\\Siad007\\VersionControl\\HG\\Command\\BaseCommand -->
<g id="edge27" class="edge"><title>\\Siad007\\VersionControl\\HG\\Command\\VersionCommand&#45;&gt;\\Siad007\\VersionControl\\HG\\Command\\BaseCommand</title>
<path fill="none" stroke="black" d="M451.75,-182.142C446.371,-184.952 440.988,-187.942 436,-191 401.897,-211.905 398.571,-224.879 364,-245 361.346,-246.545 358.587,-248.056 355.772,-249.524"/>
<polygon fill="none" stroke="black" points="354.052,-246.47 346.653,-254.054 357.166,-252.739 354.052,-246.47"/>
</g>
<!-- \\Siad007\\VersionControl\\HG\\Command\\BundleCommand -->
<g id="node29" class="node"><title>\\Siad007\\VersionControl\\HG\\Command\\BundleCommand</title>
<polygon fill="none" stroke="black" points="353,-236 249,-236 249,-200 353,-200 353,-236"/>
<text text-anchor="middle" x="301" y="-215.2" font-family="Courier,monospace" font-size="11.00">BundleCommand</text>
</g>
<!-- \\Siad007\\VersionControl\\HG\\Command\\BundleCommand&#45;&gt;\\Siad007\\VersionControl\\HG\\Command\\AbstractCommand -->
<g id="edge28" class="edge"><title>\\Siad007\\VersionControl\\HG\\Command\\BundleCommand&#45;&gt;\\Siad007\\VersionControl\\HG\\Command\\AbstractCommand</title>
<path fill="none" stroke="black" d="M248.906,-235.425C244.865,-238.18 241.14,-241.352 238,-245 118.576,-383.738 107.562,-621.063 107.494,-702.552"/>
<polygon fill="none" stroke="black" points="103.994,-702.58 107.542,-712.563 110.993,-702.546 103.994,-702.58"/>
</g>
<!-- \\Siad007\\VersionControl\\HG\\Command\\CatCommand -->
<g id="node30" class="node"><title>\\Siad007\\VersionControl\\HG\\Command\\CatCommand</title>
<polygon fill="none" stroke="black" points="343,-182 259,-182 259,-146 343,-146 343,-182"/>
<text text-anchor="middle" x="301" y="-161.2" font-family="Courier,monospace" font-size="11.00">CatCommand</text>
</g>
<!-- \\Siad007\\VersionControl\\HG\\Command\\CatCommand&#45;&gt;\\Siad007\\VersionControl\\HG\\Command\\AbstractCommand -->
<g id="edge29" class="edge"><title>\\Siad007\\VersionControl\\HG\\Command\\CatCommand&#45;&gt;\\Siad007\\VersionControl\\HG\\Command\\AbstractCommand</title>
<path fill="none" stroke="black" d="M258.695,-175.601C250.918,-179.418 243.509,-184.435 238,-191 170.786,-271.097 124.157,-603.023 111.472,-702.622"/>
<polygon fill="none" stroke="black" points="107.965,-702.46 110.19,-712.818 114.91,-703.333 107.965,-702.46"/>
</g>
<!-- \\Siad007\\VersionControl\\HG\\Command\\BookmarksCommand -->
<g id="node31" class="node"><title>\\Siad007\\VersionControl\\HG\\Command\\BookmarksCommand</title>
<polygon fill="none" stroke="black" points="363.5,-128 238.5,-128 238.5,-92 363.5,-92 363.5,-128"/>
<text text-anchor="middle" x="301" y="-107.2" font-family="Courier,monospace" font-size="11.00">BookmarksCommand</text>
</g>
<!-- \\Siad007\\VersionControl\\HG\\Command\\BookmarksCommand&#45;&gt;\\Siad007\\VersionControl\\HG\\Command\\AbstractCommand -->
<g id="edge30" class="edge"><title>\\Siad007\\VersionControl\\HG\\Command\\BookmarksCommand&#45;&gt;\\Siad007\\VersionControl\\HG\\Command\\AbstractCommand</title>
<path fill="none" stroke="black" d="M247.565,-128.102C244.013,-130.693 240.758,-133.644 238,-137 164.7,-226.217 121.746,-596.704 110.799,-702.609"/>
<polygon fill="none" stroke="black" points="107.289,-702.531 109.758,-712.835 114.253,-703.241 107.289,-702.531"/>
</g>
<!-- \\Siad007\\VersionControl\\HG\\Factory -->
<g id="node32" class="node"><title>\\Siad007\\VersionControl\\HG\\Factory</title>
<polygon fill="none" stroke="black" points="524,-76 460,-76 460,-40 524,-40 524,-76"/>
<text text-anchor="middle" x="492" y="-55.2" font-family="Courier,monospace" font-size="11.00">Factory</text>
</g>
</g>
</svg>
