<?xml version="1.0" encoding="UTF-8" standalone="no"?>
<!DOCTYPE svg PUBLIC "-//W3C//DTD SVG 1.1//EN"
 "http://www.w3.org/Graphics/SVG/1.1/DTD/svg11.dtd">
<!-- Generated by graphviz version 2.36.0 (20140111.2315)
 -->
<!-- Title: G Pages: 1 -->
<svg width="558pt" height="1148pt"
 viewBox="0.00 0.00 558.00 1148.00" xmlns="http://www.w3.org/2000/svg" xmlns:xlink="http://www.w3.org/1999/xlink">
<g id="graph0" class="graph" transform="scale(1 1) rotate(0) translate(4 1144)">
<title>G</title>
<polygon fill="white" stroke="none" points="-4,4 -4,-1144 554,-1144 554,4 -4,4"/>
<g id="clust1" class="cluster"><title>cluster_Global</title>
<path fill="none" stroke="gray" d="M20,-8C20,-8 530,-8 530,-8 536,-8 542,-14 542,-20 542,-20 542,-1120 542,-1120 542,-1126 536,-1132 530,-1132 530,-1132 20,-1132 20,-1132 14,-1132 8,-1126 8,-1120 8,-1120 8,-20 8,-20 8,-14 14,-8 20,-8"/>
<text text-anchor="middle" x="275" y="-1119.2" font-family="Times New Roman,serif" font-size="11.00" fill="gray">Global</text>
</g>
<g id="clust2" class="cluster"><title>cluster_\Siad007</title>
<path fill="none" stroke="gray" d="M28,-16C28,-16 522,-16 522,-16 528,-16 534,-22 534,-28 534,-28 534,-1092 534,-1092 534,-1098 528,-1104 522,-1104 522,-1104 28,-1104 28,-1104 22,-1104 16,-1098 16,-1092 16,-1092 16,-28 16,-28 16,-22 22,-16 28,-16"/>
<text text-anchor="middle" x="275" y="-1091.2" font-family="Times New Roman,serif" font-size="11.00" fill="gray">Siad007</text>
</g>
<g id="clust3" class="cluster"><title>cluster_\Siad007\VersionControl</title>
<path fill="none" stroke="gray" d="M36,-24C36,-24 514,-24 514,-24 520,-24 526,-30 526,-36 526,-36 526,-1064 526,-1064 526,-1070 520,-1076 514,-1076 514,-1076 36,-1076 36,-1076 30,-1076 24,-1070 24,-1064 24,-1064 24,-36 24,-36 24,-30 30,-24 36,-24"/>
<text text-anchor="middle" x="275" y="-1063.2" font-family="Times New Roman,serif" font-size="11.00" fill="gray">VersionControl</text>
</g>
<g id="clust4" class="cluster"><title>cluster_\Siad007\VersionControl\HG</title>
<path fill="none" stroke="gray" d="M44,-32C44,-32 506,-32 506,-32 512,-32 518,-38 518,-44 518,-44 518,-1036 518,-1036 518,-1042 512,-1048 506,-1048 506,-1048 44,-1048 44,-1048 38,-1048 32,-1042 32,-1036 32,-1036 32,-44 32,-44 32,-38 38,-32 44,-32"/>
<text text-anchor="middle" x="275" y="-1035.2" font-family="Times New Roman,serif" font-size="11.00" fill="gray">HG</text>
</g>
<g id="clust5" class="cluster"><title>cluster_\Siad007\VersionControl\HG\Command</title>
<path fill="none" stroke="gray" d="M52,-84C52,-84 498,-84 498,-84 504,-84 510,-90 510,-96 510,-96 510,-1008 510,-1008 510,-1014 504,-1020 498,-1020 498,-1020 52,-1020 52,-1020 46,-1020 40,-1014 40,-1008 40,-1008 40,-96 40,-96 40,-90 46,-84 52,-84"/>
<text text-anchor="middle" x="275" y="-1007.2" font-family="Times New Roman,serif" font-size="11.00" fill="gray">Command</text>
</g>
<!-- \\Siad007\\VersionControl\\HG\\Command\\PushCommand -->
<g id="node1" class="node"><title>\\Siad007\\VersionControl\\HG\\Command\\PushCommand</title>
<polygon fill="none" stroke="black" points="318.5,-992 235.5,-992 235.5,-956 318.5,-956 318.5,-992"/>
<text text-anchor="middle" x="277" y="-971.2" font-family="Times New Roman,serif" font-size="11.00">PushCommand</text>
</g>
<!-- \\Siad007\\VersionControl\\HG\\Command\\AbstractCommand -->
<g id="node16" class="node"><title>\\Siad007\\VersionControl\\HG\\Command\\AbstractCommand</title>
<polygon fill="none" stroke="black" points="148,-560 48,-560 48,-524 148,-524 148,-560"/>
<text text-anchor="start" x="75" y="-545.2" font-family="Times New Roman,serif" font-size="11.00">«abstract»</text>
<text text-anchor="start" x="56" y="-533.2" font-family="Times New Roman,serif" font-size="11.00">AbstractCommand</text>
</g>
<!-- \\Siad007\\VersionControl\\HG\\Command\\PushCommand&#45;&gt;\\Siad007\\VersionControl\\HG\\Command\\AbstractCommand -->
<g id="edge1" class="edge"><title>\\Siad007\\VersionControl\\HG\\Command\\PushCommand&#45;&gt;\\Siad007\\VersionControl\\HG\\Command\\AbstractCommand</title>
<path fill="none" stroke="black" d="M235.458,-959.59C229.687,-956.166 224.271,-952.01 220,-947 122.416,-832.529 103.528,-641.721 99.8746,-570.209"/>
<polygon fill="none" stroke="black" points="103.369,-569.999 99.4239,-560.166 96.3758,-570.313 103.369,-569.999"/>
</g>
<!-- \\Siad007\\VersionControl\\HG\\Command\\CommitCommand -->
<g id="node2" class="node"><title>\\Siad007\\VersionControl\\HG\\Command\\CommitCommand</title>
<polygon fill="none" stroke="black" points="325,-938 229,-938 229,-902 325,-902 325,-938"/>
<text text-anchor="middle" x="277" y="-917.2" font-family="Times New Roman,serif" font-size="11.00">CommitCommand</text>
</g>
<!-- \\Siad007\\VersionControl\\HG\\Command\\CommitCommand&#45;&gt;\\Siad007\\VersionControl\\HG\\Command\\AbstractCommand -->
<g id="edge2" class="edge"><title>\\Siad007\\VersionControl\\HG\\Command\\CommitCommand&#45;&gt;\\Siad007\\VersionControl\\HG\\Command\\AbstractCommand</title>
<path fill="none" stroke="black" d="M230.071,-901.854C226.375,-899.247 222.94,-896.307 220,-893 133.967,-796.235 108.448,-635.209 101.448,-570.352"/>
<polygon fill="none" stroke="black" points="104.899,-569.69 100.41,-560.093 97.9341,-570.394 104.899,-569.69"/>
</g>
<!-- \\Siad007\\VersionControl\\HG\\Command\\BaseCommand -->
<g id="node3" class="node"><title>\\Siad007\\VersionControl\\HG\\Command\\BaseCommand</title>
<polygon fill="none" stroke="black" points="319,-344 235,-344 235,-308 319,-308 319,-344"/>
<text text-anchor="middle" x="277" y="-323.2" font-family="Times New Roman,serif" font-size="11.00">BaseCommand</text>
</g>
<!-- \\Siad007\\VersionControl\\HG\\Command\\BaseCommand&#45;&gt;\\Siad007\\VersionControl\\HG\\Command\\AbstractCommand -->
<g id="edge3" class="edge"><title>\\Siad007\\VersionControl\\HG\\Command\\BaseCommand&#45;&gt;\\Siad007\\VersionControl\\HG\\Command\\AbstractCommand</title>
<path fill="none" stroke="black" d="M234.859,-342.514C229.56,-345.57 224.442,-349.062 220,-353 167.344,-399.678 128.76,-474.565 110.601,-514.624"/>
<polygon fill="none" stroke="black" points="107.392,-513.228 106.53,-523.788 113.789,-516.07 107.392,-513.228"/>
</g>
<!-- \\Siad007\\VersionControl\\HG\\Command\\AnnotateCommand -->
<g id="node4" class="node"><title>\\Siad007\\VersionControl\\HG\\Command\\AnnotateCommand</title>
<polygon fill="none" stroke="black" points="328,-614 226,-614 226,-578 328,-578 328,-614"/>
<text text-anchor="middle" x="277" y="-593.2" font-family="Times New Roman,serif" font-size="11.00">AnnotateCommand</text>
</g>
<!-- \\Siad007\\VersionControl\\HG\\Command\\AnnotateCommand&#45;&gt;\\Siad007\\VersionControl\\HG\\Command\\AbstractCommand -->
<g id="edge4" class="edge"><title>\\Siad007\\VersionControl\\HG\\Command\\AnnotateCommand&#45;&gt;\\Siad007\\VersionControl\\HG\\Command\\AbstractCommand</title>
<path fill="none" stroke="black" d="M225.752,-580.67C204.563,-574.206 179.751,-566.636 157.725,-559.916"/>
<polygon fill="none" stroke="black" points="158.736,-556.565 148.15,-556.995 156.694,-563.261 158.736,-556.565"/>
</g>
<!-- \\Siad007\\VersionControl\\HG\\Command\\HeadsCommand -->
<g id="node5" class="node"><title>\\Siad007\\VersionControl\\HG\\Command\\HeadsCommand</title>
<polygon fill="none" stroke="black" points="322,-884 232,-884 232,-848 322,-848 322,-884"/>
<text text-anchor="middle" x="277" y="-863.2" font-family="Times New Roman,serif" font-size="11.00">HeadsCommand</text>
</g>
<!-- \\Siad007\\VersionControl\\HG\\Command\\HeadsCommand&#45;&gt;\\Siad007\\VersionControl\\HG\\Command\\AbstractCommand -->
<g id="edge5" class="edge"><title>\\Siad007\\VersionControl\\HG\\Command\\HeadsCommand&#45;&gt;\\Siad007\\VersionControl\\HG\\Command\\AbstractCommand</title>
<path fill="none" stroke="black" d="M231.915,-848.789C227.559,-845.947 223.473,-842.697 220,-839 145.326,-759.516 114.086,-627.789 103.531,-570.299"/>
<polygon fill="none" stroke="black" points="106.924,-569.383 101.742,-560.142 100.03,-570.598 106.924,-569.383"/>
</g>
<!-- \\Siad007\\VersionControl\\HG\\Command\\PullCommand -->
<g id="node6" class="node"><title>\\Siad007\\VersionControl\\HG\\Command\\PullCommand</title>
<polygon fill="none" stroke="black" points="316,-830 238,-830 238,-794 316,-794 316,-830"/>
<text text-anchor="middle" x="277" y="-809.2" font-family="Times New Roman,serif" font-size="11.00">PullCommand</text>
</g>
<!-- \\Siad007\\VersionControl\\HG\\Command\\PullCommand&#45;&gt;\\Siad007\\VersionControl\\HG\\Command\\AbstractCommand -->
<g id="edge6" class="edge"><title>\\Siad007\\VersionControl\\HG\\Command\\PullCommand&#45;&gt;\\Siad007\\VersionControl\\HG\\Command\\AbstractCommand</title>
<path fill="none" stroke="black" d="M237.914,-797.888C231.434,-794.351 225.146,-790.081 220,-785 156.442,-722.247 120.674,-619.229 106.383,-569.955"/>
<polygon fill="none" stroke="black" points="109.741,-568.965 103.657,-560.291 103.003,-570.865 109.741,-568.965"/>
</g>
<!-- \\Siad007\\VersionControl\\HG\\Command\\PathsCommand -->
<g id="node7" class="node"><title>\\Siad007\\VersionControl\\HG\\Command\\PathsCommand</title>
<polygon fill="none" stroke="black" points="320,-776 234,-776 234,-740 320,-740 320,-776"/>
<text text-anchor="middle" x="277" y="-755.2" font-family="Times New Roman,serif" font-size="11.00">PathsCommand</text>
</g>
<!-- \\Siad007\\VersionControl\\HG\\Command\\PathsCommand&#45;&gt;\\Siad007\\VersionControl\\HG\\Command\\AbstractCommand -->
<g id="edge7" class="edge"><title>\\Siad007\\VersionControl\\HG\\Command\\PathsCommand&#45;&gt;\\Siad007\\VersionControl\\HG\\Command\\AbstractCommand</title>
<path fill="none" stroke="black" d="M233.994,-740.982C229.004,-738.048 224.2,-734.723 220,-731 167.344,-684.322 128.76,-609.435 110.601,-569.376"/>
<polygon fill="none" stroke="black" points="113.789,-567.93 106.53,-560.212 107.392,-570.772 113.789,-567.93"/>
</g>
<!-- \\Siad007\\VersionControl\\HG\\Command\\SummaryCommand -->
<g id="node8" class="node"><title>\\Siad007\\VersionControl\\HG\\Command\\SummaryCommand</title>
<polygon fill="none" stroke="black" points="329,-722 225,-722 225,-686 329,-686 329,-722"/>
<text text-anchor="middle" x="277" y="-701.2" font-family="Times New Roman,serif" font-size="11.00">SummaryCommand</text>
</g>
<!-- \\Siad007\\VersionControl\\HG\\Command\\SummaryCommand&#45;&gt;\\Siad007\\VersionControl\\HG\\Command\\AbstractCommand -->
<g id="edge8" class="edge"><title>\\Siad007\\VersionControl\\HG\\Command\\SummaryCommand&#45;&gt;\\Siad007\\VersionControl\\HG\\Command\\AbstractCommand</title>
<path fill="none" stroke="black" d="M233.954,-685.987C229.078,-683.249 224.314,-680.243 220,-677 178.098,-645.499 139.501,-597.842 117.645,-568.386"/>
<polygon fill="none" stroke="black" points="120.405,-566.231 111.675,-560.229 114.756,-570.365 120.405,-566.231"/>
</g>
<!-- \\Siad007\\VersionControl\\HG\\Command\\InitCommand -->
<g id="node9" class="node"><title>\\Siad007\\VersionControl\\HG\\Command\\InitCommand</title>
<polygon fill="none" stroke="black" points="315,-668 239,-668 239,-632 315,-632 315,-668"/>
<text text-anchor="middle" x="277" y="-647.2" font-family="Times New Roman,serif" font-size="11.00">InitCommand</text>
</g>
<!-- \\Siad007\\VersionControl\\HG\\Command\\InitCommand&#45;&gt;\\Siad007\\VersionControl\\HG\\Command\\AbstractCommand -->
<g id="edge9" class="edge"><title>\\Siad007\\VersionControl\\HG\\Command\\InitCommand&#45;&gt;\\Siad007\\VersionControl\\HG\\Command\\AbstractCommand</title>
<path fill="none" stroke="black" d="M238.868,-633.007C232.494,-629.832 225.996,-626.43 220,-623 189.317,-605.449 156.054,-582.906 132.182,-566.059"/>
<polygon fill="none" stroke="black" points="134.014,-563.068 123.835,-560.131 129.961,-568.775 134.014,-563.068"/>
</g>
<!-- \\Siad007\\VersionControl\\HG\\Command\\BlameCommand -->
<g id="node10" class="node"><title>\\Siad007\\VersionControl\\HG\\Command\\BlameCommand</title>
<polygon fill="none" stroke="black" points="499,-614 409,-614 409,-578 499,-578 499,-614"/>
<text text-anchor="middle" x="454" y="-593.2" font-family="Times New Roman,serif" font-size="11.00">BlameCommand</text>
</g>
<!-- \\Siad007\\VersionControl\\HG\\Command\\BlameCommand&#45;&gt;\\Siad007\\VersionControl\\HG\\Command\\AnnotateCommand -->
<g id="edge10" class="edge"><title>\\Siad007\\VersionControl\\HG\\Command\\BlameCommand&#45;&gt;\\Siad007\\VersionControl\\HG\\Command\\AnnotateCommand</title>
<path fill="none" stroke="black" d="M408.84,-596C387.407,-596 361.332,-596 338.117,-596"/>
<polygon fill="none" stroke="black" points="338.024,-592.5 328.024,-596 338.023,-599.5 338.024,-592.5"/>
</g>
<!-- \\Siad007\\VersionControl\\HG\\Command\\TagsCommand -->
<g id="node11" class="node"><title>\\Siad007\\VersionControl\\HG\\Command\\TagsCommand</title>
<polygon fill="none" stroke="black" points="495.5,-425 412.5,-425 412.5,-389 495.5,-389 495.5,-425"/>
<text text-anchor="middle" x="454" y="-404.2" font-family="Times New Roman,serif" font-size="11.00">TagsCommand</text>
</g>
<!-- \\Siad007\\VersionControl\\HG\\Command\\TagsCommand&#45;&gt;\\Siad007\\VersionControl\\HG\\Command\\BaseCommand -->
<g id="edge11" class="edge"><title>\\Siad007\\VersionControl\\HG\\Command\\TagsCommand&#45;&gt;\\Siad007\\VersionControl\\HG\\Command\\BaseCommand</title>
<path fill="none" stroke="black" d="M413.727,-388.822C387.945,-376.889 354.041,-361.196 326.568,-348.48"/>
<polygon fill="none" stroke="black" points="327.688,-345.142 317.142,-344.117 324.747,-351.494 327.688,-345.142"/>
</g>
<!-- \\Siad007\\VersionControl\\HG\\Command\\AddremoveCommand -->
<g id="node12" class="node"><title>\\Siad007\\VersionControl\\HG\\Command\\AddremoveCommand</title>
<polygon fill="none" stroke="black" points="333.5,-560 220.5,-560 220.5,-524 333.5,-524 333.5,-560"/>
<text text-anchor="middle" x="277" y="-539.2" font-family="Times New Roman,serif" font-size="11.00">AddremoveCommand</text>
</g>
<!-- \\Siad007\\VersionControl\\HG\\Command\\AddremoveCommand&#45;&gt;\\Siad007\\VersionControl\\HG\\Command\\AbstractCommand -->
<g id="edge12" class="edge"><title>\\Siad007\\VersionControl\\HG\\Command\\AddremoveCommand&#45;&gt;\\Siad007\\VersionControl\\HG\\Command\\AbstractCommand</title>
<path fill="none" stroke="black" d="M220.482,-542C200.711,-542 178.378,-542 158.302,-542"/>
<polygon fill="none" stroke="black" points="158.035,-538.5 148.035,-542 158.035,-545.5 158.035,-538.5"/>
</g>
<!-- \\Siad007\\VersionControl\\HG\\Command\\UpdateCommand -->
<g id="node13" class="node"><title>\\Siad007\\VersionControl\\HG\\Command\\UpdateCommand</title>
<polygon fill="none" stroke="black" points="324,-506 230,-506 230,-470 324,-470 324,-506"/>
<text text-anchor="middle" x="277" y="-485.2" font-family="Times New Roman,serif" font-size="11.00">UpdateCommand</text>
</g>
<!-- \\Siad007\\VersionControl\\HG\\Command\\UpdateCommand&#45;&gt;\\Siad007\\VersionControl\\HG\\Command\\AbstractCommand -->
<g id="edge13" class="edge"><title>\\Siad007\\VersionControl\\HG\\Command\\UpdateCommand&#45;&gt;\\Siad007\\VersionControl\\HG\\Command\\AbstractCommand</title>
<path fill="none" stroke="black" d="M229.957,-502.047C207.999,-508.746 181.47,-516.84 158.048,-523.985"/>
<polygon fill="none" stroke="black" points="156.766,-520.717 148.223,-526.983 158.809,-527.412 156.766,-520.717"/>
</g>
<!-- \\Siad007\\VersionControl\\HG\\Command\\VerifyCommand -->
<g id="node14" class="node"><title>\\Siad007\\VersionControl\\HG\\Command\\VerifyCommand</title>
<polygon fill="none" stroke="black" points="499,-371 409,-371 409,-335 499,-335 499,-371"/>
<text text-anchor="middle" x="454" y="-350.2" font-family="Times New Roman,serif" font-size="11.00">VerifyCommand</text>
</g>
<!-- \\Siad007\\VersionControl\\HG\\Command\\VerifyCommand&#45;&gt;\\Siad007\\VersionControl\\HG\\Command\\BaseCommand -->
<g id="edge14" class="edge"><title>\\Siad007\\VersionControl\\HG\\Command\\VerifyCommand&#45;&gt;\\Siad007\\VersionControl\\HG\\Command\\BaseCommand</title>
<path fill="none" stroke="black" d="M408.84,-346.187C384.634,-342.452 354.508,-337.804 329.267,-333.91"/>
<polygon fill="none" stroke="black" points="329.557,-330.413 319.14,-332.347 328.49,-337.331 329.557,-330.413"/>
</g>
<!-- \\Siad007\\VersionControl\\HG\\Command\\AddCommand -->
<g id="node15" class="node"><title>\\Siad007\\VersionControl\\HG\\Command\\AddCommand</title>
<polygon fill="none" stroke="black" points="317,-452 237,-452 237,-416 317,-416 317,-452"/>
<text text-anchor="middle" x="277" y="-431.2" font-family="Times New Roman,serif" font-size="11.00">AddCommand</text>
</g>
<!-- \\Siad007\\VersionControl\\HG\\Command\\AddCommand&#45;&gt;\\Siad007\\VersionControl\\HG\\Command\\AbstractCommand -->
<g id="edge15" class="edge"><title>\\Siad007\\VersionControl\\HG\\Command\\AddCommand&#45;&gt;\\Siad007\\VersionControl\\HG\\Command\\AbstractCommand</title>
<path fill="none" stroke="black" d="M236.773,-452.043C231.079,-454.912 225.34,-457.945 220,-461 189.317,-478.551 156.054,-501.094 132.182,-517.941"/>
<polygon fill="none" stroke="black" points="129.961,-515.225 123.835,-523.869 134.014,-520.932 129.961,-515.225"/>
</g>
<!-- \\Siad007\\VersionControl\\HG\\Command\\RootCommand -->
<g id="node17" class="node"><title>\\Siad007\\VersionControl\\HG\\Command\\RootCommand</title>
<polygon fill="none" stroke="black" points="495.5,-317 412.5,-317 412.5,-281 495.5,-281 495.5,-317"/>
<text text-anchor="middle" x="454" y="-296.2" font-family="Times New Roman,serif" font-size="11.00">RootCommand</text>
</g>
<!-- \\Siad007\\VersionControl\\HG\\Command\\RootCommand&#45;&gt;\\Siad007\\VersionControl\\HG\\Command\\BaseCommand -->
<g id="edge16" class="edge"><title>\\Siad007\\VersionControl\\HG\\Command\\RootCommand&#45;&gt;\\Siad007\\VersionControl\\HG\\Command\\BaseCommand</title>
<path fill="none" stroke="black" d="M412.412,-305.262C387.72,-309.072 355.954,-313.973 329.502,-318.054"/>
<polygon fill="none" stroke="black" points="328.628,-314.647 319.279,-319.631 329.695,-321.565 328.628,-314.647"/>
</g>
<!-- \\Siad007\\VersionControl\\HG\\Command\\CloneCommand -->
<g id="node18" class="node"><title>\\Siad007\\VersionControl\\HG\\Command\\CloneCommand</title>
<polygon fill="none" stroke="black" points="320.5,-398 233.5,-398 233.5,-362 320.5,-362 320.5,-398"/>
<text text-anchor="middle" x="277" y="-377.2" font-family="Times New Roman,serif" font-size="11.00">CloneCommand</text>
</g>
<!-- \\Siad007\\VersionControl\\HG\\Command\\CloneCommand&#45;&gt;\\Siad007\\VersionControl\\HG\\Command\\AbstractCommand -->
<g id="edge17" class="edge"><title>\\Siad007\\VersionControl\\HG\\Command\\CloneCommand&#45;&gt;\\Siad007\\VersionControl\\HG\\Command\\AbstractCommand</title>
<path fill="none" stroke="black" d="M233.954,-398.013C229.078,-400.751 224.314,-403.757 220,-407 178.098,-438.501 139.501,-486.158 117.645,-515.614"/>
<polygon fill="none" stroke="black" points="114.756,-513.635 111.675,-523.771 120.405,-517.769 114.756,-513.635"/>
</g>
<!-- \\Siad007\\VersionControl\\HG\\Command\\VersionCommand -->
<g id="node19" class="node"><title>\\Siad007\\VersionControl\\HG\\Command\\VersionCommand</title>
<polygon fill="none" stroke="black" points="502,-263 406,-263 406,-227 502,-227 502,-263"/>
<text text-anchor="middle" x="454" y="-242.2" font-family="Times New Roman,serif" font-size="11.00">VersionCommand</text>
</g>
<!-- \\Siad007\\VersionControl\\HG\\Command\\VersionCommand&#45;&gt;\\Siad007\\VersionControl\\HG\\Command\\BaseCommand -->
<g id="edge18" class="edge"><title>\\Siad007\\VersionControl\\HG\\Command\\VersionCommand&#45;&gt;\\Siad007\\VersionControl\\HG\\Command\\BaseCommand</title>
<path fill="none" stroke="black" d="M413.727,-263.178C387.945,-275.111 354.041,-290.804 326.568,-303.52"/>
<polygon fill="none" stroke="black" points="324.747,-300.506 317.142,-307.883 327.688,-306.858 324.747,-300.506"/>
</g>
<!-- \\Siad007\\VersionControl\\HG\\Command\\CatCommand -->
<g id="node20" class="node"><title>\\Siad007\\VersionControl\\HG\\Command\\CatCommand</title>
<polygon fill="none" stroke="black" points="315.5,-290 238.5,-290 238.5,-254 315.5,-254 315.5,-290"/>
<text text-anchor="middle" x="277" y="-269.2" font-family="Times New Roman,serif" font-size="11.00">CatCommand</text>
</g>
<!-- \\Siad007\\VersionControl\\HG\\Command\\CatCommand&#45;&gt;\\Siad007\\VersionControl\\HG\\Command\\AbstractCommand -->
<g id="edge19" class="edge"><title>\\Siad007\\VersionControl\\HG\\Command\\CatCommand&#45;&gt;\\Siad007\\VersionControl\\HG\\Command\\AbstractCommand</title>
<path fill="none" stroke="black" d="M238.495,-285.797C231.81,-289.394 225.3,-293.768 220,-299 156.442,-361.753 120.674,-464.771 106.383,-514.045"/>
<polygon fill="none" stroke="black" points="103.003,-513.135 103.657,-523.709 109.741,-515.035 103.003,-513.135"/>
</g>
<!-- \\Siad007\\VersionControl\\HG\\Command\\BundleCommand -->
<g id="node21" class="node"><title>\\Siad007\\VersionControl\\HG\\Command\\BundleCommand</title>
<polygon fill="none" stroke="black" points="323,-236 231,-236 231,-200 323,-200 323,-236"/>
<text text-anchor="middle" x="277" y="-215.2" font-family="Times New Roman,serif" font-size="11.00">BundleCommand</text>
</g>
<!-- \\Siad007\\VersionControl\\HG\\Command\\BundleCommand&#45;&gt;\\Siad007\\VersionControl\\HG\\Command\\AbstractCommand -->
<g id="edge20" class="edge"><title>\\Siad007\\VersionControl\\HG\\Command\\BundleCommand&#45;&gt;\\Siad007\\VersionControl\\HG\\Command\\AbstractCommand</title>
<path fill="none" stroke="black" d="M230.809,-235.946C226.868,-238.61 223.178,-241.617 220,-245 145.326,-324.484 114.086,-456.211 103.531,-513.701"/>
<polygon fill="none" stroke="black" points="100.03,-513.402 101.742,-523.858 106.924,-514.617 100.03,-513.402"/>
</g>
<!-- \\Siad007\\VersionControl\\HG\\Command\\ManifestCommand -->
<g id="node22" class="node"><title>\\Siad007\\VersionControl\\HG\\Command\\ManifestCommand</title>
<polygon fill="none" stroke="black" points="327.5,-182 226.5,-182 226.5,-146 327.5,-146 327.5,-182"/>
<text text-anchor="middle" x="277" y="-161.2" font-family="Times New Roman,serif" font-size="11.00">ManifestCommand</text>
</g>
<!-- \\Siad007\\VersionControl\\HG\\Command\\ManifestCommand&#45;&gt;\\Siad007\\VersionControl\\HG\\Command\\AbstractCommand -->
<g id="edge21" class="edge"><title>\\Siad007\\VersionControl\\HG\\Command\\ManifestCommand&#45;&gt;\\Siad007\\VersionControl\\HG\\Command\\AbstractCommand</title>
<path fill="none" stroke="black" d="M230.071,-182.146C226.375,-184.753 222.94,-187.693 220,-191 133.967,-287.765 108.448,-448.791 101.448,-513.648"/>
<polygon fill="none" stroke="black" points="97.9341,-513.606 100.41,-523.907 104.899,-514.31 97.9341,-513.606"/>
</g>
<!-- \\Siad007\\VersionControl\\HG\\Command\\UnbundleCommand -->
<g id="node23" class="node"><title>\\Siad007\\VersionControl\\HG\\Command\\UnbundleCommand</title>
<polygon fill="none" stroke="black" points="329,-128 225,-128 225,-92 329,-92 329,-128"/>
<text text-anchor="middle" x="277" y="-107.2" font-family="Times New Roman,serif" font-size="11.00">UnbundleCommand</text>
</g>
<!-- \\Siad007\\VersionControl\\HG\\Command\\UnbundleCommand&#45;&gt;\\Siad007\\VersionControl\\HG\\Command\\AbstractCommand -->
<g id="edge22" class="edge"><title>\\Siad007\\VersionControl\\HG\\Command\\UnbundleCommand&#45;&gt;\\Siad007\\VersionControl\\HG\\Command\\AbstractCommand</title>
<path fill="none" stroke="black" d="M229.924,-128.018C226.259,-130.651 222.871,-133.632 220,-137 122.416,-251.471 103.528,-442.279 99.8746,-513.791"/>
<polygon fill="none" stroke="black" points="96.3758,-513.687 99.4239,-523.834 103.369,-514.001 96.3758,-513.687"/>
</g>
<!-- \\Siad007\\VersionControl\\HG\\Factory -->
<g id="node24" class="node"><title>\\Siad007\\VersionControl\\HG\\Factory</title>
<polygon fill="none" stroke="black" points="481,-76 427,-76 427,-40 481,-40 481,-76"/>
<text text-anchor="middle" x="454" y="-55.2" font-family="Times New Roman,serif" font-size="11.00">Factory</text>
</g>
</g>
</svg>
