<?xml version="1.0" encoding="UTF-8" standalone="no"?>
<!DOCTYPE svg PUBLIC "-//W3C//DTD SVG 1.1//EN"
 "http://www.w3.org/Graphics/SVG/1.1/DTD/svg11.dtd">
<!-- Generated by graphviz version 2.36.0 (20140111.2315)
 -->
<!-- Title: G Pages: 1 -->
<svg width="604pt" height="1256pt"
 viewBox="0.00 0.00 604.00 1256.00" xmlns="http://www.w3.org/2000/svg" xmlns:xlink="http://www.w3.org/1999/xlink">
<g id="graph0" class="graph" transform="scale(1 1) rotate(0) translate(4 1252)">
<title>G</title>
<polygon fill="white" stroke="none" points="-4,4 -4,-1252 600,-1252 600,4 -4,4"/>
<g id="clust1" class="cluster"><title>cluster_Global</title>
<path fill="none" stroke="gray" d="M20,-8C20,-8 576,-8 576,-8 582,-8 588,-14 588,-20 588,-20 588,-1228 588,-1228 588,-1234 582,-1240 576,-1240 576,-1240 20,-1240 20,-1240 14,-1240 8,-1234 8,-1228 8,-1228 8,-20 8,-20 8,-14 14,-8 20,-8"/>
<text text-anchor="middle" x="298" y="-1227.2" font-family="Times New Roman,serif" font-size="11.00" fill="gray">Global</text>
</g>
<g id="clust2" class="cluster"><title>cluster_\Siad007</title>
<path fill="none" stroke="gray" d="M28,-16C28,-16 568,-16 568,-16 574,-16 580,-22 580,-28 580,-28 580,-1200 580,-1200 580,-1206 574,-1212 568,-1212 568,-1212 28,-1212 28,-1212 22,-1212 16,-1206 16,-1200 16,-1200 16,-28 16,-28 16,-22 22,-16 28,-16"/>
<text text-anchor="middle" x="298" y="-1199.2" font-family="Times New Roman,serif" font-size="11.00" fill="gray">Siad007</text>
</g>
<g id="clust3" class="cluster"><title>cluster_\Siad007\VersionControl</title>
<path fill="none" stroke="gray" d="M36,-24C36,-24 560,-24 560,-24 566,-24 572,-30 572,-36 572,-36 572,-1172 572,-1172 572,-1178 566,-1184 560,-1184 560,-1184 36,-1184 36,-1184 30,-1184 24,-1178 24,-1172 24,-1172 24,-36 24,-36 24,-30 30,-24 36,-24"/>
<text text-anchor="middle" x="298" y="-1171.2" font-family="Times New Roman,serif" font-size="11.00" fill="gray">VersionControl</text>
</g>
<g id="clust4" class="cluster"><title>cluster_\Siad007\VersionControl\HG</title>
<path fill="none" stroke="gray" d="M44,-32C44,-32 552,-32 552,-32 558,-32 564,-38 564,-44 564,-44 564,-1144 564,-1144 564,-1150 558,-1156 552,-1156 552,-1156 44,-1156 44,-1156 38,-1156 32,-1150 32,-1144 32,-1144 32,-44 32,-44 32,-38 38,-32 44,-32"/>
<text text-anchor="middle" x="298" y="-1143.2" font-family="Times New Roman,serif" font-size="11.00" fill="gray">HG</text>
</g>
<g id="clust5" class="cluster"><title>cluster_\Siad007\VersionControl\HG\Command</title>
<path fill="none" stroke="gray" d="M52,-84C52,-84 544,-84 544,-84 550,-84 556,-90 556,-96 556,-96 556,-1116 556,-1116 556,-1122 550,-1128 544,-1128 544,-1128 52,-1128 52,-1128 46,-1128 40,-1122 40,-1116 40,-1116 40,-96 40,-96 40,-90 46,-84 52,-84"/>
<text text-anchor="middle" x="298" y="-1115.2" font-family="Times New Roman,serif" font-size="11.00" fill="gray">Command</text>
</g>
<!-- \\Siad007\\VersionControl\\HG\\Command\\PushCommand -->
<g id="node1" class="node"><title>\\Siad007\\VersionControl\\HG\\Command\\PushCommand</title>
<polygon fill="none" stroke="black" points="346.5,-1100 255.5,-1100 255.5,-1064 346.5,-1064 346.5,-1100"/>
<text text-anchor="middle" x="301" y="-1079.2" font-family="Courier,monospace" font-size="11.00">PushCommand</text>
</g>
<!-- \\Siad007\\VersionControl\\HG\\Command\\AbstractCommand -->
<g id="node19" class="node"><title>\\Siad007\\VersionControl\\HG\\Command\\AbstractCommand</title>
<polygon fill="none" stroke="black" points="166,-614 48,-614 48,-578 166,-578 166,-614"/>
<text text-anchor="start" x="73" y="-599.2" font-family="Courier,monospace" font-size="11.00">«abstract»</text>
<text text-anchor="start" x="56" y="-587.2" font-family="Courier,monospace" font-size="11.00">AbstractCommand</text>
</g>
<!-- \\Siad007\\VersionControl\\HG\\Command\\PushCommand&#45;&gt;\\Siad007\\VersionControl\\HG\\Command\\AbstractCommand -->
<g id="edge1" class="edge"><title>\\Siad007\\VersionControl\\HG\\Command\\PushCommand&#45;&gt;\\Siad007\\VersionControl\\HG\\Command\\AbstractCommand</title>
<path fill="none" stroke="black" d="M255.399,-1068.43C248.895,-1064.89 242.789,-1060.48 238,-1055 124.55,-925.135 109.648,-702.895 108.039,-624.441"/>
<polygon fill="none" stroke="black" points="111.537,-624.298 107.891,-614.35 104.538,-624.4 111.537,-624.298"/>
</g>
<!-- \\Siad007\\VersionControl\\HG\\Command\\CommitCommand -->
<g id="node2" class="node"><title>\\Siad007\\VersionControl\\HG\\Command\\CommitCommand</title>
<polygon fill="none" stroke="black" points="353,-1046 249,-1046 249,-1010 353,-1010 353,-1046"/>
<text text-anchor="middle" x="301" y="-1025.2" font-family="Courier,monospace" font-size="11.00">CommitCommand</text>
</g>
<!-- \\Siad007\\VersionControl\\HG\\Command\\CommitCommand&#45;&gt;\\Siad007\\VersionControl\\HG\\Command\\AbstractCommand -->
<g id="edge2" class="edge"><title>\\Siad007\\VersionControl\\HG\\Command\\CommitCommand&#45;&gt;\\Siad007\\VersionControl\\HG\\Command\\AbstractCommand</title>
<path fill="none" stroke="black" d="M248.796,-1010.21C244.83,-1007.54 241.15,-1004.48 238,-1001 136.457,-888.745 114.179,-696.604 109.333,-624.473"/>
<polygon fill="none" stroke="black" points="112.817,-624.11 108.716,-614.341 105.83,-624.535 112.817,-624.11"/>
</g>
<!-- \\Siad007\\VersionControl\\HG\\Command\\BaseCommand -->
<g id="node3" class="node"><title>\\Siad007\\VersionControl\\HG\\Command\\BaseCommand</title>
<polygon fill="none" stroke="black" points="346.5,-236 255.5,-236 255.5,-200 346.5,-200 346.5,-236"/>
<text text-anchor="middle" x="301" y="-215.2" font-family="Courier,monospace" font-size="11.00">BaseCommand</text>
</g>
<!-- \\Siad007\\VersionControl\\HG\\Command\\BaseCommand&#45;&gt;\\Siad007\\VersionControl\\HG\\Command\\AbstractCommand -->
<g id="edge3" class="edge"><title>\\Siad007\\VersionControl\\HG\\Command\\BaseCommand&#45;&gt;\\Siad007\\VersionControl\\HG\\Command\\AbstractCommand</title>
<path fill="none" stroke="black" d="M255.447,-232.074C249.016,-235.539 242.92,-239.796 238,-245 148.132,-340.048 119.216,-502.637 110.961,-567.786"/>
<polygon fill="none" stroke="black" points="107.484,-567.386 109.767,-577.732 114.434,-568.22 107.484,-567.386"/>
</g>
<!-- \\Siad007\\VersionControl\\HG\\Command\\AnnotateCommand -->
<g id="node4" class="node"><title>\\Siad007\\VersionControl\\HG\\Command\\AnnotateCommand</title>
<polygon fill="none" stroke="black" points="360,-668 242,-668 242,-632 360,-632 360,-668"/>
<text text-anchor="middle" x="301" y="-647.2" font-family="Courier,monospace" font-size="11.00">AnnotateCommand</text>
</g>
<!-- \\Siad007\\VersionControl\\HG\\Command\\AnnotateCommand&#45;&gt;\\Siad007\\VersionControl\\HG\\Command\\AbstractCommand -->
<g id="edge4" class="edge"><title>\\Siad007\\VersionControl\\HG\\Command\\AnnotateCommand&#45;&gt;\\Siad007\\VersionControl\\HG\\Command\\AbstractCommand</title>
<path fill="none" stroke="black" d="M241.873,-633.652C221.103,-627.81 197.516,-621.176 175.989,-615.122"/>
<polygon fill="none" stroke="black" points="176.835,-611.724 166.261,-612.386 174.94,-618.463 176.835,-611.724"/>
</g>
<!-- \\Siad007\\VersionControl\\HG\\Command\\HeadsCommand -->
<g id="node5" class="node"><title>\\Siad007\\VersionControl\\HG\\Command\\HeadsCommand</title>
<polygon fill="none" stroke="black" points="350,-992 252,-992 252,-956 350,-956 350,-992"/>
<text text-anchor="middle" x="301" y="-971.2" font-family="Courier,monospace" font-size="11.00">HeadsCommand</text>
</g>
<!-- \\Siad007\\VersionControl\\HG\\Command\\HeadsCommand&#45;&gt;\\Siad007\\VersionControl\\HG\\Command\\AbstractCommand -->
<g id="edge5" class="edge"><title>\\Siad007\\VersionControl\\HG\\Command\\HeadsCommand&#45;&gt;\\Siad007\\VersionControl\\HG\\Command\\AbstractCommand</title>
<path fill="none" stroke="black" d="M251.697,-957.788C246.663,-954.749 241.952,-951.18 238,-947 148.132,-851.952 119.216,-689.363 110.961,-624.214"/>
<polygon fill="none" stroke="black" points="114.434,-623.78 109.767,-614.268 107.484,-624.614 114.434,-623.78"/>
</g>
<!-- \\Siad007\\VersionControl\\HG\\Command\\PullCommand -->
<g id="node6" class="node"><title>\\Siad007\\VersionControl\\HG\\Command\\PullCommand</title>
<polygon fill="none" stroke="black" points="346.5,-938 255.5,-938 255.5,-902 346.5,-902 346.5,-938"/>
<text text-anchor="middle" x="301" y="-917.2" font-family="Courier,monospace" font-size="11.00">PullCommand</text>
</g>
<!-- \\Siad007\\VersionControl\\HG\\Command\\PullCommand&#45;&gt;\\Siad007\\VersionControl\\HG\\Command\\AbstractCommand -->
<g id="edge6" class="edge"><title>\\Siad007\\VersionControl\\HG\\Command\\PullCommand&#45;&gt;\\Siad007\\VersionControl\\HG\\Command\\AbstractCommand</title>
<path fill="none" stroke="black" d="M255.388,-905.505C249.04,-902.103 242.986,-897.976 238,-893 159.806,-814.952 125.096,-681.988 113.157,-624.203"/>
<polygon fill="none" stroke="black" points="116.574,-623.441 111.187,-614.318 109.709,-624.809 116.574,-623.441"/>
</g>
<!-- \\Siad007\\VersionControl\\HG\\Command\\TagCommand -->
<g id="node7" class="node"><title>\\Siad007\\VersionControl\\HG\\Command\\TagCommand</title>
<polygon fill="none" stroke="black" points="343,-884 259,-884 259,-848 343,-848 343,-884"/>
<text text-anchor="middle" x="301" y="-863.2" font-family="Courier,monospace" font-size="11.00">TagCommand</text>
</g>
<!-- \\Siad007\\VersionControl\\HG\\Command\\TagCommand&#45;&gt;\\Siad007\\VersionControl\\HG\\Command\\AbstractCommand -->
<g id="edge7" class="edge"><title>\\Siad007\\VersionControl\\HG\\Command\\TagCommand&#45;&gt;\\Siad007\\VersionControl\\HG\\Command\\AbstractCommand</title>
<path fill="none" stroke="black" d="M258.938,-852.777C251.413,-849.116 244.04,-844.573 238,-839 171.189,-777.364 131.944,-673.377 116.147,-623.846"/>
<polygon fill="none" stroke="black" points="119.44,-622.649 113.131,-614.138 112.756,-624.726 119.44,-622.649"/>
</g>
<!-- \\Siad007\\VersionControl\\HG\\Command\\PathsCommand -->
<g id="node8" class="node"><title>\\Siad007\\VersionControl\\HG\\Command\\PathsCommand</title>
<polygon fill="none" stroke="black" points="350,-830 252,-830 252,-794 350,-794 350,-830"/>
<text text-anchor="middle" x="301" y="-809.2" font-family="Courier,monospace" font-size="11.00">PathsCommand</text>
</g>
<!-- \\Siad007\\VersionControl\\HG\\Command\\PathsCommand&#45;&gt;\\Siad007\\VersionControl\\HG\\Command\\AbstractCommand -->
<g id="edge8" class="edge"><title>\\Siad007\\VersionControl\\HG\\Command\\PathsCommand&#45;&gt;\\Siad007\\VersionControl\\HG\\Command\\AbstractCommand</title>
<path fill="none" stroke="black" d="M251.698,-794.237C246.838,-791.508 242.167,-788.436 238,-785 182.361,-739.126 140.393,-663.593 120.592,-623.306"/>
<polygon fill="none" stroke="black" points="123.647,-621.584 116.151,-614.097 117.342,-624.624 123.647,-621.584"/>
</g>
<!-- \\Siad007\\VersionControl\\HG\\Command\\SummaryCommand -->
<g id="node9" class="node"><title>\\Siad007\\VersionControl\\HG\\Command\\SummaryCommand</title>
<polygon fill="none" stroke="black" points="356.5,-776 245.5,-776 245.5,-740 356.5,-740 356.5,-776"/>
<text text-anchor="middle" x="301" y="-755.2" font-family="Courier,monospace" font-size="11.00">SummaryCommand</text>
</g>
<!-- \\Siad007\\VersionControl\\HG\\Command\\SummaryCommand&#45;&gt;\\Siad007\\VersionControl\\HG\\Command\\AbstractCommand -->
<g id="edge9" class="edge"><title>\\Siad007\\VersionControl\\HG\\Command\\SummaryCommand&#45;&gt;\\Siad007\\VersionControl\\HG\\Command\\AbstractCommand</title>
<path fill="none" stroke="black" d="M252.885,-739.862C247.699,-737.176 242.627,-734.217 238,-731 193.502,-700.065 151.877,-652.238 128.222,-622.594"/>
<polygon fill="none" stroke="black" points="130.693,-620.073 121.757,-614.381 125.192,-624.403 130.693,-620.073"/>
</g>
<!-- \\Siad007\\VersionControl\\HG\\Command\\InitCommand -->
<g id="node10" class="node"><title>\\Siad007\\VersionControl\\HG\\Command\\InitCommand</title>
<polygon fill="none" stroke="black" points="346.5,-722 255.5,-722 255.5,-686 346.5,-686 346.5,-722"/>
<text text-anchor="middle" x="301" y="-701.2" font-family="Courier,monospace" font-size="11.00">InitCommand</text>
</g>
<!-- \\Siad007\\VersionControl\\HG\\Command\\InitCommand&#45;&gt;\\Siad007\\VersionControl\\HG\\Command\\AbstractCommand -->
<g id="edge10" class="edge"><title>\\Siad007\\VersionControl\\HG\\Command\\InitCommand&#45;&gt;\\Siad007\\VersionControl\\HG\\Command\\AbstractCommand</title>
<path fill="none" stroke="black" d="M256.258,-685.912C250.06,-683.072 243.82,-680.059 238,-677 204.943,-659.623 169.031,-636.934 143.346,-619.991"/>
<polygon fill="none" stroke="black" points="144.975,-616.872 134.708,-614.256 141.103,-622.704 144.975,-616.872"/>
</g>
<!-- \\Siad007\\VersionControl\\HG\\Command\\BlameCommand -->
<g id="node11" class="node"><title>\\Siad007\\VersionControl\\HG\\Command\\BlameCommand</title>
<polygon fill="none" stroke="black" points="541,-668 443,-668 443,-632 541,-632 541,-668"/>
<text text-anchor="middle" x="492" y="-647.2" font-family="Courier,monospace" font-size="11.00">BlameCommand</text>
</g>
<!-- \\Siad007\\VersionControl\\HG\\Command\\BlameCommand&#45;&gt;\\Siad007\\VersionControl\\HG\\Command\\AnnotateCommand -->
<g id="edge11" class="edge"><title>\\Siad007\\VersionControl\\HG\\Command\\BlameCommand&#45;&gt;\\Siad007\\VersionControl\\HG\\Command\\AnnotateCommand</title>
<path fill="none" stroke="black" d="M442.818,-650C420.808,-650 394.344,-650 370.329,-650"/>
<polygon fill="none" stroke="black" points="370.206,-646.5 360.206,-650 370.206,-653.5 370.206,-646.5"/>
</g>
<!-- \\Siad007\\VersionControl\\HG\\Command\\TagsCommand -->
<g id="node12" class="node"><title>\\Siad007\\VersionControl\\HG\\Command\\TagsCommand</title>
<polygon fill="none" stroke="black" points="537.5,-318 446.5,-318 446.5,-282 537.5,-282 537.5,-318"/>
<text text-anchor="middle" x="492" y="-297.2" font-family="Courier,monospace" font-size="11.00">TagsCommand</text>
</g>
<!-- \\Siad007\\VersionControl\\HG\\Command\\TagsCommand&#45;&gt;\\Siad007\\VersionControl\\HG\\Command\\BaseCommand -->
<g id="edge12" class="edge"><title>\\Siad007\\VersionControl\\HG\\Command\\TagsCommand&#45;&gt;\\Siad007\\VersionControl\\HG\\Command\\BaseCommand</title>
<path fill="none" stroke="black" d="M449.055,-281.802C420.695,-269.497 383.075,-253.176 352.986,-240.121"/>
<polygon fill="none" stroke="black" points="354.069,-236.776 343.502,-236.006 351.283,-243.197 354.069,-236.776"/>
</g>
<!-- \\Siad007\\VersionControl\\HG\\Command\\AddremoveCommand -->
<g id="node13" class="node"><title>\\Siad007\\VersionControl\\HG\\Command\\AddremoveCommand</title>
<polygon fill="none" stroke="black" points="363.5,-614 238.5,-614 238.5,-578 363.5,-578 363.5,-614"/>
<text text-anchor="middle" x="301" y="-593.2" font-family="Courier,monospace" font-size="11.00">AddremoveCommand</text>
</g>
<!-- \\Siad007\\VersionControl\\HG\\Command\\AddremoveCommand&#45;&gt;\\Siad007\\VersionControl\\HG\\Command\\AbstractCommand -->
<g id="edge13" class="edge"><title>\\Siad007\\VersionControl\\HG\\Command\\AddremoveCommand&#45;&gt;\\Siad007\\VersionControl\\HG\\Command\\AbstractCommand</title>
<path fill="none" stroke="black" d="M238.458,-596C218.659,-596 196.606,-596 176.348,-596"/>
<polygon fill="none" stroke="black" points="176.254,-592.5 166.254,-596 176.254,-599.5 176.254,-592.5"/>
</g>
<!-- \\Siad007\\VersionControl\\HG\\Command\\ManifestCommand -->
<g id="node14" class="node"><title>\\Siad007\\VersionControl\\HG\\Command\\ManifestCommand</title>
<polygon fill="none" stroke="black" points="360,-560 242,-560 242,-524 360,-524 360,-560"/>
<text text-anchor="middle" x="301" y="-539.2" font-family="Courier,monospace" font-size="11.00">ManifestCommand</text>
</g>
<!-- \\Siad007\\VersionControl\\HG\\Command\\ManifestCommand&#45;&gt;\\Siad007\\VersionControl\\HG\\Command\\AbstractCommand -->
<g id="edge14" class="edge"><title>\\Siad007\\VersionControl\\HG\\Command\\ManifestCommand&#45;&gt;\\Siad007\\VersionControl\\HG\\Command\\AbstractCommand</title>
<path fill="none" stroke="black" d="M241.873,-558.348C221.103,-564.19 197.516,-570.824 175.989,-576.878"/>
<polygon fill="none" stroke="black" points="174.94,-573.537 166.261,-579.614 176.835,-580.276 174.94,-573.537"/>
</g>
<!-- \\Siad007\\VersionControl\\HG\\Command\\UpdateCommand -->
<g id="node15" class="node"><title>\\Siad007\\VersionControl\\HG\\Command\\UpdateCommand</title>
<polygon fill="none" stroke="black" points="353,-506 249,-506 249,-470 353,-470 353,-506"/>
<text text-anchor="middle" x="301" y="-485.2" font-family="Courier,monospace" font-size="11.00">UpdateCommand</text>
</g>
<!-- \\Siad007\\VersionControl\\HG\\Command\\UpdateCommand&#45;&gt;\\Siad007\\VersionControl\\HG\\Command\\AbstractCommand -->
<g id="edge15" class="edge"><title>\\Siad007\\VersionControl\\HG\\Command\\UpdateCommand&#45;&gt;\\Siad007\\VersionControl\\HG\\Command\\AbstractCommand</title>
<path fill="none" stroke="black" d="M256.258,-506.088C250.06,-508.928 243.82,-511.941 238,-515 204.943,-532.377 169.031,-555.066 143.346,-572.009"/>
<polygon fill="none" stroke="black" points="141.103,-569.296 134.708,-577.744 144.975,-575.128 141.103,-569.296"/>
</g>
<!-- \\Siad007\\VersionControl\\HG\\Command\\VerifyCommand -->
<g id="node16" class="node"><title>\\Siad007\\VersionControl\\HG\\Command\\VerifyCommand</title>
<polygon fill="none" stroke="black" points="544,-264 440,-264 440,-228 544,-228 544,-264"/>
<text text-anchor="middle" x="492" y="-243.2" font-family="Courier,monospace" font-size="11.00">VerifyCommand</text>
</g>
<!-- \\Siad007\\VersionControl\\HG\\Command\\VerifyCommand&#45;&gt;\\Siad007\\VersionControl\\HG\\Command\\BaseCommand -->
<g id="edge16" class="edge"><title>\\Siad007\\VersionControl\\HG\\Command\\VerifyCommand&#45;&gt;\\Siad007\\VersionControl\\HG\\Command\\BaseCommand</title>
<path fill="none" stroke="black" d="M439.854,-238.423C414.182,-234.62 383.06,-230.009 356.888,-226.132"/>
<polygon fill="none" stroke="black" points="357.156,-222.633 346.751,-224.63 356.13,-229.558 357.156,-222.633"/>
</g>
<!-- \\Siad007\\VersionControl\\HG\\Command\\ArchiveCommand -->
<g id="node17" class="node"><title>\\Siad007\\VersionControl\\HG\\Command\\ArchiveCommand</title>
<polygon fill="none" stroke="black" points="356.5,-452 245.5,-452 245.5,-416 356.5,-416 356.5,-452"/>
<text text-anchor="middle" x="301" y="-431.2" font-family="Courier,monospace" font-size="11.00">ArchiveCommand</text>
</g>
<!-- \\Siad007\\VersionControl\\HG\\Command\\ArchiveCommand&#45;&gt;\\Siad007\\VersionControl\\HG\\Command\\AbstractCommand -->
<g id="edge17" class="edge"><title>\\Siad007\\VersionControl\\HG\\Command\\ArchiveCommand&#45;&gt;\\Siad007\\VersionControl\\HG\\Command\\AbstractCommand</title>
<path fill="none" stroke="black" d="M252.885,-452.138C247.699,-454.824 242.627,-457.783 238,-461 193.502,-491.935 151.877,-539.762 128.222,-569.406"/>
<polygon fill="none" stroke="black" points="125.192,-567.597 121.757,-577.619 130.693,-571.927 125.192,-567.597"/>
</g>
<!-- \\Siad007\\VersionControl\\HG\\Command\\AddCommand -->
<g id="node18" class="node"><title>\\Siad007\\VersionControl\\HG\\Command\\AddCommand</title>
<polygon fill="none" stroke="black" points="343,-398 259,-398 259,-362 343,-362 343,-398"/>
<text text-anchor="middle" x="301" y="-377.2" font-family="Courier,monospace" font-size="11.00">AddCommand</text>
</g>
<!-- \\Siad007\\VersionControl\\HG\\Command\\AddCommand&#45;&gt;\\Siad007\\VersionControl\\HG\\Command\\AbstractCommand -->
<g id="edge18" class="edge"><title>\\Siad007\\VersionControl\\HG\\Command\\AddCommand&#45;&gt;\\Siad007\\VersionControl\\HG\\Command\\AbstractCommand</title>
<path fill="none" stroke="black" d="M258.765,-394.08C251.422,-397.636 244.16,-401.921 238,-407 182.361,-452.874 140.393,-528.407 120.592,-568.694"/>
<polygon fill="none" stroke="black" points="117.342,-567.376 116.151,-577.903 123.647,-570.416 117.342,-567.376"/>
</g>
<!-- \\Siad007\\VersionControl\\HG\\Command\\RootCommand -->
<g id="node20" class="node"><title>\\Siad007\\VersionControl\\HG\\Command\\RootCommand</title>
<polygon fill="none" stroke="black" points="537.5,-210 446.5,-210 446.5,-174 537.5,-174 537.5,-210"/>
<text text-anchor="middle" x="492" y="-189.2" font-family="Courier,monospace" font-size="11.00">RootCommand</text>
</g>
<!-- \\Siad007\\VersionControl\\HG\\Command\\RootCommand&#45;&gt;\\Siad007\\VersionControl\\HG\\Command\\BaseCommand -->
<g id="edge19" class="edge"><title>\\Siad007\\VersionControl\\HG\\Command\\RootCommand&#45;&gt;\\Siad007\\VersionControl\\HG\\Command\\BaseCommand</title>
<path fill="none" stroke="black" d="M446.21,-198.162C419.474,-201.84 385.317,-206.538 356.958,-210.44"/>
<polygon fill="none" stroke="black" points="356.226,-207.007 346.796,-211.838 357.18,-213.942 356.226,-207.007"/>
</g>
<!-- \\Siad007\\VersionControl\\HG\\Command\\UnbundleCommand -->
<g id="node21" class="node"><title>\\Siad007\\VersionControl\\HG\\Command\\UnbundleCommand</title>
<polygon fill="none" stroke="black" points="360,-344 242,-344 242,-308 360,-308 360,-344"/>
<text text-anchor="middle" x="301" y="-323.2" font-family="Courier,monospace" font-size="11.00">UnbundleCommand</text>
</g>
<!-- \\Siad007\\VersionControl\\HG\\Command\\UnbundleCommand&#45;&gt;\\Siad007\\VersionControl\\HG\\Command\\AbstractCommand -->
<g id="edge20" class="edge"><title>\\Siad007\\VersionControl\\HG\\Command\\UnbundleCommand&#45;&gt;\\Siad007\\VersionControl\\HG\\Command\\AbstractCommand</title>
<path fill="none" stroke="black" d="M250.057,-344.049C245.728,-346.683 241.624,-349.656 238,-353 171.189,-414.636 131.944,-518.623 116.147,-568.154"/>
<polygon fill="none" stroke="black" points="112.756,-567.274 113.131,-577.862 119.44,-569.351 112.756,-567.274"/>
</g>
<!-- \\Siad007\\VersionControl\\HG\\Command\\CloneCommand -->
<g id="node22" class="node"><title>\\Siad007\\VersionControl\\HG\\Command\\CloneCommand</title>
<polygon fill="none" stroke="black" points="350,-290 252,-290 252,-254 350,-254 350,-290"/>
<text text-anchor="middle" x="301" y="-269.2" font-family="Courier,monospace" font-size="11.00">CloneCommand</text>
</g>
<!-- \\Siad007\\VersionControl\\HG\\Command\\CloneCommand&#45;&gt;\\Siad007\\VersionControl\\HG\\Command\\AbstractCommand -->
<g id="edge21" class="edge"><title>\\Siad007\\VersionControl\\HG\\Command\\CloneCommand&#45;&gt;\\Siad007\\VersionControl\\HG\\Command\\AbstractCommand</title>
<path fill="none" stroke="black" d="M251.931,-288.44C246.856,-291.439 242.072,-294.936 238,-299 159.806,-377.048 125.096,-510.012 113.157,-567.797"/>
<polygon fill="none" stroke="black" points="109.709,-567.191 111.187,-577.682 116.574,-568.559 109.709,-567.191"/>
</g>
<!-- \\Siad007\\VersionControl\\HG\\Command\\VersionCommand -->
<g id="node23" class="node"><title>\\Siad007\\VersionControl\\HG\\Command\\VersionCommand</title>
<polygon fill="none" stroke="black" points="547.5,-156 436.5,-156 436.5,-120 547.5,-120 547.5,-156"/>
<text text-anchor="middle" x="492" y="-135.2" font-family="Courier,monospace" font-size="11.00">VersionCommand</text>
</g>
<!-- \\Siad007\\VersionControl\\HG\\Command\\VersionCommand&#45;&gt;\\Siad007\\VersionControl\\HG\\Command\\BaseCommand -->
<g id="edge22" class="edge"><title>\\Siad007\\VersionControl\\HG\\Command\\VersionCommand&#45;&gt;\\Siad007\\VersionControl\\HG\\Command\\BaseCommand</title>
<path fill="none" stroke="black" d="M448.113,-156.153C420.203,-167.967 383.627,-183.449 354.053,-195.967"/>
<polygon fill="none" stroke="black" points="352.562,-192.797 344.717,-199.919 355.291,-199.244 352.562,-192.797"/>
</g>
<!-- \\Siad007\\VersionControl\\HG\\Command\\BundleCommand -->
<g id="node24" class="node"><title>\\Siad007\\VersionControl\\HG\\Command\\BundleCommand</title>
<polygon fill="none" stroke="black" points="353,-182 249,-182 249,-146 353,-146 353,-182"/>
<text text-anchor="middle" x="301" y="-161.2" font-family="Courier,monospace" font-size="11.00">BundleCommand</text>
</g>
<!-- \\Siad007\\VersionControl\\HG\\Command\\BundleCommand&#45;&gt;\\Siad007\\VersionControl\\HG\\Command\\AbstractCommand -->
<g id="edge23" class="edge"><title>\\Siad007\\VersionControl\\HG\\Command\\BundleCommand&#45;&gt;\\Siad007\\VersionControl\\HG\\Command\\AbstractCommand</title>
<path fill="none" stroke="black" d="M248.796,-181.79C244.83,-184.464 241.15,-187.517 238,-191 136.457,-303.255 114.179,-495.396 109.333,-567.527"/>
<polygon fill="none" stroke="black" points="105.83,-567.465 108.716,-577.659 112.817,-567.89 105.83,-567.465"/>
</g>
<!-- \\Siad007\\VersionControl\\HG\\Command\\CatCommand -->
<g id="node25" class="node"><title>\\Siad007\\VersionControl\\HG\\Command\\CatCommand</title>
<polygon fill="none" stroke="black" points="343,-128 259,-128 259,-92 343,-92 343,-128"/>
<text text-anchor="middle" x="301" y="-107.2" font-family="Courier,monospace" font-size="11.00">CatCommand</text>
</g>
<!-- \\Siad007\\VersionControl\\HG\\Command\\CatCommand&#45;&gt;\\Siad007\\VersionControl\\HG\\Command\\AbstractCommand -->
<g id="edge24" class="edge"><title>\\Siad007\\VersionControl\\HG\\Command\\CatCommand&#45;&gt;\\Siad007\\VersionControl\\HG\\Command\\AbstractCommand</title>
<path fill="none" stroke="black" d="M258.893,-121.771C251.103,-125.577 243.639,-130.546 238,-137 124.55,-266.865 109.648,-489.105 108.039,-567.559"/>
<polygon fill="none" stroke="black" points="104.538,-567.6 107.891,-577.65 111.537,-567.702 104.538,-567.6"/>
</g>
<!-- \\Siad007\\VersionControl\\HG\\Factory -->
<g id="node26" class="node"><title>\\Siad007\\VersionControl\\HG\\Factory</title>
<polygon fill="none" stroke="black" points="524,-76 460,-76 460,-40 524,-40 524,-76"/>
<text text-anchor="middle" x="492" y="-55.2" font-family="Courier,monospace" font-size="11.00">Factory</text>
</g>
</g>
</svg>
