<?xml version="1.0" encoding="UTF-8" standalone="no"?>
<!DOCTYPE svg PUBLIC "-//W3C//DTD SVG 1.1//EN"
 "http://www.w3.org/Graphics/SVG/1.1/DTD/svg11.dtd">
<!-- Generated by graphviz version 2.36.0 (20140111.2315)
 -->
<!-- Title: G Pages: 1 -->
<svg width="604pt" height="1634pt"
 viewBox="0.00 0.00 604.00 1634.00" xmlns="http://www.w3.org/2000/svg" xmlns:xlink="http://www.w3.org/1999/xlink">
<g id="graph0" class="graph" transform="scale(1 1) rotate(0) translate(4 1630)">
<title>G</title>
<polygon fill="white" stroke="none" points="-4,4 -4,-1630 600,-1630 600,4 -4,4"/>
<g id="clust1" class="cluster"><title>cluster_Global</title>
<path fill="none" stroke="gray" d="M20,-8C20,-8 576,-8 576,-8 582,-8 588,-14 588,-20 588,-20 588,-1606 588,-1606 588,-1612 582,-1618 576,-1618 576,-1618 20,-1618 20,-1618 14,-1618 8,-1612 8,-1606 8,-1606 8,-20 8,-20 8,-14 14,-8 20,-8"/>
<text text-anchor="middle" x="298" y="-1605.2" font-family="Times New Roman,serif" font-size="11.00" fill="gray">Global</text>
</g>
<g id="clust2" class="cluster"><title>cluster_\Siad007</title>
<path fill="none" stroke="gray" d="M28,-16C28,-16 568,-16 568,-16 574,-16 580,-22 580,-28 580,-28 580,-1578 580,-1578 580,-1584 574,-1590 568,-1590 568,-1590 28,-1590 28,-1590 22,-1590 16,-1584 16,-1578 16,-1578 16,-28 16,-28 16,-22 22,-16 28,-16"/>
<text text-anchor="middle" x="298" y="-1577.2" font-family="Times New Roman,serif" font-size="11.00" fill="gray">Siad007</text>
</g>
<g id="clust3" class="cluster"><title>cluster_\Siad007\VersionControl</title>
<path fill="none" stroke="gray" d="M36,-24C36,-24 560,-24 560,-24 566,-24 572,-30 572,-36 572,-36 572,-1550 572,-1550 572,-1556 566,-1562 560,-1562 560,-1562 36,-1562 36,-1562 30,-1562 24,-1556 24,-1550 24,-1550 24,-36 24,-36 24,-30 30,-24 36,-24"/>
<text text-anchor="middle" x="298" y="-1549.2" font-family="Times New Roman,serif" font-size="11.00" fill="gray">VersionControl</text>
</g>
<g id="clust4" class="cluster"><title>cluster_\Siad007\VersionControl\HG</title>
<path fill="none" stroke="gray" d="M44,-32C44,-32 552,-32 552,-32 558,-32 564,-38 564,-44 564,-44 564,-1522 564,-1522 564,-1528 558,-1534 552,-1534 552,-1534 44,-1534 44,-1534 38,-1534 32,-1528 32,-1522 32,-1522 32,-44 32,-44 32,-38 38,-32 44,-32"/>
<text text-anchor="middle" x="298" y="-1521.2" font-family="Times New Roman,serif" font-size="11.00" fill="gray">HG</text>
</g>
<g id="clust5" class="cluster"><title>cluster_\Siad007\VersionControl\HG\Command</title>
<path fill="none" stroke="gray" d="M52,-84C52,-84 544,-84 544,-84 550,-84 556,-90 556,-96 556,-96 556,-1494 556,-1494 556,-1500 550,-1506 544,-1506 544,-1506 52,-1506 52,-1506 46,-1506 40,-1500 40,-1494 40,-1494 40,-96 40,-96 40,-90 46,-84 52,-84"/>
<text text-anchor="middle" x="298" y="-1493.2" font-family="Times New Roman,serif" font-size="11.00" fill="gray">Command</text>
</g>
<!-- \\Siad007\\VersionControl\\HG\\Command\\PushCommand -->
<g id="node1" class="node"><title>\\Siad007\\VersionControl\\HG\\Command\\PushCommand</title>
<polygon fill="none" stroke="black" points="346.5,-1478 255.5,-1478 255.5,-1442 346.5,-1442 346.5,-1478"/>
<text text-anchor="middle" x="301" y="-1457.2" font-family="Courier,monospace" font-size="11.00">PushCommand</text>
</g>
<!-- \\Siad007\\VersionControl\\HG\\Command\\AbstractCommand -->
<g id="node24" class="node"><title>\\Siad007\\VersionControl\\HG\\Command\\AbstractCommand</title>
<polygon fill="none" stroke="black" points="166,-803 48,-803 48,-767 166,-767 166,-803"/>
<text text-anchor="start" x="73" y="-788.2" font-family="Courier,monospace" font-size="11.00">«abstract»</text>
<text text-anchor="start" x="56" y="-776.2" font-family="Courier,monospace" font-size="11.00">AbstractCommand</text>
</g>
<!-- \\Siad007\\VersionControl\\HG\\Command\\PushCommand&#45;&gt;\\Siad007\\VersionControl\\HG\\Command\\AbstractCommand -->
<g id="edge1" class="edge"><title>\\Siad007\\VersionControl\\HG\\Command\\PushCommand&#45;&gt;\\Siad007\\VersionControl\\HG\\Command\\AbstractCommand</title>
<path fill="none" stroke="black" d="M255.337,-1446.91C248.759,-1443.31 242.645,-1438.76 238,-1433 158.583,-1334.6 119.552,-925.288 110.234,-813.384"/>
<polygon fill="none" stroke="black" points="113.706,-812.898 109.402,-803.217 106.73,-813.469 113.706,-812.898"/>
</g>
<!-- \\Siad007\\VersionControl\\HG\\Command\\CommitCommand -->
<g id="node2" class="node"><title>\\Siad007\\VersionControl\\HG\\Command\\CommitCommand</title>
<polygon fill="none" stroke="black" points="353,-1424 249,-1424 249,-1388 353,-1388 353,-1424"/>
<text text-anchor="middle" x="301" y="-1403.2" font-family="Courier,monospace" font-size="11.00">CommitCommand</text>
</g>
<!-- \\Siad007\\VersionControl\\HG\\Command\\CommitCommand&#45;&gt;\\Siad007\\VersionControl\\HG\\Command\\AbstractCommand -->
<g id="edge2" class="edge"><title>\\Siad007\\VersionControl\\HG\\Command\\CommitCommand&#45;&gt;\\Siad007\\VersionControl\\HG\\Command\\AbstractCommand</title>
<path fill="none" stroke="black" d="M248.727,-1388.73C244.723,-1385.94 241.056,-1382.72 238,-1379 164.7,-1289.78 121.746,-919.296 110.799,-813.391"/>
<polygon fill="none" stroke="black" points="114.253,-812.759 109.758,-803.165 107.289,-813.469 114.253,-812.759"/>
</g>
<!-- \\Siad007\\VersionControl\\HG\\Command\\BaseCommand -->
<g id="node3" class="node"><title>\\Siad007\\VersionControl\\HG\\Command\\BaseCommand</title>
<polygon fill="none" stroke="black" points="346.5,-344 255.5,-344 255.5,-308 346.5,-308 346.5,-344"/>
<text text-anchor="middle" x="301" y="-323.2" font-family="Courier,monospace" font-size="11.00">BaseCommand</text>
</g>
<!-- \\Siad007\\VersionControl\\HG\\Command\\BaseCommand&#45;&gt;\\Siad007\\VersionControl\\HG\\Command\\AbstractCommand -->
<g id="edge3" class="edge"><title>\\Siad007\\VersionControl\\HG\\Command\\BaseCommand&#45;&gt;\\Siad007\\VersionControl\\HG\\Command\\AbstractCommand</title>
<path fill="none" stroke="black" d="M255.476,-339.639C248.962,-343.167 242.833,-347.557 238,-353 130.432,-474.123 111.821,-681.513 108.64,-756.714"/>
<polygon fill="none" stroke="black" points="105.139,-756.704 108.274,-766.825 112.134,-756.958 105.139,-756.704"/>
</g>
<!-- \\Siad007\\VersionControl\\HG\\Command\\AnnotateCommand -->
<g id="node4" class="node"><title>\\Siad007\\VersionControl\\HG\\Command\\AnnotateCommand</title>
<polygon fill="none" stroke="black" points="360,-884 242,-884 242,-848 360,-848 360,-884"/>
<text text-anchor="middle" x="301" y="-863.2" font-family="Courier,monospace" font-size="11.00">AnnotateCommand</text>
</g>
<!-- \\Siad007\\VersionControl\\HG\\Command\\AnnotateCommand&#45;&gt;\\Siad007\\VersionControl\\HG\\Command\\AbstractCommand -->
<g id="edge4" class="edge"><title>\\Siad007\\VersionControl\\HG\\Command\\AnnotateCommand&#45;&gt;\\Siad007\\VersionControl\\HG\\Command\\AbstractCommand</title>
<path fill="none" stroke="black" d="M256.911,-847.822C228.379,-835.785 190.777,-819.921 160.498,-807.147"/>
<polygon fill="none" stroke="black" points="161.519,-803.78 150.945,-803.117 158.798,-810.229 161.519,-803.78"/>
</g>
<!-- \\Siad007\\VersionControl\\HG\\Command\\HeadsCommand -->
<g id="node5" class="node"><title>\\Siad007\\VersionControl\\HG\\Command\\HeadsCommand</title>
<polygon fill="none" stroke="black" points="350,-1370 252,-1370 252,-1334 350,-1334 350,-1370"/>
<text text-anchor="middle" x="301" y="-1349.2" font-family="Courier,monospace" font-size="11.00">HeadsCommand</text>
</g>
<!-- \\Siad007\\VersionControl\\HG\\Command\\HeadsCommand&#45;&gt;\\Siad007\\VersionControl\\HG\\Command\\AbstractCommand -->
<g id="edge5" class="edge"><title>\\Siad007\\VersionControl\\HG\\Command\\HeadsCommand&#45;&gt;\\Siad007\\VersionControl\\HG\\Command\\AbstractCommand</title>
<path fill="none" stroke="black" d="M251.806,-1336.61C246.625,-1333.42 241.849,-1329.59 238,-1325 170.786,-1244.9 124.157,-912.977 111.472,-813.378"/>
<polygon fill="none" stroke="black" points="114.91,-812.667 110.19,-803.182 107.965,-813.54 114.91,-812.667"/>
</g>
<!-- \\Siad007\\VersionControl\\HG\\Command\\PullCommand -->
<g id="node6" class="node"><title>\\Siad007\\VersionControl\\HG\\Command\\PullCommand</title>
<polygon fill="none" stroke="black" points="346.5,-1316 255.5,-1316 255.5,-1280 346.5,-1280 346.5,-1316"/>
<text text-anchor="middle" x="301" y="-1295.2" font-family="Courier,monospace" font-size="11.00">PullCommand</text>
</g>
<!-- \\Siad007\\VersionControl\\HG\\Command\\PullCommand&#45;&gt;\\Siad007\\VersionControl\\HG\\Command\\AbstractCommand -->
<g id="edge6" class="edge"><title>\\Siad007\\VersionControl\\HG\\Command\\PullCommand&#45;&gt;\\Siad007\\VersionControl\\HG\\Command\\AbstractCommand</title>
<path fill="none" stroke="black" d="M255.33,-1284.49C248.834,-1280.94 242.749,-1276.52 238,-1271 118.576,-1132.26 107.562,-894.937 107.494,-813.448"/>
<polygon fill="none" stroke="black" points="110.993,-813.454 107.542,-803.437 103.994,-813.42 110.993,-813.454"/>
</g>
<!-- \\Siad007\\VersionControl\\HG\\Command\\RecoverCommand -->
<g id="node7" class="node"><title>\\Siad007\\VersionControl\\HG\\Command\\RecoverCommand</title>
<polygon fill="none" stroke="black" points="547.5,-452 436.5,-452 436.5,-416 547.5,-416 547.5,-452"/>
<text text-anchor="middle" x="492" y="-431.2" font-family="Courier,monospace" font-size="11.00">RecoverCommand</text>
</g>
<!-- \\Siad007\\VersionControl\\HG\\Command\\RecoverCommand&#45;&gt;\\Siad007\\VersionControl\\HG\\Command\\BaseCommand -->
<g id="edge7" class="edge"><title>\\Siad007\\VersionControl\\HG\\Command\\RecoverCommand&#45;&gt;\\Siad007\\VersionControl\\HG\\Command\\BaseCommand</title>
<path fill="none" stroke="black" d="M451.75,-415.858C446.371,-413.048 440.988,-410.058 436,-407 401.897,-386.095 398.571,-373.121 364,-353 361.346,-351.455 358.587,-349.944 355.772,-348.476"/>
<polygon fill="none" stroke="black" points="357.166,-345.261 346.653,-343.946 354.052,-351.53 357.166,-345.261"/>
</g>
<!-- \\Siad007\\VersionControl\\HG\\Command\\BranchesCommand -->
<g id="node8" class="node"><title>\\Siad007\\VersionControl\\HG\\Command\\BranchesCommand</title>
<polygon fill="none" stroke="black" points="360,-1262 242,-1262 242,-1226 360,-1226 360,-1262"/>
<text text-anchor="middle" x="301" y="-1241.2" font-family="Courier,monospace" font-size="11.00">BranchesCommand</text>
</g>
<!-- \\Siad007\\VersionControl\\HG\\Command\\BranchesCommand&#45;&gt;\\Siad007\\VersionControl\\HG\\Command\\AbstractCommand -->
<g id="edge8" class="edge"><title>\\Siad007\\VersionControl\\HG\\Command\\BranchesCommand&#45;&gt;\\Siad007\\VersionControl\\HG\\Command\\AbstractCommand</title>
<path fill="none" stroke="black" d="M248.137,-1225.86C244.411,-1223.28 240.962,-1220.34 238,-1217 130.432,-1095.88 111.821,-888.487 108.64,-813.286"/>
<polygon fill="none" stroke="black" points="112.134,-813.042 108.274,-803.175 105.139,-813.296 112.134,-813.042"/>
</g>
<!-- \\Siad007\\VersionControl\\HG\\Command\\TagCommand -->
<g id="node9" class="node"><title>\\Siad007\\VersionControl\\HG\\Command\\TagCommand</title>
<polygon fill="none" stroke="black" points="343,-1208 259,-1208 259,-1172 343,-1172 343,-1208"/>
<text text-anchor="middle" x="301" y="-1187.2" font-family="Courier,monospace" font-size="11.00">TagCommand</text>
</g>
<!-- \\Siad007\\VersionControl\\HG\\Command\\TagCommand&#45;&gt;\\Siad007\\VersionControl\\HG\\Command\\AbstractCommand -->
<g id="edge9" class="edge"><title>\\Siad007\\VersionControl\\HG\\Command\\TagCommand&#45;&gt;\\Siad007\\VersionControl\\HG\\Command\\AbstractCommand</title>
<path fill="none" stroke="black" d="M258.842,-1177.83C251.148,-1174.06 243.735,-1169.21 238,-1163 142.358,-1059.44 116.647,-882.229 110.106,-813.454"/>
<polygon fill="none" stroke="black" points="113.582,-813.027 109.213,-803.375 106.609,-813.645 113.582,-813.027"/>
</g>
<!-- \\Siad007\\VersionControl\\HG\\Command\\StatusCommand -->
<g id="node10" class="node"><title>\\Siad007\\VersionControl\\HG\\Command\\StatusCommand</title>
<polygon fill="none" stroke="black" points="353,-1154 249,-1154 249,-1118 353,-1118 353,-1154"/>
<text text-anchor="middle" x="301" y="-1133.2" font-family="Courier,monospace" font-size="11.00">StatusCommand</text>
</g>
<!-- \\Siad007\\VersionControl\\HG\\Command\\StatusCommand&#45;&gt;\\Siad007\\VersionControl\\HG\\Command\\AbstractCommand -->
<g id="edge10" class="edge"><title>\\Siad007\\VersionControl\\HG\\Command\\StatusCommand&#45;&gt;\\Siad007\\VersionControl\\HG\\Command\\AbstractCommand</title>
<path fill="none" stroke="black" d="M249.056,-1117.97C245.035,-1115.34 241.272,-1112.37 238,-1109 153.946,-1022.46 122.009,-874.618 111.959,-813.122"/>
<polygon fill="none" stroke="black" points="115.381,-812.35 110.379,-803.011 108.465,-813.431 115.381,-812.35"/>
</g>
<!-- \\Siad007\\VersionControl\\HG\\Command\\PathsCommand -->
<g id="node11" class="node"><title>\\Siad007\\VersionControl\\HG\\Command\\PathsCommand</title>
<polygon fill="none" stroke="black" points="350,-1100 252,-1100 252,-1064 350,-1064 350,-1100"/>
<text text-anchor="middle" x="301" y="-1079.2" font-family="Courier,monospace" font-size="11.00">PathsCommand</text>
</g>
<!-- \\Siad007\\VersionControl\\HG\\Command\\PathsCommand&#45;&gt;\\Siad007\\VersionControl\\HG\\Command\\AbstractCommand -->
<g id="edge11" class="edge"><title>\\Siad007\\VersionControl\\HG\\Command\\PathsCommand&#45;&gt;\\Siad007\\VersionControl\\HG\\Command\\AbstractCommand</title>
<path fill="none" stroke="black" d="M251.762,-1065.23C246.777,-1062.3 242.06,-1058.91 238,-1055 165.441,-985.148 128.28,-866.537 114.474,-812.859"/>
<polygon fill="none" stroke="black" points="117.837,-811.879 112.021,-803.023 111.045,-813.573 117.837,-811.879"/>
</g>
<!-- \\Siad007\\VersionControl\\HG\\Command\\LocateCommand -->
<g id="node12" class="node"><title>\\Siad007\\VersionControl\\HG\\Command\\LocateCommand</title>
<polygon fill="none" stroke="black" points="353,-1046 249,-1046 249,-1010 353,-1010 353,-1046"/>
<text text-anchor="middle" x="301" y="-1025.2" font-family="Courier,monospace" font-size="11.00">LocateCommand</text>
</g>
<!-- \\Siad007\\VersionControl\\HG\\Command\\LocateCommand&#45;&gt;\\Siad007\\VersionControl\\HG\\Command\\AbstractCommand -->
<g id="edge12" class="edge"><title>\\Siad007\\VersionControl\\HG\\Command\\LocateCommand&#45;&gt;\\Siad007\\VersionControl\\HG\\Command\\AbstractCommand</title>
<path fill="none" stroke="black" d="M250.543,-1009.94C246.066,-1007.3 241.796,-1004.33 238,-1001 176.81,-947.347 135.927,-857.684 118.132,-812.624"/>
<polygon fill="none" stroke="black" points="121.36,-811.268 114.492,-803.201 114.831,-813.791 121.36,-811.268"/>
</g>
<!-- \\Siad007\\VersionControl\\HG\\Command\\SummaryCommand -->
<g id="node13" class="node"><title>\\Siad007\\VersionControl\\HG\\Command\\SummaryCommand</title>
<polygon fill="none" stroke="black" points="356.5,-992 245.5,-992 245.5,-956 356.5,-956 356.5,-992"/>
<text text-anchor="middle" x="301" y="-971.2" font-family="Courier,monospace" font-size="11.00">SummaryCommand</text>
</g>
<!-- \\Siad007\\VersionControl\\HG\\Command\\SummaryCommand&#45;&gt;\\Siad007\\VersionControl\\HG\\Command\\AbstractCommand -->
<g id="edge13" class="edge"><title>\\Siad007\\VersionControl\\HG\\Command\\SummaryCommand&#45;&gt;\\Siad007\\VersionControl\\HG\\Command\\AbstractCommand</title>
<path fill="none" stroke="black" d="M251.948,-955.923C247.041,-953.252 242.291,-950.28 238,-947 187.899,-908.704 145.585,-847.135 123.797,-811.958"/>
<polygon fill="none" stroke="black" points="126.65,-809.914 118.457,-803.196 120.673,-813.556 126.65,-809.914"/>
</g>
<!-- \\Siad007\\VersionControl\\HG\\Command\\InitCommand -->
<g id="node14" class="node"><title>\\Siad007\\VersionControl\\HG\\Command\\InitCommand</title>
<polygon fill="none" stroke="black" points="346.5,-938 255.5,-938 255.5,-902 346.5,-902 346.5,-938"/>
<text text-anchor="middle" x="301" y="-917.2" font-family="Courier,monospace" font-size="11.00">InitCommand</text>
</g>
<!-- \\Siad007\\VersionControl\\HG\\Command\\InitCommand&#45;&gt;\\Siad007\\VersionControl\\HG\\Command\\AbstractCommand -->
<g id="edge14" class="edge"><title>\\Siad007\\VersionControl\\HG\\Command\\InitCommand&#45;&gt;\\Siad007\\VersionControl\\HG\\Command\\AbstractCommand</title>
<path fill="none" stroke="black" d="M255.195,-902.307C249.278,-899.448 243.398,-896.324 238,-893 198.829,-868.878 158.878,-833.795 133.794,-810.223"/>
<polygon fill="none" stroke="black" points="136.166,-807.649 126.504,-803.303 131.347,-812.726 136.166,-807.649"/>
</g>
<!-- \\Siad007\\VersionControl\\HG\\Command\\BlameCommand -->
<g id="node15" class="node"><title>\\Siad007\\VersionControl\\HG\\Command\\BlameCommand</title>
<polygon fill="none" stroke="black" points="541,-884 443,-884 443,-848 541,-848 541,-884"/>
<text text-anchor="middle" x="492" y="-863.2" font-family="Courier,monospace" font-size="11.00">BlameCommand</text>
</g>
<!-- \\Siad007\\VersionControl\\HG\\Command\\BlameCommand&#45;&gt;\\Siad007\\VersionControl\\HG\\Command\\AnnotateCommand -->
<g id="edge15" class="edge"><title>\\Siad007\\VersionControl\\HG\\Command\\BlameCommand&#45;&gt;\\Siad007\\VersionControl\\HG\\Command\\AnnotateCommand</title>
<path fill="none" stroke="black" d="M442.818,-866C420.808,-866 394.344,-866 370.329,-866"/>
<polygon fill="none" stroke="black" points="370.206,-862.5 360.206,-866 370.206,-869.5 370.206,-862.5"/>
</g>
<!-- \\Siad007\\VersionControl\\HG\\Command\\TagsCommand -->
<g id="node16" class="node"><title>\\Siad007\\VersionControl\\HG\\Command\\TagsCommand</title>
<polygon fill="none" stroke="black" points="537.5,-398 446.5,-398 446.5,-362 537.5,-362 537.5,-398"/>
<text text-anchor="middle" x="492" y="-377.2" font-family="Courier,monospace" font-size="11.00">TagsCommand</text>
</g>
<!-- \\Siad007\\VersionControl\\HG\\Command\\TagsCommand&#45;&gt;\\Siad007\\VersionControl\\HG\\Command\\BaseCommand -->
<g id="edge16" class="edge"><title>\\Siad007\\VersionControl\\HG\\Command\\TagsCommand&#45;&gt;\\Siad007\\VersionControl\\HG\\Command\\BaseCommand</title>
<path fill="none" stroke="black" d="M446.21,-367.203C419.357,-359.53 385.018,-349.719 356.585,-341.596"/>
<polygon fill="none" stroke="black" points="357.373,-338.181 346.796,-338.799 355.45,-344.911 357.373,-338.181"/>
</g>
<!-- \\Siad007\\VersionControl\\HG\\Command\\AddremoveCommand -->
<g id="node17" class="node"><title>\\Siad007\\VersionControl\\HG\\Command\\AddremoveCommand</title>
<polygon fill="none" stroke="black" points="363.5,-830 238.5,-830 238.5,-794 363.5,-794 363.5,-830"/>
<text text-anchor="middle" x="301" y="-809.2" font-family="Courier,monospace" font-size="11.00">AddremoveCommand</text>
</g>
<!-- \\Siad007\\VersionControl\\HG\\Command\\AddremoveCommand&#45;&gt;\\Siad007\\VersionControl\\HG\\Command\\AbstractCommand -->
<g id="edge17" class="edge"><title>\\Siad007\\VersionControl\\HG\\Command\\AddremoveCommand&#45;&gt;\\Siad007\\VersionControl\\HG\\Command\\AbstractCommand</title>
<path fill="none" stroke="black" d="M238.458,-803.346C218.659,-800.561 196.606,-797.46 176.348,-794.611"/>
<polygon fill="none" stroke="black" points="176.644,-791.119 166.254,-793.192 175.669,-798.051 176.644,-791.119"/>
</g>
<!-- \\Siad007\\VersionControl\\HG\\Command\\ManifestCommand -->
<g id="node18" class="node"><title>\\Siad007\\VersionControl\\HG\\Command\\ManifestCommand</title>
<polygon fill="none" stroke="black" points="360,-776 242,-776 242,-740 360,-740 360,-776"/>
<text text-anchor="middle" x="301" y="-755.2" font-family="Courier,monospace" font-size="11.00">ManifestCommand</text>
</g>
<!-- \\Siad007\\VersionControl\\HG\\Command\\ManifestCommand&#45;&gt;\\Siad007\\VersionControl\\HG\\Command\\AbstractCommand -->
<g id="edge18" class="edge"><title>\\Siad007\\VersionControl\\HG\\Command\\ManifestCommand&#45;&gt;\\Siad007\\VersionControl\\HG\\Command\\AbstractCommand</title>
<path fill="none" stroke="black" d="M241.873,-766.174C221.196,-769.082 197.729,-772.382 176.28,-775.398"/>
<polygon fill="none" stroke="black" points="175.676,-771.949 166.261,-776.807 176.651,-778.88 175.676,-771.949"/>
</g>
<!-- \\Siad007\\VersionControl\\HG\\Command\\BranchCommand -->
<g id="node19" class="node"><title>\\Siad007\\VersionControl\\HG\\Command\\BranchCommand</title>
<polygon fill="none" stroke="black" points="353,-722 249,-722 249,-686 353,-686 353,-722"/>
<text text-anchor="middle" x="301" y="-701.2" font-family="Courier,monospace" font-size="11.00">BranchCommand</text>
</g>
<!-- \\Siad007\\VersionControl\\HG\\Command\\BranchCommand&#45;&gt;\\Siad007\\VersionControl\\HG\\Command\\AbstractCommand -->
<g id="edge19" class="edge"><title>\\Siad007\\VersionControl\\HG\\Command\\BranchCommand&#45;&gt;\\Siad007\\VersionControl\\HG\\Command\\AbstractCommand</title>
<path fill="none" stroke="black" d="M256.911,-722.178C228.379,-734.215 190.777,-750.079 160.498,-762.853"/>
<polygon fill="none" stroke="black" points="158.798,-759.771 150.945,-766.883 161.519,-766.22 158.798,-759.771"/>
</g>
<!-- \\Siad007\\VersionControl\\HG\\Command\\UpdateCommand -->
<g id="node20" class="node"><title>\\Siad007\\VersionControl\\HG\\Command\\UpdateCommand</title>
<polygon fill="none" stroke="black" points="353,-668 249,-668 249,-632 353,-632 353,-668"/>
<text text-anchor="middle" x="301" y="-647.2" font-family="Courier,monospace" font-size="11.00">UpdateCommand</text>
</g>
<!-- \\Siad007\\VersionControl\\HG\\Command\\UpdateCommand&#45;&gt;\\Siad007\\VersionControl\\HG\\Command\\AbstractCommand -->
<g id="edge20" class="edge"><title>\\Siad007\\VersionControl\\HG\\Command\\UpdateCommand&#45;&gt;\\Siad007\\VersionControl\\HG\\Command\\AbstractCommand</title>
<path fill="none" stroke="black" d="M254.538,-668.012C248.843,-670.784 243.198,-673.799 238,-677 198.829,-701.122 158.878,-736.205 133.794,-759.777"/>
<polygon fill="none" stroke="black" points="131.347,-757.274 126.504,-766.697 136.166,-762.351 131.347,-757.274"/>
</g>
<!-- \\Siad007\\VersionControl\\HG\\Command\\VerifyCommand -->
<g id="node21" class="node"><title>\\Siad007\\VersionControl\\HG\\Command\\VerifyCommand</title>
<polygon fill="none" stroke="black" points="544,-344 440,-344 440,-308 544,-308 544,-344"/>
<text text-anchor="middle" x="492" y="-323.2" font-family="Courier,monospace" font-size="11.00">VerifyCommand</text>
</g>
<!-- \\Siad007\\VersionControl\\HG\\Command\\VerifyCommand&#45;&gt;\\Siad007\\VersionControl\\HG\\Command\\BaseCommand -->
<g id="edge21" class="edge"><title>\\Siad007\\VersionControl\\HG\\Command\\VerifyCommand&#45;&gt;\\Siad007\\VersionControl\\HG\\Command\\BaseCommand</title>
<path fill="none" stroke="black" d="M439.854,-326C414.182,-326 383.06,-326 356.888,-326"/>
<polygon fill="none" stroke="black" points="356.751,-322.5 346.751,-326 356.751,-329.5 356.751,-322.5"/>
</g>
<!-- \\Siad007\\VersionControl\\HG\\Command\\ArchiveCommand -->
<g id="node22" class="node"><title>\\Siad007\\VersionControl\\HG\\Command\\ArchiveCommand</title>
<polygon fill="none" stroke="black" points="356.5,-614 245.5,-614 245.5,-578 356.5,-578 356.5,-614"/>
<text text-anchor="middle" x="301" y="-593.2" font-family="Courier,monospace" font-size="11.00">ArchiveCommand</text>
</g>
<!-- \\Siad007\\VersionControl\\HG\\Command\\ArchiveCommand&#45;&gt;\\Siad007\\VersionControl\\HG\\Command\\AbstractCommand -->
<g id="edge22" class="edge"><title>\\Siad007\\VersionControl\\HG\\Command\\ArchiveCommand&#45;&gt;\\Siad007\\VersionControl\\HG\\Command\\AbstractCommand</title>
<path fill="none" stroke="black" d="M251.948,-614.077C247.041,-616.748 242.291,-619.72 238,-623 187.899,-661.296 145.585,-722.865 123.797,-758.042"/>
<polygon fill="none" stroke="black" points="120.673,-756.444 118.457,-766.804 126.65,-760.086 120.673,-756.444"/>
</g>
<!-- \\Siad007\\VersionControl\\HG\\Command\\AddCommand -->
<g id="node23" class="node"><title>\\Siad007\\VersionControl\\HG\\Command\\AddCommand</title>
<polygon fill="none" stroke="black" points="343,-560 259,-560 259,-524 343,-524 343,-560"/>
<text text-anchor="middle" x="301" y="-539.2" font-family="Courier,monospace" font-size="11.00">AddCommand</text>
</g>
<!-- \\Siad007\\VersionControl\\HG\\Command\\AddCommand&#45;&gt;\\Siad007\\VersionControl\\HG\\Command\\AbstractCommand -->
<g id="edge23" class="edge"><title>\\Siad007\\VersionControl\\HG\\Command\\AddCommand&#45;&gt;\\Siad007\\VersionControl\\HG\\Command\\AbstractCommand</title>
<path fill="none" stroke="black" d="M258.834,-555.624C251.403,-559.236 244.091,-563.659 238,-569 176.81,-622.653 135.927,-712.316 118.132,-757.376"/>
<polygon fill="none" stroke="black" points="114.831,-756.209 114.492,-766.799 121.36,-758.732 114.831,-756.209"/>
</g>
<!-- \\Siad007\\VersionControl\\HG\\Command\\RootCommand -->
<g id="node25" class="node"><title>\\Siad007\\VersionControl\\HG\\Command\\RootCommand</title>
<polygon fill="none" stroke="black" points="537.5,-290 446.5,-290 446.5,-254 537.5,-254 537.5,-290"/>
<text text-anchor="middle" x="492" y="-269.2" font-family="Courier,monospace" font-size="11.00">RootCommand</text>
</g>
<!-- \\Siad007\\VersionControl\\HG\\Command\\RootCommand&#45;&gt;\\Siad007\\VersionControl\\HG\\Command\\BaseCommand -->
<g id="edge24" class="edge"><title>\\Siad007\\VersionControl\\HG\\Command\\RootCommand&#45;&gt;\\Siad007\\VersionControl\\HG\\Command\\BaseCommand</title>
<path fill="none" stroke="black" d="M446.21,-284.797C419.357,-292.47 385.018,-302.281 356.585,-310.404"/>
<polygon fill="none" stroke="black" points="355.45,-307.089 346.796,-313.201 357.373,-313.819 355.45,-307.089"/>
</g>
<!-- \\Siad007\\VersionControl\\HG\\Command\\UnbundleCommand -->
<g id="node26" class="node"><title>\\Siad007\\VersionControl\\HG\\Command\\UnbundleCommand</title>
<polygon fill="none" stroke="black" points="360,-506 242,-506 242,-470 360,-470 360,-506"/>
<text text-anchor="middle" x="301" y="-485.2" font-family="Courier,monospace" font-size="11.00">UnbundleCommand</text>
</g>
<!-- \\Siad007\\VersionControl\\HG\\Command\\UnbundleCommand&#45;&gt;\\Siad007\\VersionControl\\HG\\Command\\AbstractCommand -->
<g id="edge25" class="edge"><title>\\Siad007\\VersionControl\\HG\\Command\\UnbundleCommand&#45;&gt;\\Siad007\\VersionControl\\HG\\Command\\AbstractCommand</title>
<path fill="none" stroke="black" d="M249.599,-506.08C245.415,-508.7 241.468,-511.662 238,-515 165.441,-584.852 128.28,-703.463 114.474,-757.141"/>
<polygon fill="none" stroke="black" points="111.045,-756.427 112.021,-766.977 117.837,-758.121 111.045,-756.427"/>
</g>
<!-- \\Siad007\\VersionControl\\HG\\Command\\CloneCommand -->
<g id="node27" class="node"><title>\\Siad007\\VersionControl\\HG\\Command\\CloneCommand</title>
<polygon fill="none" stroke="black" points="350,-452 252,-452 252,-416 350,-416 350,-452"/>
<text text-anchor="middle" x="301" y="-431.2" font-family="Courier,monospace" font-size="11.00">CloneCommand</text>
</g>
<!-- \\Siad007\\VersionControl\\HG\\Command\\CloneCommand&#45;&gt;\\Siad007\\VersionControl\\HG\\Command\\AbstractCommand -->
<g id="edge26" class="edge"><title>\\Siad007\\VersionControl\\HG\\Command\\CloneCommand&#45;&gt;\\Siad007\\VersionControl\\HG\\Command\\AbstractCommand</title>
<path fill="none" stroke="black" d="M251.807,-450.317C246.753,-453.337 242.008,-456.873 238,-461 153.946,-547.54 122.009,-695.382 111.959,-756.878"/>
<polygon fill="none" stroke="black" points="108.465,-756.569 110.379,-766.989 115.381,-757.65 108.465,-756.569"/>
</g>
<!-- \\Siad007\\VersionControl\\HG\\Command\\BookmarksCommand -->
<g id="node28" class="node"><title>\\Siad007\\VersionControl\\HG\\Command\\BookmarksCommand</title>
<polygon fill="none" stroke="black" points="363.5,-398 238.5,-398 238.5,-362 363.5,-362 363.5,-398"/>
<text text-anchor="middle" x="301" y="-377.2" font-family="Courier,monospace" font-size="11.00">BookmarksCommand</text>
</g>
<!-- \\Siad007\\VersionControl\\HG\\Command\\BookmarksCommand&#45;&gt;\\Siad007\\VersionControl\\HG\\Command\\AbstractCommand -->
<g id="edge27" class="edge"><title>\\Siad007\\VersionControl\\HG\\Command\\BookmarksCommand&#45;&gt;\\Siad007\\VersionControl\\HG\\Command\\AbstractCommand</title>
<path fill="none" stroke="black" d="M248.575,-398.06C244.705,-400.671 241.106,-403.636 238,-407 142.358,-510.561 116.647,-687.771 110.106,-756.546"/>
<polygon fill="none" stroke="black" points="106.609,-756.355 109.213,-766.625 113.582,-756.973 106.609,-756.355"/>
</g>
<!-- \\Siad007\\VersionControl\\HG\\Command\\VersionCommand -->
<g id="node29" class="node"><title>\\Siad007\\VersionControl\\HG\\Command\\VersionCommand</title>
<polygon fill="none" stroke="black" points="547.5,-236 436.5,-236 436.5,-200 547.5,-200 547.5,-236"/>
<text text-anchor="middle" x="492" y="-215.2" font-family="Courier,monospace" font-size="11.00">VersionCommand</text>
</g>
<!-- \\Siad007\\VersionControl\\HG\\Command\\VersionCommand&#45;&gt;\\Siad007\\VersionControl\\HG\\Command\\BaseCommand -->
<g id="edge28" class="edge"><title>\\Siad007\\VersionControl\\HG\\Command\\VersionCommand&#45;&gt;\\Siad007\\VersionControl\\HG\\Command\\BaseCommand</title>
<path fill="none" stroke="black" d="M451.75,-236.142C446.371,-238.952 440.988,-241.942 436,-245 401.897,-265.905 398.571,-278.879 364,-299 361.346,-300.545 358.587,-302.056 355.772,-303.524"/>
<polygon fill="none" stroke="black" points="354.052,-300.47 346.653,-308.054 357.166,-306.739 354.052,-300.47"/>
</g>
<!-- \\Siad007\\VersionControl\\HG\\Command\\BundleCommand -->
<g id="node30" class="node"><title>\\Siad007\\VersionControl\\HG\\Command\\BundleCommand</title>
<polygon fill="none" stroke="black" points="353,-290 249,-290 249,-254 353,-254 353,-290"/>
<text text-anchor="middle" x="301" y="-269.2" font-family="Courier,monospace" font-size="11.00">BundleCommand</text>
</g>
<!-- \\Siad007\\VersionControl\\HG\\Command\\BundleCommand&#45;&gt;\\Siad007\\VersionControl\\HG\\Command\\AbstractCommand -->
<g id="edge29" class="edge"><title>\\Siad007\\VersionControl\\HG\\Command\\BundleCommand&#45;&gt;\\Siad007\\VersionControl\\HG\\Command\\AbstractCommand</title>
<path fill="none" stroke="black" d="M248.906,-289.425C244.865,-292.18 241.14,-295.352 238,-299 118.576,-437.738 107.562,-675.063 107.494,-756.552"/>
<polygon fill="none" stroke="black" points="103.994,-756.58 107.542,-766.563 110.993,-756.546 103.994,-756.58"/>
</g>
<!-- \\Siad007\\VersionControl\\HG\\Command\\CatCommand -->
<g id="node31" class="node"><title>\\Siad007\\VersionControl\\HG\\Command\\CatCommand</title>
<polygon fill="none" stroke="black" points="343,-236 259,-236 259,-200 343,-200 343,-236"/>
<text text-anchor="middle" x="301" y="-215.2" font-family="Courier,monospace" font-size="11.00">CatCommand</text>
</g>
<!-- \\Siad007\\VersionControl\\HG\\Command\\CatCommand&#45;&gt;\\Siad007\\VersionControl\\HG\\Command\\AbstractCommand -->
<g id="edge30" class="edge"><title>\\Siad007\\VersionControl\\HG\\Command\\CatCommand&#45;&gt;\\Siad007\\VersionControl\\HG\\Command\\AbstractCommand</title>
<path fill="none" stroke="black" d="M258.695,-229.601C250.918,-233.418 243.509,-238.435 238,-245 170.786,-325.097 124.157,-657.023 111.472,-756.622"/>
<polygon fill="none" stroke="black" points="107.965,-756.46 110.19,-766.818 114.91,-757.333 107.965,-756.46"/>
</g>
<!-- \\Siad007\\VersionControl\\HG\\Command\\RemoveCommand -->
<g id="node32" class="node"><title>\\Siad007\\VersionControl\\HG\\Command\\RemoveCommand</title>
<polygon fill="none" stroke="black" points="353,-182 249,-182 249,-146 353,-146 353,-182"/>
<text text-anchor="middle" x="301" y="-161.2" font-family="Courier,monospace" font-size="11.00">RemoveCommand</text>
</g>
<!-- \\Siad007\\VersionControl\\HG\\Command\\RemoveCommand&#45;&gt;\\Siad007\\VersionControl\\HG\\Command\\AbstractCommand -->
<g id="edge31" class="edge"><title>\\Siad007\\VersionControl\\HG\\Command\\RemoveCommand&#45;&gt;\\Siad007\\VersionControl\\HG\\Command\\AbstractCommand</title>
<path fill="none" stroke="black" d="M248.727,-181.274C244.723,-184.06 241.056,-187.281 238,-191 164.7,-280.217 121.746,-650.704 110.799,-756.609"/>
<polygon fill="none" stroke="black" points="107.289,-756.531 109.758,-766.835 114.253,-757.241 107.289,-756.531"/>
</g>
<!-- \\Siad007\\VersionControl\\HG\\Command\\RenameCommand -->
<g id="node33" class="node"><title>\\Siad007\\VersionControl\\HG\\Command\\RenameCommand</title>
<polygon fill="none" stroke="black" points="353,-128 249,-128 249,-92 353,-92 353,-128"/>
<text text-anchor="middle" x="301" y="-107.2" font-family="Courier,monospace" font-size="11.00">RenameCommand</text>
</g>
<!-- \\Siad007\\VersionControl\\HG\\Command\\RenameCommand&#45;&gt;\\Siad007\\VersionControl\\HG\\Command\\AbstractCommand -->
<g id="edge32" class="edge"><title>\\Siad007\\VersionControl\\HG\\Command\\RenameCommand&#45;&gt;\\Siad007\\VersionControl\\HG\\Command\\AbstractCommand</title>
<path fill="none" stroke="black" d="M248.951,-127.014C244.846,-129.858 241.097,-133.163 238,-137 158.583,-235.402 119.552,-644.712 110.234,-756.616"/>
<polygon fill="none" stroke="black" points="106.73,-756.531 109.402,-766.783 113.706,-757.102 106.73,-756.531"/>
</g>
<!-- \\Siad007\\VersionControl\\HG\\Factory -->
<g id="node34" class="node"><title>\\Siad007\\VersionControl\\HG\\Factory</title>
<polygon fill="none" stroke="black" points="524,-76 460,-76 460,-40 524,-40 524,-76"/>
<text text-anchor="middle" x="492" y="-55.2" font-family="Courier,monospace" font-size="11.00">Factory</text>
</g>
</g>
</svg>
