<?xml version="1.0" encoding="UTF-8" standalone="no"?>
<!DOCTYPE svg PUBLIC "-//W3C//DTD SVG 1.1//EN"
 "http://www.w3.org/Graphics/SVG/1.1/DTD/svg11.dtd">
<!-- Generated by graphviz version 2.36.0 (20140111.2315)
 -->
<!-- Title: G Pages: 1 -->
<svg width="558pt" height="824pt"
 viewBox="0.00 0.00 558.00 824.00" xmlns="http://www.w3.org/2000/svg" xmlns:xlink="http://www.w3.org/1999/xlink">
<g id="graph0" class="graph" transform="scale(1 1) rotate(0) translate(4 820)">
<title>G</title>
<polygon fill="white" stroke="none" points="-4,4 -4,-820 554,-820 554,4 -4,4"/>
<g id="clust1" class="cluster"><title>cluster_Global</title>
<path fill="none" stroke="gray" d="M20,-8C20,-8 530,-8 530,-8 536,-8 542,-14 542,-20 542,-20 542,-796 542,-796 542,-802 536,-808 530,-808 530,-808 20,-808 20,-808 14,-808 8,-802 8,-796 8,-796 8,-20 8,-20 8,-14 14,-8 20,-8"/>
<text text-anchor="middle" x="275" y="-795.2" font-family="Times New Roman,serif" font-size="11.00" fill="gray">Global</text>
</g>
<g id="clust2" class="cluster"><title>cluster_\Siad007</title>
<path fill="none" stroke="gray" d="M28,-16C28,-16 522,-16 522,-16 528,-16 534,-22 534,-28 534,-28 534,-768 534,-768 534,-774 528,-780 522,-780 522,-780 28,-780 28,-780 22,-780 16,-774 16,-768 16,-768 16,-28 16,-28 16,-22 22,-16 28,-16"/>
<text text-anchor="middle" x="275" y="-767.2" font-family="Times New Roman,serif" font-size="11.00" fill="gray">Siad007</text>
</g>
<g id="clust3" class="cluster"><title>cluster_\Siad007\VersionControl</title>
<path fill="none" stroke="gray" d="M36,-24C36,-24 514,-24 514,-24 520,-24 526,-30 526,-36 526,-36 526,-740 526,-740 526,-746 520,-752 514,-752 514,-752 36,-752 36,-752 30,-752 24,-746 24,-740 24,-740 24,-36 24,-36 24,-30 30,-24 36,-24"/>
<text text-anchor="middle" x="275" y="-739.2" font-family="Times New Roman,serif" font-size="11.00" fill="gray">VersionControl</text>
</g>
<g id="clust4" class="cluster"><title>cluster_\Siad007\VersionControl\HG</title>
<path fill="none" stroke="gray" d="M44,-32C44,-32 506,-32 506,-32 512,-32 518,-38 518,-44 518,-44 518,-712 518,-712 518,-718 512,-724 506,-724 506,-724 44,-724 44,-724 38,-724 32,-718 32,-712 32,-712 32,-44 32,-44 32,-38 38,-32 44,-32"/>
<text text-anchor="middle" x="275" y="-711.2" font-family="Times New Roman,serif" font-size="11.00" fill="gray">HG</text>
</g>
<g id="clust5" class="cluster"><title>cluster_\Siad007\VersionControl\HG\Command</title>
<path fill="none" stroke="gray" d="M52,-84C52,-84 498,-84 498,-84 504,-84 510,-90 510,-96 510,-96 510,-684 510,-684 510,-690 504,-696 498,-696 498,-696 52,-696 52,-696 46,-696 40,-690 40,-684 40,-684 40,-96 40,-96 40,-90 46,-84 52,-84"/>
<text text-anchor="middle" x="275" y="-683.2" font-family="Times New Roman,serif" font-size="11.00" fill="gray">Command</text>
</g>
<!-- \\Siad007\\VersionControl\\HG\\Command\\PushCommand -->
<g id="node1" class="node"><title>\\Siad007\\VersionControl\\HG\\Command\\PushCommand</title>
<polygon fill="none" stroke="black" points="318.5,-668 235.5,-668 235.5,-632 318.5,-632 318.5,-668"/>
<text text-anchor="middle" x="277" y="-647.2" font-family="Times New Roman,serif" font-size="11.00">PushCommand</text>
</g>
<!-- \\Siad007\\VersionControl\\HG\\Command\\AbstractCommand -->
<g id="node11" class="node"><title>\\Siad007\\VersionControl\\HG\\Command\\AbstractCommand</title>
<polygon fill="none" stroke="black" points="148,-398 48,-398 48,-362 148,-362 148,-398"/>
<text text-anchor="start" x="75" y="-383.2" font-family="Times New Roman,serif" font-size="11.00">«abstract»</text>
<text text-anchor="start" x="56" y="-371.2" font-family="Times New Roman,serif" font-size="11.00">AbstractCommand</text>
</g>
<!-- \\Siad007\\VersionControl\\HG\\Command\\PushCommand&#45;&gt;\\Siad007\\VersionControl\\HG\\Command\\AbstractCommand -->
<g id="edge1" class="edge"><title>\\Siad007\\VersionControl\\HG\\Command\\PushCommand&#45;&gt;\\Siad007\\VersionControl\\HG\\Command\\AbstractCommand</title>
<path fill="none" stroke="black" d="M235.315,-634.423C229.765,-631.189 224.455,-627.398 220,-623 156.442,-560.247 120.674,-457.229 106.383,-407.955"/>
<polygon fill="none" stroke="black" points="109.741,-406.965 103.657,-398.291 103.003,-408.865 109.741,-406.965"/>
</g>
<!-- \\Siad007\\VersionControl\\HG\\Command\\BaseCommand -->
<g id="node2" class="node"><title>\\Siad007\\VersionControl\\HG\\Command\\BaseCommand</title>
<polygon fill="none" stroke="black" points="319,-236 235,-236 235,-200 319,-200 319,-236"/>
<text text-anchor="middle" x="277" y="-215.2" font-family="Times New Roman,serif" font-size="11.00">BaseCommand</text>
</g>
<!-- \\Siad007\\VersionControl\\HG\\Command\\BaseCommand&#45;&gt;\\Siad007\\VersionControl\\HG\\Command\\AbstractCommand -->
<g id="edge2" class="edge"><title>\\Siad007\\VersionControl\\HG\\Command\\BaseCommand&#45;&gt;\\Siad007\\VersionControl\\HG\\Command\\AbstractCommand</title>
<path fill="none" stroke="black" d="M234.832,-235.523C229.652,-238.391 224.572,-241.563 220,-245 178.098,-276.501 139.501,-324.158 117.645,-353.614"/>
<polygon fill="none" stroke="black" points="114.756,-351.635 111.675,-361.771 120.405,-355.769 114.756,-351.635"/>
</g>
<!-- \\Siad007\\VersionControl\\HG\\Command\\HeadsCommand -->
<g id="node3" class="node"><title>\\Siad007\\VersionControl\\HG\\Command\\HeadsCommand</title>
<polygon fill="none" stroke="black" points="322,-614 232,-614 232,-578 322,-578 322,-614"/>
<text text-anchor="middle" x="277" y="-593.2" font-family="Times New Roman,serif" font-size="11.00">HeadsCommand</text>
</g>
<!-- \\Siad007\\VersionControl\\HG\\Command\\HeadsCommand&#45;&gt;\\Siad007\\VersionControl\\HG\\Command\\AbstractCommand -->
<g id="edge3" class="edge"><title>\\Siad007\\VersionControl\\HG\\Command\\HeadsCommand&#45;&gt;\\Siad007\\VersionControl\\HG\\Command\\AbstractCommand</title>
<path fill="none" stroke="black" d="M232.275,-577.951C227.903,-575.275 223.715,-572.294 220,-569 167.344,-522.322 128.76,-447.435 110.601,-407.376"/>
<polygon fill="none" stroke="black" points="113.789,-405.93 106.53,-398.212 107.392,-408.772 113.789,-405.93"/>
</g>
<!-- \\Siad007\\VersionControl\\HG\\Command\\PullCommand -->
<g id="node4" class="node"><title>\\Siad007\\VersionControl\\HG\\Command\\PullCommand</title>
<polygon fill="none" stroke="black" points="316,-560 238,-560 238,-524 316,-524 316,-560"/>
<text text-anchor="middle" x="277" y="-539.2" font-family="Times New Roman,serif" font-size="11.00">PullCommand</text>
</g>
<!-- \\Siad007\\VersionControl\\HG\\Command\\PullCommand&#45;&gt;\\Siad007\\VersionControl\\HG\\Command\\AbstractCommand -->
<g id="edge4" class="edge"><title>\\Siad007\\VersionControl\\HG\\Command\\PullCommand&#45;&gt;\\Siad007\\VersionControl\\HG\\Command\\AbstractCommand</title>
<path fill="none" stroke="black" d="M237.773,-526.068C231.587,-522.796 225.435,-519.086 220,-515 178.098,-483.499 139.501,-435.842 117.645,-406.386"/>
<polygon fill="none" stroke="black" points="120.405,-404.231 111.675,-398.229 114.756,-408.365 120.405,-404.231"/>
</g>
<!-- \\Siad007\\VersionControl\\HG\\Command\\PathsCommand -->
<g id="node5" class="node"><title>\\Siad007\\VersionControl\\HG\\Command\\PathsCommand</title>
<polygon fill="none" stroke="black" points="320,-506 234,-506 234,-470 320,-470 320,-506"/>
<text text-anchor="middle" x="277" y="-485.2" font-family="Times New Roman,serif" font-size="11.00">PathsCommand</text>
</g>
<!-- \\Siad007\\VersionControl\\HG\\Command\\PathsCommand&#45;&gt;\\Siad007\\VersionControl\\HG\\Command\\AbstractCommand -->
<g id="edge5" class="edge"><title>\\Siad007\\VersionControl\\HG\\Command\\PathsCommand&#45;&gt;\\Siad007\\VersionControl\\HG\\Command\\AbstractCommand</title>
<path fill="none" stroke="black" d="M236.773,-469.957C231.079,-467.088 225.34,-464.055 220,-461 189.317,-443.449 156.054,-420.906 132.182,-404.059"/>
<polygon fill="none" stroke="black" points="134.014,-401.068 123.835,-398.131 129.961,-406.775 134.014,-401.068"/>
</g>
<!-- \\Siad007\\VersionControl\\HG\\Command\\SummaryCommand -->
<g id="node6" class="node"><title>\\Siad007\\VersionControl\\HG\\Command\\SummaryCommand</title>
<polygon fill="none" stroke="black" points="329,-452 225,-452 225,-416 329,-416 329,-452"/>
<text text-anchor="middle" x="277" y="-431.2" font-family="Times New Roman,serif" font-size="11.00">SummaryCommand</text>
</g>
<!-- \\Siad007\\VersionControl\\HG\\Command\\SummaryCommand&#45;&gt;\\Siad007\\VersionControl\\HG\\Command\\AbstractCommand -->
<g id="edge6" class="edge"><title>\\Siad007\\VersionControl\\HG\\Command\\SummaryCommand&#45;&gt;\\Siad007\\VersionControl\\HG\\Command\\AbstractCommand</title>
<path fill="none" stroke="black" d="M224.804,-418.381C203.909,-412.006 179.618,-404.595 157.984,-397.995"/>
<polygon fill="none" stroke="black" points="158.839,-394.597 148.253,-395.026 156.796,-401.292 158.839,-394.597"/>
</g>
<!-- \\Siad007\\VersionControl\\HG\\Command\\InitCommand -->
<g id="node7" class="node"><title>\\Siad007\\VersionControl\\HG\\Command\\InitCommand</title>
<polygon fill="none" stroke="black" points="315,-398 239,-398 239,-362 315,-362 315,-398"/>
<text text-anchor="middle" x="277" y="-377.2" font-family="Times New Roman,serif" font-size="11.00">InitCommand</text>
</g>
<!-- \\Siad007\\VersionControl\\HG\\Command\\InitCommand&#45;&gt;\\Siad007\\VersionControl\\HG\\Command\\AbstractCommand -->
<g id="edge7" class="edge"><title>\\Siad007\\VersionControl\\HG\\Command\\InitCommand&#45;&gt;\\Siad007\\VersionControl\\HG\\Command\\AbstractCommand</title>
<path fill="none" stroke="black" d="M238.895,-380C215.524,-380 184.836,-380 158.158,-380"/>
<polygon fill="none" stroke="black" points="158.154,-376.5 148.154,-380 158.154,-383.5 158.154,-376.5"/>
</g>
<!-- \\Siad007\\VersionControl\\HG\\Command\\TagsCommand -->
<g id="node8" class="node"><title>\\Siad007\\VersionControl\\HG\\Command\\TagsCommand</title>
<polygon fill="none" stroke="black" points="495.5,-318 412.5,-318 412.5,-282 495.5,-282 495.5,-318"/>
<text text-anchor="middle" x="454" y="-297.2" font-family="Times New Roman,serif" font-size="11.00">TagsCommand</text>
</g>
<!-- \\Siad007\\VersionControl\\HG\\Command\\TagsCommand&#45;&gt;\\Siad007\\VersionControl\\HG\\Command\\BaseCommand -->
<g id="edge8" class="edge"><title>\\Siad007\\VersionControl\\HG\\Command\\TagsCommand&#45;&gt;\\Siad007\\VersionControl\\HG\\Command\\BaseCommand</title>
<path fill="none" stroke="black" d="M414.162,-281.802C388.016,-269.55 353.371,-253.317 325.571,-240.291"/>
<polygon fill="none" stroke="black" points="326.968,-237.08 316.428,-236.006 323.998,-243.419 326.968,-237.08"/>
</g>
<!-- \\Siad007\\VersionControl\\HG\\Command\\UpdateCommand -->
<g id="node9" class="node"><title>\\Siad007\\VersionControl\\HG\\Command\\UpdateCommand</title>
<polygon fill="none" stroke="black" points="324,-344 230,-344 230,-308 324,-308 324,-344"/>
<text text-anchor="middle" x="277" y="-323.2" font-family="Times New Roman,serif" font-size="11.00">UpdateCommand</text>
</g>
<!-- \\Siad007\\VersionControl\\HG\\Command\\UpdateCommand&#45;&gt;\\Siad007\\VersionControl\\HG\\Command\\AbstractCommand -->
<g id="edge9" class="edge"><title>\\Siad007\\VersionControl\\HG\\Command\\UpdateCommand&#45;&gt;\\Siad007\\VersionControl\\HG\\Command\\AbstractCommand</title>
<path fill="none" stroke="black" d="M229.957,-340.047C207.999,-346.746 181.47,-354.84 158.048,-361.985"/>
<polygon fill="none" stroke="black" points="156.766,-358.717 148.223,-364.983 158.809,-365.412 156.766,-358.717"/>
</g>
<!-- \\Siad007\\VersionControl\\HG\\Command\\VerifyCommand -->
<g id="node10" class="node"><title>\\Siad007\\VersionControl\\HG\\Command\\VerifyCommand</title>
<polygon fill="none" stroke="black" points="499,-264 409,-264 409,-228 499,-228 499,-264"/>
<text text-anchor="middle" x="454" y="-243.2" font-family="Times New Roman,serif" font-size="11.00">VerifyCommand</text>
</g>
<!-- \\Siad007\\VersionControl\\HG\\Command\\VerifyCommand&#45;&gt;\\Siad007\\VersionControl\\HG\\Command\\BaseCommand -->
<g id="edge10" class="edge"><title>\\Siad007\\VersionControl\\HG\\Command\\VerifyCommand&#45;&gt;\\Siad007\\VersionControl\\HG\\Command\\BaseCommand</title>
<path fill="none" stroke="black" d="M408.84,-238.934C384.634,-235.061 354.508,-230.241 329.267,-226.203"/>
<polygon fill="none" stroke="black" points="329.568,-222.706 319.14,-224.582 328.462,-229.618 329.568,-222.706"/>
</g>
<!-- \\Siad007\\VersionControl\\HG\\Command\\RootCommand -->
<g id="node12" class="node"><title>\\Siad007\\VersionControl\\HG\\Command\\RootCommand</title>
<polygon fill="none" stroke="black" points="495.5,-210 412.5,-210 412.5,-174 495.5,-174 495.5,-210"/>
<text text-anchor="middle" x="454" y="-189.2" font-family="Times New Roman,serif" font-size="11.00">RootCommand</text>
</g>
<!-- \\Siad007\\VersionControl\\HG\\Command\\RootCommand&#45;&gt;\\Siad007\\VersionControl\\HG\\Command\\BaseCommand -->
<g id="edge11" class="edge"><title>\\Siad007\\VersionControl\\HG\\Command\\RootCommand&#45;&gt;\\Siad007\\VersionControl\\HG\\Command\\BaseCommand</title>
<path fill="none" stroke="black" d="M412.412,-198.03C387.72,-201.699 355.954,-206.418 329.502,-210.348"/>
<polygon fill="none" stroke="black" points="328.656,-206.936 319.279,-211.867 329.684,-213.86 328.656,-206.936"/>
</g>
<!-- \\Siad007\\VersionControl\\HG\\Command\\CloneCommand -->
<g id="node13" class="node"><title>\\Siad007\\VersionControl\\HG\\Command\\CloneCommand</title>
<polygon fill="none" stroke="black" points="320.5,-290 233.5,-290 233.5,-254 320.5,-254 320.5,-290"/>
<text text-anchor="middle" x="277" y="-269.2" font-family="Times New Roman,serif" font-size="11.00">CloneCommand</text>
</g>
<!-- \\Siad007\\VersionControl\\HG\\Command\\CloneCommand&#45;&gt;\\Siad007\\VersionControl\\HG\\Command\\AbstractCommand -->
<g id="edge12" class="edge"><title>\\Siad007\\VersionControl\\HG\\Command\\CloneCommand&#45;&gt;\\Siad007\\VersionControl\\HG\\Command\\AbstractCommand</title>
<path fill="none" stroke="black" d="M236.773,-290.043C231.079,-292.912 225.34,-295.945 220,-299 189.317,-316.551 156.054,-339.094 132.182,-355.941"/>
<polygon fill="none" stroke="black" points="129.961,-353.225 123.835,-361.869 134.014,-358.932 129.961,-353.225"/>
</g>
<!-- \\Siad007\\VersionControl\\HG\\Command\\VersionCommand -->
<g id="node14" class="node"><title>\\Siad007\\VersionControl\\HG\\Command\\VersionCommand</title>
<polygon fill="none" stroke="black" points="502,-156 406,-156 406,-120 502,-120 502,-156"/>
<text text-anchor="middle" x="454" y="-135.2" font-family="Times New Roman,serif" font-size="11.00">VersionCommand</text>
</g>
<!-- \\Siad007\\VersionControl\\HG\\Command\\VersionCommand&#45;&gt;\\Siad007\\VersionControl\\HG\\Command\\BaseCommand -->
<g id="edge13" class="edge"><title>\\Siad007\\VersionControl\\HG\\Command\\VersionCommand&#45;&gt;\\Siad007\\VersionControl\\HG\\Command\\BaseCommand</title>
<path fill="none" stroke="black" d="M413.29,-156.153C387.671,-167.865 354.167,-183.181 326.91,-195.641"/>
<polygon fill="none" stroke="black" points="325.193,-192.578 317.553,-199.919 328.103,-198.944 325.193,-192.578"/>
</g>
<!-- \\Siad007\\VersionControl\\HG\\Command\\AddCommand -->
<g id="node15" class="node"><title>\\Siad007\\VersionControl\\HG\\Command\\AddCommand</title>
<polygon fill="none" stroke="black" points="317,-182 237,-182 237,-146 317,-146 317,-182"/>
<text text-anchor="middle" x="277" y="-161.2" font-family="Times New Roman,serif" font-size="11.00">AddCommand</text>
</g>
<!-- \\Siad007\\VersionControl\\HG\\Command\\AddCommand&#45;&gt;\\Siad007\\VersionControl\\HG\\Command\\AbstractCommand -->
<g id="edge14" class="edge"><title>\\Siad007\\VersionControl\\HG\\Command\\AddCommand&#45;&gt;\\Siad007\\VersionControl\\HG\\Command\\AbstractCommand</title>
<path fill="none" stroke="black" d="M236.89,-179.368C230.874,-182.688 225.008,-186.561 220,-191 167.344,-237.678 128.76,-312.565 110.601,-352.624"/>
<polygon fill="none" stroke="black" points="107.392,-351.228 106.53,-361.788 113.789,-354.07 107.392,-351.228"/>
</g>
<!-- \\Siad007\\VersionControl\\HG\\Command\\AddremoveCommand -->
<g id="node16" class="node"><title>\\Siad007\\VersionControl\\HG\\Command\\AddremoveCommand</title>
<polygon fill="none" stroke="black" points="333.5,-128 220.5,-128 220.5,-92 333.5,-92 333.5,-128"/>
<text text-anchor="middle" x="277" y="-107.2" font-family="Times New Roman,serif" font-size="11.00">AddremoveCommand</text>
</g>
<!-- \\Siad007\\VersionControl\\HG\\Command\\AddremoveCommand&#45;&gt;\\Siad007\\VersionControl\\HG\\Command\\AbstractCommand -->
<g id="edge15" class="edge"><title>\\Siad007\\VersionControl\\HG\\Command\\AddremoveCommand&#45;&gt;\\Siad007\\VersionControl\\HG\\Command\\AbstractCommand</title>
<path fill="none" stroke="black" d="M231.347,-128.017C227.251,-130.676 223.379,-133.663 220,-137 156.442,-199.753 120.674,-302.771 106.383,-352.045"/>
<polygon fill="none" stroke="black" points="103.003,-351.135 103.657,-361.709 109.741,-353.035 103.003,-351.135"/>
</g>
<!-- \\Siad007\\VersionControl\\HG\\Factory -->
<g id="node17" class="node"><title>\\Siad007\\VersionControl\\HG\\Factory</title>
<polygon fill="none" stroke="black" points="481,-76 427,-76 427,-40 481,-40 481,-76"/>
<text text-anchor="middle" x="454" y="-55.2" font-family="Times New Roman,serif" font-size="11.00">Factory</text>
</g>
</g>
</svg>
